<?xml version="1.0" standalone="no"?><!DOCTYPE svg PUBLIC "-//W3C//DTD SVG 1.1//EN" "http://www.w3.org/Graphics/SVG/1.1/DTD/svg11.dtd"><svg class="icon" width="128px" height="128.00px" viewBox="0 0 1024 1024" version="1.1" xmlns="http://www.w3.org/2000/svg"><path d="M819.626667 748.885333A487.850667 487.850667 0 0 1 384 41.045333a487.936 487.936 0 1 0 614.4 674.133334 486.4 486.4 0 0 1-178.773333 33.706666z" fill="#FFBF44" /><path d="M812.544 543.061333H55.125333a46.08 46.08 0 1 1 0-92.16h757.418667a46.08 46.08 0 1 1 0 92.16z" fill="#FFFFFF" opacity=".6" /><path d="M968.874667 731.477333H211.456a46.08 46.08 0 1 1 0-92.16h757.418667a46.08 46.08 0 0 1 0 92.16z" fill="#FFFFFF" opacity=".6" /><path d="M829.013333 919.893333H71.509333a46.08 46.08 0 1 1 0-92.16h757.504a46.08 46.08 0 0 1 0 92.16z" fill="#FFFFFF" opacity=".6" /></svg>