<?xml version="1.0" standalone="no"?><!DOCTYPE svg PUBLIC "-//W3C//DTD SVG 1.1//EN" "http://www.w3.org/Graphics/SVG/1.1/DTD/svg11.dtd"><svg class="icon" width="128px" height="128.00px" viewBox="0 0 1024 1024" version="1.1" xmlns="http://www.w3.org/2000/svg"><path d="M795.136 243.285333A225.109333 225.109333 0 0 0 750.933333 247.466667a288.341333 288.341333 0 0 0-560.384 41.728h-10.410666v1.706666a201.301333 201.301333 0 0 0 0 399.36v1.706667h614.997333a224.426667 224.426667 0 0 0 0-448.853333z" fill="#FFFFFF" /><path d="M683.264 981.845333a2.474667 2.474667 0 0 1-2.474667-2.474666v-102.912a2.474667 2.474667 0 0 1 4.864 0v102.912a2.474667 2.474667 0 0 1-2.389333 2.474666z" fill="#3ECDFF" /><path d="M696.490667 981.845333a2.474667 2.474667 0 0 1-1.792-0.768l-13.226667-14.08a2.389333 2.389333 0 0 1 0-3.413333 2.389333 2.389333 0 0 1 3.413333 0l13.312 14.08a2.389333 2.389333 0 0 1 0 3.413333 2.304 2.304 0 0 1-1.706666 0.768z" fill="#3ECDFF" /><path d="M669.952 981.333333a2.218667 2.218667 0 0 1-1.621333-0.597333 2.389333 2.389333 0 0 1 0-3.413333l13.312-14.08a2.389333 2.389333 0 1 1 3.498666 3.242666L671.744 981.333333a2.474667 2.474667 0 0 1-1.792 0zM683.264 893.013333a2.730667 2.730667 0 0 1-1.706667-0.682666 2.389333 2.389333 0 0 1 0-3.413334l13.226667-14.08a2.474667 2.474667 0 0 1 3.584 3.328l-13.312 14.08a2.304 2.304 0 0 1-1.792 0.768z" fill="#3ECDFF" /><path d="M683.264 893.098667a2.304 2.304 0 0 1-1.792-0.768l-13.312-14.08a2.474667 2.474667 0 0 1 3.584-3.328l13.226667 14.08a2.389333 2.389333 0 0 1 0 3.413333 2.645333 2.645333 0 0 1-1.706667 0.682667zM719.616 966.741333a2.56 2.56 0 0 1-1.706667-0.682666l-72.789333-72.789334a2.389333 2.389333 0 0 1 3.413333-3.413333l72.789334 72.789333a2.389333 2.389333 0 0 1 0 3.413334 2.730667 2.730667 0 0 1-1.706667 0.682666z" fill="#3ECDFF" /><path d="M729.002667 957.354667l-19.370667-0.597334a2.304 2.304 0 0 1-2.304-2.474666 2.474667 2.474667 0 0 1 2.474667-2.304l19.370666 0.512a2.474667 2.474667 0 0 1 2.304 2.56 2.389333 2.389333 0 0 1-2.474666 2.304z" fill="#3ECDFF" /><path d="M710.144 976.042667a2.389333 2.389333 0 0 1-2.389333-2.304l-0.597334-19.370667a2.304 2.304 0 0 1 2.304-2.474667c1.194667 0 2.474667 1.024 2.56 2.304l0.512 19.370667a2.304 2.304 0 0 1-2.304 2.474667zM657.066667 903.936a2.389333 2.389333 0 0 1-2.389334-2.304l-0.597333-19.370667a2.304 2.304 0 0 1 2.304-2.474666 2.474667 2.474667 0 0 1 2.474667 2.304l0.597333 19.370666a2.389333 2.389333 0 0 1-2.304 2.474667z" fill="#3ECDFF" /><path d="M657.066667 904.021333l-19.370667-0.597333a2.304 2.304 0 0 1-2.304-2.474667 2.218667 2.218667 0 0 1 2.474667-2.304l19.370666 0.512a2.474667 2.474667 0 0 1 2.304 2.56 2.389333 2.389333 0 0 1-2.474666 2.304zM734.72 930.133333H631.466667a2.474667 2.474667 0 0 1 0-4.864h103.253333a2.474667 2.474667 0 0 1 0 4.864z" fill="#3ECDFF" /><path d="M720.64 930.133333a2.474667 2.474667 0 0 1-1.792-0.768 2.474667 2.474667 0 0 1 0-3.413333L733.013333 913.066667a2.389333 2.389333 0 0 1 3.413334 0 2.389333 2.389333 0 0 1 0 3.413333l-14.165334 13.653333a2.304 2.304 0 0 1-1.621333 0z" fill="#3ECDFF" /><path d="M734.634667 943.616a2.645333 2.645333 0 0 1-1.706667-0.597333L718.848 930.133333a2.389333 2.389333 0 0 1 3.328-3.498666l14.08 13.226666a2.389333 2.389333 0 0 1 0 3.413334 2.304 2.304 0 0 1-1.621333 0.341333zM645.888 930.133333a2.304 2.304 0 0 1-1.621333-0.682666l-14.08-13.226667a2.389333 2.389333 0 0 1 3.242666-3.584l14.08 13.312a2.389333 2.389333 0 0 1 0 3.413333 2.474667 2.474667 0 0 1-1.621333 0.768z" fill="#3ECDFF" /><path d="M631.893333 943.616a2.304 2.304 0 0 1-1.706666-0.768 2.389333 2.389333 0 0 1 0-3.413333l14.08-13.226667a2.389333 2.389333 0 1 1 3.328 3.498667l-14.08 13.312a2.645333 2.645333 0 0 1-1.621334 0.597333zM646.912 966.741333a2.389333 2.389333 0 0 1-1.706667-0.682666 2.304 2.304 0 0 1 0-3.413334l72.704-72.789333a2.389333 2.389333 0 0 1 3.413334 3.413333L648.533333 966.058667a2.730667 2.730667 0 0 1-1.621333 0.682666z" fill="#3ECDFF" /><path d="M709.717333 903.936a2.389333 2.389333 0 0 1-2.389333-2.474667l0.597333-19.370666a2.218667 2.218667 0 0 1 2.474667-2.304 2.389333 2.389333 0 0 1 2.389333 2.474666l-0.597333 19.370667a2.389333 2.389333 0 0 1-2.474667 2.304z" fill="#3ECDFF" /><path d="M709.632 904.021333a2.474667 2.474667 0 0 1-2.474667-2.304 2.56 2.56 0 0 1 2.389334-2.56l19.285333-0.512a2.56 2.56 0 0 1 2.56 2.304 2.389333 2.389333 0 0 1-2.389333 2.474667l-19.285334 0.597333zM637.525333 957.354667a2.474667 2.474667 0 0 1-2.474666-2.304 2.389333 2.389333 0 0 1 2.389333-2.474667l19.285333-0.597333a2.56 2.56 0 0 1 2.56 2.304 2.56 2.56 0 0 1-2.389333 2.56l-19.285333 0.512z" fill="#3ECDFF" /><path d="M656.298667 976.042667a2.389333 2.389333 0 0 1-2.389334-2.474667l0.597334-19.370667a2.133333 2.133333 0 0 1 2.474666-2.304 2.389333 2.389333 0 0 1 2.389334 2.474667l-0.597334 19.370667a2.474667 2.474667 0 0 1-2.474666 2.304zM361.386667 973.994667a2.389333 2.389333 0 0 1-2.389334-2.474667v-102.4a2.389333 2.389333 0 1 1 4.778667 0v102.4a2.389333 2.389333 0 0 1-2.389333 2.474667z" fill="#3ECDFF" /><path d="M374.613333 973.994667a2.304 2.304 0 0 1-1.706666-0.768l-13.312-14.08a2.474667 2.474667 0 0 1 0-3.413334 2.474667 2.474667 0 0 1 3.498666 0l13.226667 14.08a2.389333 2.389333 0 0 1 0 3.413334 2.730667 2.730667 0 0 1-1.706667 0.768z" fill="#3ECDFF" /><path d="M348.074667 973.824a2.218667 2.218667 0 0 1-1.621334-0.597333 2.389333 2.389333 0 0 1 0-3.413334l13.141334-14.08a2.389333 2.389333 0 1 1 3.584 3.242667L349.866667 972.8a2.730667 2.730667 0 0 1-1.792 1.024zM361.386667 885.162667a2.730667 2.730667 0 0 1-1.706667-0.682667 2.474667 2.474667 0 0 1 0-3.413333l13.312-14.08a2.389333 2.389333 0 0 1 3.498667 3.328l-13.226667 14.08a2.56 2.56 0 0 1-1.877333 0.768z" fill="#3ECDFF" /><path d="M361.386667 885.248a2.474667 2.474667 0 0 1-1.792-0.768L346.368 870.4a2.389333 2.389333 0 1 1 3.498667-3.328l13.312 14.08a2.389333 2.389333 0 0 1 0 3.413333 2.048 2.048 0 0 1-1.792 0.682667zM397.738667 958.890667a2.730667 2.730667 0 0 1-1.706667-0.682667l-72.704-72.789333a2.304 2.304 0 0 1 0-3.413334 2.389333 2.389333 0 0 1 3.413333 0l72.704 72.789334a2.389333 2.389333 0 0 1 0 3.413333 2.56 2.56 0 0 1-1.706666 0.682667z" fill="#3ECDFF" /><path d="M407.125333 949.504l-19.285333-0.597333a2.389333 2.389333 0 0 1-2.389333-2.474667 2.474667 2.474667 0 0 1 2.474666-2.304l19.370667 0.597333a2.304 2.304 0 0 1 2.304 2.474667 2.389333 2.389333 0 0 1-2.474667 2.304z" fill="#3ECDFF" /><path d="M388.266667 968.192a2.389333 2.389333 0 0 1-2.389334-2.304l-0.597333-19.370667a2.389333 2.389333 0 0 1 2.389333-2.474666 2.389333 2.389333 0 0 1 2.389334 2.304l0.597333 19.370666a2.389333 2.389333 0 0 1-2.389333 2.474667zM334.933333 896a2.389333 2.389333 0 0 1-2.389333-2.304l-0.597333-19.370667a2.389333 2.389333 0 0 1 2.389333-2.474666 2.304 2.304 0 0 1 2.474667 2.304l0.597333 19.370666a2.389333 2.389333 0 0 1-2.389333 2.474667z" fill="#3ECDFF" /><path d="M335.018667 896H315.733333a2.389333 2.389333 0 1 1 0-4.778667l19.370667 0.512a2.389333 2.389333 0 0 1 2.304 2.56 2.389333 2.389333 0 0 1-2.389333 1.706667zM412.842667 922.538667H309.930667a2.474667 2.474667 0 0 1 0-4.864h102.912a2.474667 2.474667 0 1 1 0 4.864z" fill="#3ECDFF" /><path d="M398.762667 922.538667a2.304 2.304 0 0 1-1.706667-0.768 2.389333 2.389333 0 0 1 0-3.413334l14.08-13.226666a2.389333 2.389333 0 0 1 3.413333 0 2.389333 2.389333 0 0 1 0 3.413333L400.469333 921.6a2.730667 2.730667 0 0 1-1.706666 0.938667z" fill="#3ECDFF" /><path d="M412.757333 935.765333a2.218667 2.218667 0 0 1-1.621333-0.597333L397.056 921.6a2.389333 2.389333 0 1 1 3.242667-3.498667l14.08 13.226667a2.56 2.56 0 0 1 0 3.498667 2.901333 2.901333 0 0 1-1.621334 0.938666zM324.266667 922.538667a2.304 2.304 0 0 1-1.621334-0.682667l-14.08-13.226667a2.389333 2.389333 0 0 1 0-3.413333 2.304 2.304 0 0 1 3.413334 0l14.08 13.226667a2.389333 2.389333 0 0 1 0 3.413333 2.474667 2.474667 0 0 1-1.792 0.682667z" fill="#3ECDFF" /><path d="M310.101333 935.765333a2.730667 2.730667 0 0 1-1.792-0.682666 2.56 2.56 0 0 1 0-3.498667l14.08-13.226667a2.389333 2.389333 0 0 1 3.413334 0 2.304 2.304 0 0 1 0 3.413334l-14.08 13.312a2.218667 2.218667 0 0 1-1.621334 0.682666zM325.034667 958.890667a2.218667 2.218667 0 0 1-1.706667-0.682667 2.389333 2.389333 0 0 1 0-3.413333l72.789333-72.789334a2.389333 2.389333 0 1 1 3.413334 3.413334l-72.789334 72.789333a2.218667 2.218667 0 0 1-1.706666 0.682667z" fill="#3ECDFF" /><path d="M387.84 896a2.304 2.304 0 0 1-2.304-2.474667l0.512-19.370666a2.474667 2.474667 0 0 1 2.474667-2.304 2.304 2.304 0 0 1 2.304 2.474666l-0.597334 19.370667a2.389333 2.389333 0 0 1-2.389333 2.304z" fill="#3ECDFF" /><path d="M387.754667 896a2.389333 2.389333 0 0 1-2.389334-2.304 2.304 2.304 0 0 1 2.304-2.474667l19.370667-0.597333a2.474667 2.474667 0 0 1 2.474667 2.304 2.304 2.304 0 0 1-2.304 2.474667l-19.370667 0.597333zM315.733333 949.504a2.389333 2.389333 0 0 1-2.389333-2.304 2.304 2.304 0 0 1 2.304-2.474667l19.370667-0.597333a2.56 2.56 0 0 1 2.474666 2.304 2.56 2.56 0 0 1-2.304 2.56l-19.370666 0.512z" fill="#3ECDFF" /><path d="M334.506667 968.192a2.304 2.304 0 0 1-2.304-2.474667l0.512-19.285333a2.645333 2.645333 0 0 1 2.56-2.389333 2.474667 2.474667 0 0 1 2.304 2.474666l-0.597334 19.370667a2.389333 2.389333 0 0 1-2.474666 2.304zM209.834667 889.941333a4.266667 4.266667 0 0 1-4.181334-4.266666V750.933333a4.266667 4.266667 0 0 1 8.533334 0v134.997334a4.266667 4.266667 0 0 1-4.352 4.010666z" fill="#3ECDFF" /><path d="M227.242667 889.941333a4.437333 4.437333 0 0 1-3.072-1.365333l-17.066667-18.432a4.266667 4.266667 0 1 1 6.144-5.802667l17.066667 18.432a4.181333 4.181333 0 0 1 0 5.973334 4.352 4.352 0 0 1-3.072 1.194666z" fill="#3ECDFF" /><path d="M192.426667 889.770667a4.352 4.352 0 0 1-2.901334-1.194667 4.181333 4.181333 0 0 1 0-5.973333l17.066667-18.432a4.266667 4.266667 0 0 1 6.741333 6.229333l-17.066666 18.432a3.925333 3.925333 0 0 1-3.84 0.938667zM209.834667 773.376a4.266667 4.266667 0 0 1-2.901334-1.109333 4.181333 4.181333 0 0 1 0-5.973334l17.066667-18.517333a4.266667 4.266667 0 0 1 6.144 5.802667l-17.066667 18.517333a4.181333 4.181333 0 0 1-3.242666 1.28z" fill="#3ECDFF" /><path d="M209.834667 773.546667a4.096 4.096 0 0 1-3.072-1.365334l-17.066667-18.432a4.266667 4.266667 0 1 1 6.144-5.802666l17.066667 18.432a4.266667 4.266667 0 0 1 0 6.058666 4.096 4.096 0 0 1-3.072 1.109334zM257.536 870.4a4.266667 4.266667 0 0 1-2.986667-1.28L159.146667 773.461333a4.096 4.096 0 0 1 0-5.973333 4.266667 4.266667 0 0 1 5.973333 0l95.402667 95.402667a4.096 4.096 0 0 1 0 5.973333 4.010667 4.010667 0 0 1-2.986667 1.536z" fill="#3ECDFF" /><path d="M269.909333 857.856l-25.6-0.768a4.266667 4.266667 0 0 1 0-8.533333l25.6 0.768a4.181333 4.181333 0 0 1 4.096 4.352 4.266667 4.266667 0 0 1-4.096 4.181333z" fill="#3ECDFF" /><path d="M245.162667 882.346667a4.266667 4.266667 0 0 1-4.266667-4.096l-0.682667-25.6a4.096 4.096 0 0 1 4.096-4.352 4.181333 4.181333 0 0 1 4.352 4.096l0.768 25.6a4.352 4.352 0 0 1-4.181333 4.352zM175.189333 787.797333a4.266667 4.266667 0 0 1-4.266666-4.096l-0.768-25.6a4.352 4.352 0 0 1 4.181333-4.352 4.608 4.608 0 0 1 4.352 4.096l0.768 25.6a4.352 4.352 0 0 1-4.181333 4.352z" fill="#3ECDFF" /><path d="M175.274667 787.882667l-25.6-0.768a4.266667 4.266667 0 0 1 0-8.533334l25.6 0.768a4.181333 4.181333 0 0 1 4.096 4.352 4.266667 4.266667 0 0 1-4.096 4.181334zM277.418667 822.442667H142.421333a4.266667 4.266667 0 1 1 0-8.533334h134.997334a4.266667 4.266667 0 0 1 0 8.533334z" fill="#3ECDFF" /><path d="M258.901333 822.442667a4.096 4.096 0 0 1-3.072-1.365334 4.181333 4.181333 0 0 1 0-5.973333l18.517334-17.066667a4.266667 4.266667 0 0 1 5.802666 6.229334l-18.517333 17.066666a4.096 4.096 0 0 1-2.730667 1.109334z" fill="#3ECDFF" /><path d="M277.248 839.850667a4.096 4.096 0 0 1-2.901333-1.109334l-18.432-17.066666a4.266667 4.266667 0 1 1 5.717333-6.229334l18.517333 17.066667a4.181333 4.181333 0 0 1 0 5.973333 4.096 4.096 0 0 1-2.901333 1.365334zM160.853333 822.442667a4.266667 4.266667 0 0 1-2.901333-1.109334l-18.432-17.066666a4.181333 4.181333 0 0 1 0-5.973334 4.266667 4.266667 0 0 1 5.973333 0l18.432 17.066667a4.181333 4.181333 0 0 1 0 5.973333 3.84 3.84 0 0 1-3.072 1.109334z" fill="#3ECDFF" /><path d="M142.592 839.850667a4.181333 4.181333 0 0 1-3.157333-1.365334 4.266667 4.266667 0 0 1 0-5.973333l18.432-17.066667a4.266667 4.266667 0 0 1 5.802666 6.229334l-18.432 17.066666a4.266667 4.266667 0 0 1-2.645333 1.109334zM162.133333 870.4a4.608 4.608 0 0 1-2.986666-1.194667 4.266667 4.266667 0 0 1 0-5.973333l95.488-95.744a4.181333 4.181333 0 1 1 5.973333 5.973333l-95.402667 95.488a4.608 4.608 0 0 1-3.072 1.450667z" fill="#3ECDFF" /><path d="M244.565333 787.797333a4.266667 4.266667 0 0 1-4.096-4.352l0.768-25.6a4.352 4.352 0 0 1 4.352-4.181333 4.266667 4.266667 0 0 1 4.096 4.352l-0.768 25.6a4.096 4.096 0 0 1-4.352 4.181333z" fill="#3ECDFF" /><path d="M244.48 787.882667a4.266667 4.266667 0 0 1 0-8.533334l25.6-0.768a4.608 4.608 0 0 1 4.352 4.096 4.266667 4.266667 0 0 1-4.181333 4.352l-25.6 0.768zM149.845333 857.856a4.266667 4.266667 0 0 1 0-8.533333l25.6-0.768a4.181333 4.181333 0 0 1 4.352 4.096 4.266667 4.266667 0 0 1-4.096 4.352l-25.6 0.768z" fill="#3ECDFF" /><path d="M174.592 882.346667a4.181333 4.181333 0 0 1-4.096-4.352l0.768-25.6a4.266667 4.266667 0 0 1 4.352-4.096 4.181333 4.181333 0 0 1 3.584 5.034666l-0.768 25.6a4.096 4.096 0 0 1-3.84 3.413334zM531.029333 889.941333a4.266667 4.266667 0 0 1-4.181333-4.266666V750.933333a4.266667 4.266667 0 0 1 8.533333 0v134.997334a4.266667 4.266667 0 0 1-4.352 4.010666z" fill="#3ECDFF" /><path d="M548.437333 889.941333a4.437333 4.437333 0 0 1-3.072-1.365333l-17.066666-18.432a4.266667 4.266667 0 1 1 6.144-5.802667l17.066666 18.432a4.266667 4.266667 0 0 1-3.072 7.168z" fill="#3ECDFF" /><path d="M513.621333 889.770667a4.352 4.352 0 0 1-2.901333-1.194667 4.181333 4.181333 0 0 1 0-5.973333l17.066667-18.432a4.266667 4.266667 0 1 1 6.144 5.802666l-17.066667 18.432a3.925333 3.925333 0 0 1-3.242667 1.365334zM531.029333 773.376a4.266667 4.266667 0 0 1-2.901333-1.109333 4.181333 4.181333 0 0 1 0-5.973334l17.066667-18.517333a4.266667 4.266667 0 0 1 6.144 5.802667l-17.066667 18.517333a4.352 4.352 0 0 1-3.242667 1.28z" fill="#3ECDFF" /><path d="M531.029333 773.546667a4.096 4.096 0 0 1-3.072-1.365334l-17.066666-18.432a4.266667 4.266667 0 0 1 6.144-5.802666l17.066666 18.432a4.266667 4.266667 0 0 1 0 6.058666 4.096 4.096 0 0 1-3.072 1.109334zM578.730667 870.4a4.266667 4.266667 0 0 1-2.986667-1.28L480.341333 773.461333a4.096 4.096 0 0 1 0-5.973333 4.266667 4.266667 0 0 1 5.973334 0l95.402666 95.402667a4.096 4.096 0 0 1 0 5.973333 4.010667 4.010667 0 0 1-2.986666 1.536z" fill="#3ECDFF" /><path d="M591.104 857.856l-25.6-0.768a4.181333 4.181333 0 0 1-4.096-4.352 4.010667 4.010667 0 0 1 4.352-4.096l25.6 0.768a4.181333 4.181333 0 0 1 4.096 4.352 4.266667 4.266667 0 0 1-4.352 4.096z" fill="#3ECDFF" /><path d="M566.357333 882.346667a4.266667 4.266667 0 0 1-4.266666-4.096l-0.768-25.6a4.266667 4.266667 0 0 1 4.181333-4.352 4.096 4.096 0 0 1 4.352 4.096l0.768 25.6a4.352 4.352 0 0 1-4.181333 4.352zM496.384 787.797333a4.266667 4.266667 0 0 1-4.266667-4.096l-0.768-25.6a4.352 4.352 0 0 1 4.181334-4.352 4.437333 4.437333 0 0 1 4.352 4.096l0.768 25.6a4.352 4.352 0 0 1-4.181334 4.352z" fill="#3ECDFF" /><path d="M496.469333 787.882667l-25.6-0.768a4.266667 4.266667 0 0 1-4.096-4.352 4.352 4.352 0 0 1 4.352-4.096l25.6 0.768a4.181333 4.181333 0 0 1 4.096 4.352 4.266667 4.266667 0 0 1-4.352 4.096zM598.613333 822.442667H463.616a4.266667 4.266667 0 1 1 0-8.533334h134.997333a4.266667 4.266667 0 0 1 0 8.533334z" fill="#3ECDFF" /><path d="M580.266667 822.442667a4.096 4.096 0 0 1-3.072-1.365334 4.181333 4.181333 0 0 1 0-5.973333l18.517333-17.066667a4.266667 4.266667 0 0 1 5.802667 6.229334l-18.517334 17.066666a4.096 4.096 0 0 1-2.730666 1.109334z" fill="#3ECDFF" /><path d="M598.442667 839.850667a4.096 4.096 0 0 1-2.901334-1.109334l-18.517333-17.066666a4.352 4.352 0 0 1 0-6.058667 4.266667 4.266667 0 0 1 5.973333 0l18.517334 17.066667a4.181333 4.181333 0 0 1 0 5.973333 4.096 4.096 0 0 1-3.072 1.194667zM482.048 822.442667a4.266667 4.266667 0 0 1-2.901333-1.109334l-18.432-17.066666a4.181333 4.181333 0 0 1 0-5.973334 4.266667 4.266667 0 0 1 5.973333 0l18.432 17.066667a4.181333 4.181333 0 0 1 0 5.973333 3.925333 3.925333 0 0 1-3.072 1.109334z" fill="#3ECDFF" /><path d="M463.786667 839.850667a4.181333 4.181333 0 0 1-3.157334-1.365334 4.266667 4.266667 0 0 1 0-5.973333l18.432-17.066667a4.266667 4.266667 0 0 1 5.802667 6.229334l-18.432 17.066666a4.266667 4.266667 0 0 1-2.645333 1.109334zM483.413333 870.4a4.608 4.608 0 0 1-3.072-1.194667 4.266667 4.266667 0 0 1 0-5.973333l95.488-95.744a4.181333 4.181333 0 1 1 5.973334 5.973333L486.4 868.949333a4.608 4.608 0 0 1-2.986667 1.450667z" fill="#3ECDFF" /><path d="M565.76 787.797333a4.266667 4.266667 0 0 1-4.096-4.352l0.768-25.6a4.437333 4.437333 0 0 1 4.352-4.181333 4.181333 4.181333 0 0 1 4.096 4.352l-0.768 25.6a4.096 4.096 0 0 1-4.352 4.181333z" fill="#3ECDFF" /><path d="M565.674667 787.882667a4.266667 4.266667 0 0 1 0-8.533334l25.6-0.768a4.437333 4.437333 0 0 1 4.437333 4.096 4.266667 4.266667 0 0 1-4.181333 4.352l-25.6 0.768zM471.04 857.856a4.266667 4.266667 0 0 1 0-8.533333l25.6-0.768a4.181333 4.181333 0 0 1 4.352 4.096 4.266667 4.266667 0 0 1-4.096 4.352l-25.6 0.768z" fill="#3ECDFF" /><path d="M495.786667 882.346667a4.266667 4.266667 0 0 1-4.096-4.352l0.768-25.6a4.352 4.352 0 0 1 4.352-4.096 4.181333 4.181333 0 0 1 4.096 4.352l-0.682667 25.6a4.266667 4.266667 0 0 1-4.437333 4.096zM850.432 889.941333a4.181333 4.181333 0 0 1-4.181333-4.266666V750.933333a4.266667 4.266667 0 1 1 8.533333 0v134.912a4.266667 4.266667 0 0 1-4.352 4.096z" fill="#3ECDFF" /><path d="M867.84 889.941333a4.096 4.096 0 0 1-3.072-1.365333l-17.066667-18.432a4.266667 4.266667 0 0 1 6.144-5.802667l17.066667 18.432a4.266667 4.266667 0 0 1-3.072 7.168z" fill="#3ECDFF" /><path d="M833.024 889.770667a4.266667 4.266667 0 0 1-2.901333-1.109334 4.181333 4.181333 0 0 1 0-5.973333l17.066666-18.517333a4.266667 4.266667 0 0 1 6.144 5.802666l-17.066666 18.517334a4.181333 4.181333 0 0 1-3.242667 1.28zM850.432 773.461333a4.352 4.352 0 0 1-2.901333-1.194666 4.181333 4.181333 0 0 1 0-5.973334l17.066666-18.432a4.266667 4.266667 0 1 1 6.144 5.802667l-17.066666 18.432a4.266667 4.266667 0 0 1-3.242667 1.365333z" fill="#3ECDFF" /><path d="M850.432 773.546667a4.352 4.352 0 0 1-3.072-1.28l-17.066667-18.517334a4.266667 4.266667 0 0 1 6.144-5.802666l17.066667 18.517333a4.181333 4.181333 0 0 1 0 5.973333 4.096 4.096 0 0 1-3.072 1.109334zM898.133333 870.4a4.608 4.608 0 0 1-2.986666-1.194667L799.744 773.461333a4.181333 4.181333 0 1 1 5.973333-5.973333l95.402667 95.488a4.096 4.096 0 0 1 0 5.973333 4.266667 4.266667 0 0 1-2.986667 1.450667z" fill="#3ECDFF" /><path d="M910.506667 857.856l-25.6-0.768a4.181333 4.181333 0 0 1-4.096-4.352 4.096 4.096 0 0 1 4.352-4.096l25.6 0.768a4.266667 4.266667 0 0 1 0 8.533333z" fill="#3ECDFF" /><path d="M885.76 882.346667a4.266667 4.266667 0 0 1-4.266667-4.096l-0.682666-25.6a4.181333 4.181333 0 0 1 4.096-4.352 4.352 4.352 0 0 1 4.352 4.096l0.768 25.6a4.266667 4.266667 0 0 1-4.181334 4.352zM815.786667 787.797333a4.266667 4.266667 0 0 1-4.266667-4.096l-0.682667-25.6a4.181333 4.181333 0 0 1 4.096-4.352 4.437333 4.437333 0 0 1 4.352 4.181334l0.768 25.6a4.352 4.352 0 0 1-4.181333 4.352z" fill="#3ECDFF" /><path d="M815.872 787.882667l-25.6-0.768a4.266667 4.266667 0 0 1-4.096-4.352 4.437333 4.437333 0 0 1 4.352-4.096l25.6 0.768a4.266667 4.266667 0 0 1 0 8.533333zM918.016 822.442667H783.018667a4.266667 4.266667 0 1 1 0-8.533334h134.997333a4.266667 4.266667 0 0 1 0 8.533334z" fill="#3ECDFF" /><path d="M899.498667 822.442667a4.352 4.352 0 0 1-3.072-1.28 4.181333 4.181333 0 0 1 0-5.973334l18.517333-17.066666a4.181333 4.181333 0 0 1 5.973333 0 4.266667 4.266667 0 0 1 0 5.973333l-18.517333 17.066667a4.096 4.096 0 0 1-2.901333 1.28z" fill="#3ECDFF" /><path d="M917.845333 839.850667a4.266667 4.266667 0 0 1-2.901333-1.109334l-18.432-17.066666a4.266667 4.266667 0 1 1 5.802667-6.144l18.432 17.066666a4.266667 4.266667 0 0 1-2.901334 7.338667zM801.450667 822.442667a4.266667 4.266667 0 0 1-2.901334-1.109334l-18.432-17.066666a4.266667 4.266667 0 0 1 5.802667-6.144l18.432 17.066666a4.181333 4.181333 0 0 1 0 5.973334 4.096 4.096 0 0 1-2.901333 1.28z" fill="#3ECDFF" /><path d="M783.189333 839.850667a4.181333 4.181333 0 0 1-2.901333-7.338667l18.432-17.066667a4.266667 4.266667 0 0 1 5.802667 6.144l-18.432 17.066667a4.266667 4.266667 0 0 1-2.901334 1.194667zM802.816 870.4a3.925333 3.925333 0 0 1-2.986667-1.194667 4.096 4.096 0 0 1 0-5.973333l95.402667-95.488a4.181333 4.181333 0 0 1 5.973333 5.973333l-95.402666 95.232a4.181333 4.181333 0 0 1-2.986667 1.450667z" fill="#3ECDFF" /><path d="M885.162667 787.797333a4.352 4.352 0 0 1-4.096-4.352l0.768-25.6a4.352 4.352 0 0 1 4.352-4.096 4.181333 4.181333 0 0 1 4.096 4.352l-0.682667 25.6a4.266667 4.266667 0 0 1-4.437333 4.096z" fill="#3ECDFF" /><path d="M885.077333 787.882667a4.266667 4.266667 0 0 1 0-8.533334l25.6-0.768a4.437333 4.437333 0 0 1 4.352 4.096 4.266667 4.266667 0 0 1-4.181333 4.352l-25.6 0.768zM790.442667 857.856a4.266667 4.266667 0 0 1 0-8.533333l25.6-0.768a4.096 4.096 0 0 1 4.352 4.096 4.181333 4.181333 0 0 1-4.096 4.352l-25.6 0.768z" fill="#3ECDFF" /><path d="M815.189333 882.432a4.352 4.352 0 0 1-4.181333-4.437333l0.768-25.6a4.096 4.096 0 0 1 4.352-4.096 4.181333 4.181333 0 0 1 4.096 4.352l-0.682667 25.6a4.352 4.352 0 0 1-4.352 4.181333z" fill="#3ECDFF" /></svg>