<?xml version="1.0" standalone="no"?><!DOCTYPE svg PUBLIC "-//W3C//DTD SVG 1.1//EN" "http://www.w3.org/Graphics/SVG/1.1/DTD/svg11.dtd"><svg class="icon" width="128px" height="128.00px" viewBox="0 0 1024 1024" version="1.1" xmlns="http://www.w3.org/2000/svg"><path d="M794.794667 238.336a224.853333 224.853333 0 0 0-43.861334 4.352 288 288 0 0 0-559.872 41.728h-10.581333v1.706667a201.045333 201.045333 0 0 0 0 398.848v1.706666h614.4a224.170667 224.170667 0 0 0 0-448.341333z" fill="#FFFFFF" /><path d="M564.48 858.282667a52.48 52.48 0 0 1-104.96 0C459.52 829.354667 512 718.506667 512 718.506667s52.48 110.848 52.48 139.776zM865.877333 858.282667a52.48 52.48 0 0 1-104.96 0c0-28.928 52.48-139.776 52.48-139.776s52.48 110.848 52.48 139.776zM263.082667 858.282667a52.48 52.48 0 1 1-104.96 0c0-28.928 52.48-139.776 52.48-139.776s52.48 110.848 52.48 139.776zM413.781333 931.669333a52.48 52.48 0 1 1-104.96 0c0-29.013333 52.48-139.776 52.48-139.776s52.48 110.762667 52.48 139.776zM715.178667 931.669333a52.48 52.48 0 0 1-104.96 0c0-29.013333 52.48-139.776 52.48-139.776s52.48 110.762667 52.48 139.776z" fill="#3ECDFF" /></svg>