<?xml version="1.0" standalone="no"?><!DOCTYPE svg PUBLIC "-//W3C//DTD SVG 1.1//EN" "http://www.w3.org/Graphics/SVG/1.1/DTD/svg11.dtd"><svg class="icon" width="128px" height="128.00px" viewBox="0 0 1024 1024" version="1.1" xmlns="http://www.w3.org/2000/svg"><path d="M851.370667 884.48a37.376 37.376 0 1 1-74.666667 0C776.533333 863.829333 813.994667 785.066667 813.994667 785.066667s37.376 78.762667 37.376 99.413333z" fill="#3ECDFF" /><path d="M796.416 244.736a221.013333 221.013333 0 0 0-44.117333 4.352 289.621333 289.621333 0 0 0-563.2 41.898667h-10.581334v1.706666a202.325333 202.325333 0 0 0 0 401.066667v1.706667h617.898667a225.450667 225.450667 0 1 0 0-450.901334z" fill="#FFFFFF" /><path d="M245.333333 875.349333a26.453333 26.453333 0 1 1-52.821333 0c0-14.506667 26.453333-70.229333 26.453333-70.229333s26.368 55.722667 26.368 70.229333zM435.2 987.989333a9.301333 9.301333 0 0 1-3.925333-0.853333 9.130667 9.130667 0 0 1-4.266667-12.117333l120.746667-250.965334a9.130667 9.130667 0 0 1 12.117333-4.266666 8.96 8.96 0 0 1 4.181333 12.117333L443.733333 982.869333a9.045333 9.045333 0 0 1-8.533333 5.12zM325.034667 911.445333a8.533333 8.533333 0 0 1-3.754667-0.853333 8.533333 8.533333 0 0 1-4.096-11.690667l47.36-98.56a8.533333 8.533333 0 0 1 11.690667-4.010666 8.533333 8.533333 0 0 1 4.010666 11.605333L332.8 906.496a8.533333 8.533333 0 0 1-7.765333 4.949333zM614.4 911.445333a8.533333 8.533333 0 0 1-3.84-0.853333 8.533333 8.533333 0 0 1-4.010667-11.690667l47.36-98.56a8.533333 8.533333 0 0 1 15.701334 7.594667l-47.36 98.56a8.533333 8.533333 0 0 1-7.850667 4.949333z" fill="#3ECDFF" /></svg>