<?xml version="1.0" standalone="no"?><!DOCTYPE svg PUBLIC "-//W3C//DTD SVG 1.1//EN" "http://www.w3.org/Graphics/SVG/1.1/DTD/svg11.dtd"><svg class="icon" width="128px" height="128.00px" viewBox="0 0 1024 1024" version="1.1" xmlns="http://www.w3.org/2000/svg"><path d="M237.653333 826.112l-22.016-25.6a13.994667 13.994667 0 0 0-13.312-4.437333l-34.133333 6.997333a13.738667 13.738667 0 0 0-10.325333 8.533333L146.346667 844.8a13.994667 13.994667 0 0 0 2.56 13.824l22.101333 25.6a13.738667 13.738667 0 0 0 13.312 4.522667l34.133333-6.997334a14.08 14.08 0 0 0 10.325334-8.533333l11.605333-32.768a13.824 13.824 0 0 0-2.730667-14.336zM399.104 895.402667l-22.101333-25.6a13.738667 13.738667 0 0 0-13.312-4.522667l-34.133334 6.997333a14.08 14.08 0 0 0-10.325333 9.045334l-11.605333 32.682666a13.824 13.824 0 0 0 2.645333 13.824l22.016 25.6a14.08 14.08 0 0 0 13.312 4.522667l34.133333-7.082667a13.738667 13.738667 0 0 0 10.325334-8.533333l11.605333-32.768a14.08 14.08 0 0 0-2.56-14.165333zM556.373333 826.112l-22.016-25.6a14.08 14.08 0 0 0-13.397333-4.437333l-34.133333 6.997333a13.738667 13.738667 0 0 0-10.325334 8.533333L464.981333 844.8a14.08 14.08 0 0 0 2.645334 13.824l22.016 25.6a13.994667 13.994667 0 0 0 13.397333 4.522667l34.133333-6.997334a14.08 14.08 0 0 0 10.325334-8.533333l11.690666-32.768a13.994667 13.994667 0 0 0-2.816-14.336zM716.8 903.253333l-22.101333-25.6a13.909333 13.909333 0 0 0-13.312-4.437333l-34.133334 6.997333a13.909333 13.909333 0 0 0-10.325333 8.533334l-11.605333 32.768a13.824 13.824 0 0 0 2.645333 13.824l22.016 25.6a13.994667 13.994667 0 0 0 13.312 4.437333l34.133333-6.997333a13.738667 13.738667 0 0 0 10.325334-8.533334l11.605333-32.768a13.994667 13.994667 0 0 0-2.56-13.824zM875.264 826.112l-22.101333-25.6a13.994667 13.994667 0 0 0-13.312-4.437333l-34.133334 6.997333a13.738667 13.738667 0 0 0-10.325333 8.533333L783.872 844.8a13.824 13.824 0 0 0 2.645333 13.824l22.016 25.6a13.824 13.824 0 0 0 13.312 4.522667l34.133334-6.997334a14.08 14.08 0 0 0 10.325333-8.533333l11.605333-32.768a13.994667 13.994667 0 0 0-2.645333-14.336z" fill="#3ECDFF" /><path d="M794.538667 256a224.682667 224.682667 0 0 0-43.776 4.352 287.744 287.744 0 0 0-559.36 41.728h-10.666667v1.706667a200.874667 200.874667 0 0 0 0 398.506666v1.706667h613.802667a224 224 0 1 0 0-448z" fill="#FFFFFF" /></svg>