<?xml version="1.0" standalone="no"?><!DOCTYPE svg PUBLIC "-//W3C//DTD SVG 1.1//EN" "http://www.w3.org/Graphics/SVG/1.1/DTD/svg11.dtd"><svg class="icon" width="128px" height="128.00px" viewBox="0 0 1024 1024" version="1.1" xmlns="http://www.w3.org/2000/svg"><path fill="#1296db" d="M115.114667 642.474667a30.037333 30.037333 0 1 1-54.613334-25.6c6.912-15.104 60.842667-60.245333 60.842667-60.245334s0.768 70.741333-6.229333 85.845334zM794.965333 685.056a30.122667 30.122667 0 0 1-54.698666-25.6c6.912-15.104 60.842667-60.245333 60.842666-60.245333s1.024 70.741333-6.144 85.845333zM158.208 856.149333a26.538667 26.538667 0 0 1-23.893333-37.973333l307.2-639.488a26.453333 26.453333 0 0 1 47.701333 22.954667l-307.2 639.488a26.624 26.624 0 0 1-23.808 15.018666zM513.962667 899.072a26.026667 26.026667 0 0 1-11.434667-2.645333 26.368 26.368 0 0 1-12.373333-35.328L797.610667 221.866667a26.538667 26.538667 0 0 1 47.786666 22.954666L537.6 884.053333a26.453333 26.453333 0 0 1-23.637333 15.018667zM404.394667 769.706667a26.026667 26.026667 0 0 1-11.434667-2.645334 26.368 26.368 0 0 1-12.373333-35.328l183.296-381.184a26.453333 26.453333 0 1 1 47.701333 22.954667L428.288 754.688a26.453333 26.453333 0 0 1-23.893333 15.018667zM143.530667 537.6a22.954667 22.954667 0 0 1-9.642667-2.133333 22.272 22.272 0 0 1-10.325333-29.696l120.746666-251.221334a22.186667 22.186667 0 1 1 40.021334 19.2L163.584 524.885333A22.272 22.272 0 0 1 143.530667 537.6zM823.296 571.733333a22.272 22.272 0 0 1-19.968-31.829333l120.746667-251.136a22.186667 22.186667 0 1 1 40.192 19.114667L843.349333 558.933333a22.357333 22.357333 0 0 1-20.053333 12.8z"  /></svg>