<?xml version="1.0" standalone="no"?><!DOCTYPE svg PUBLIC "-//W3C//DTD SVG 1.1//EN" "http://www.w3.org/Graphics/SVG/1.1/DTD/svg11.dtd"><svg class="icon" width="128px" height="128.00px" viewBox="0 0 1024 1024" version="1.1" xmlns="http://www.w3.org/2000/svg"><path d="M796.245333 236.970667a227.498667 227.498667 0 0 0-44.117333 4.352 289.450667 289.450667 0 0 0-562.602667 41.898666H179.2v1.706667a202.069333 202.069333 0 0 0 0 401.066667v1.706666h617.045333a225.28 225.28 0 0 0 0-450.56z" fill="#FFFFFF" /><path d="M406.528 933.802667a52.736 52.736 0 0 1-105.472 0C301.056 904.533333 353.792 793.6 353.792 793.6s52.736 110.933333 52.736 140.202667zM725.845333 933.802667a52.821333 52.821333 0 0 1-105.557333 0C620.288 904.533333 673.109333 793.6 673.109333 793.6s52.736 110.933333 52.736 140.202667z" fill="#3ECDFF" /><path d="M177.749333 732.501333m16.384 0l0 0q16.384 0 16.384 16.384l0 147.456q0 16.384-16.384 16.384l0 0q-16.384 0-16.384-16.384l0-147.456q0-16.384 16.384-16.384Z" fill="#3ECDFF" /><path d="M497.066667 732.501333m16.384 0l0 0q16.384 0 16.384 16.384l0 147.541334q0 16.384-16.384 16.384l0 0q-16.384 0-16.384-16.384l0-147.541334q0-16.384 16.384-16.384Z" fill="#3ECDFF" /><path d="M816.384 732.501333m16.384 0l0 0q16.384 0 16.384 16.384l0 149.162667q0 16.384-16.384 16.384l0 0q-16.384 0-16.384-16.384l0-149.162667q0-16.384 16.384-16.384Z" fill="#3ECDFF" /></svg>