<?xml version="1.0" standalone="no"?><!DOCTYPE svg PUBLIC "-//W3C//DTD SVG 1.1//EN" "http://www.w3.org/Graphics/SVG/1.1/DTD/svg11.dtd"><svg class="icon" width="128px" height="128.00px" viewBox="0 0 1024 1024" version="1.1" xmlns="http://www.w3.org/2000/svg"><path d="M844.8 832a36.693333 36.693333 0 1 1-73.301333 0c0-20.224 36.608-97.621333 36.608-97.621333S844.8 811.776 844.8 832zM389.290667 913.066667a36.693333 36.693333 0 1 1-73.557334 0c0-20.224 36.693333-97.621333 36.693334-97.621334s36.864 76.970667 36.864 97.621334z" fill="#3ECDFF" /><path d="M791.210667 242.858667a226.304 226.304 0 0 0-43.349334 4.266666 284.330667 284.330667 0 0 0-552.618666 41.216h-10.581334V290.133333a198.570667 198.570667 0 0 0 0 393.813334v1.621333h606.549334a221.354667 221.354667 0 0 0 0-442.624z" fill="#FFFFFF" /><path d="M714.24 925.269333a51.797333 51.797333 0 1 1-103.594667 0c0-28.672 51.797333-138.069333 51.797334-138.069333s51.797333 109.397333 51.797333 138.069333zM250.197333 805.632a25.6 25.6 0 1 1-51.797333 0c0-14.336 25.6-68.949333 25.6-68.949333s26.197333 54.613333 26.197333 68.949333zM457.130667 976.042667a9.301333 9.301333 0 0 1-3.925334-0.853334 9.045333 9.045333 0 0 1-4.181333-12.117333L567.466667 716.8a9.045333 9.045333 0 1 1 16.298666 7.850667l-118.442666 246.272a9.045333 9.045333 0 0 1-8.192 5.12z" fill="#3ECDFF" /></svg>