<?xml version="1.0" standalone="no"?><!DOCTYPE svg PUBLIC "-//W3C//DTD SVG 1.1//EN" "http://www.w3.org/Graphics/SVG/1.1/DTD/svg11.dtd"><svg class="icon" width="128px" height="128.00px" viewBox="0 0 1024 1024" version="1.1" xmlns="http://www.w3.org/2000/svg"><path d="M794.538667 233.216a231.68 231.68 0 0 0-43.861334 4.266667 287.744 287.744 0 0 0-559.274666 41.728h-10.581334v1.706666a200.874667 200.874667 0 0 0 0 398.506667v1.706667h613.717334a224 224 0 0 0 0-447.914667z" fill="#FFFFFF" /><path d="M397.482667 989.098667a8.533333 8.533333 0 0 1-3.754667-0.853334 8.533333 8.533333 0 0 1-4.096-11.605333l119.893333-249.258667a8.533333 8.533333 0 1 1 15.616 7.509334l-119.466666 249.258666a8.533333 8.533333 0 0 1-8.192 4.949334zM213.333333 848.64a2.304 2.304 0 0 1-2.304-2.304v-102.4a2.304 2.304 0 1 1 4.608 0v102.4a2.304 2.304 0 0 1-2.304 2.304z" fill="#3ECDFF" /><path d="M226.816 848.64a2.304 2.304 0 0 1-1.621333-0.682667l-13.226667-14.08a2.218667 2.218667 0 0 1 0-3.242666 2.304 2.304 0 0 1 3.242667 0L228.522667 844.8a2.304 2.304 0 0 1 0 3.242667 2.218667 2.218667 0 0 1-1.706667 0.597333z" fill="#3ECDFF" /><path d="M200.362667 848.554667a2.048 2.048 0 0 1-1.536-0.597334 2.304 2.304 0 0 1 0-3.242666l13.312-14.08a2.218667 2.218667 0 0 1 3.242666 0 2.304 2.304 0 0 1 0 3.242666l-13.226666 14.08a2.730667 2.730667 0 0 1-1.792 0.597334zM213.333333 760.064a2.304 2.304 0 0 1-1.536-0.682667 2.218667 2.218667 0 0 1 0-3.242666L225.194667 742.4a2.304 2.304 0 0 1 3.328 3.157333L215.296 759.466667a2.304 2.304 0 0 1-1.962667 0.597333z" fill="#3ECDFF" /><path d="M213.333333 760.149333a2.133333 2.133333 0 0 1-1.621333-0.768l-13.312-13.994666a2.389333 2.389333 0 0 1 0-3.328 2.304 2.304 0 0 1 3.242667 0l13.226666 13.994666a2.389333 2.389333 0 0 1 0 3.328 2.730667 2.730667 0 0 1-1.536 0.768zM249.941333 833.621333a2.304 2.304 0 0 1-1.621333-0.682666l-72.618667-72.618667a2.304 2.304 0 0 1 3.242667-3.242667l72.618667 72.618667a2.218667 2.218667 0 0 1 0 3.242667 2.304 2.304 0 0 1-1.621334 0.682666z" fill="#3ECDFF" /><path d="M259.242667 824.234667l-19.370667-0.512a2.304 2.304 0 1 1 0-4.608l19.285333 0.512a2.389333 2.389333 0 0 1 2.304 2.389333 2.389333 2.389333 0 0 1-2.218666 2.218667zM240.469333 842.922667a2.389333 2.389333 0 0 1-2.304-2.218667l-0.597333-19.285333a2.389333 2.389333 0 0 1 2.304-2.389334 2.389333 2.389333 0 0 1 2.304 2.218667l0.597333 19.285333a2.304 2.304 0 0 1-2.218666 2.389334zM187.221333 770.986667a2.389333 2.389333 0 0 1-2.304-2.304l-0.512-19.285334a2.304 2.304 0 0 1 2.218667-2.389333 2.474667 2.474667 0 0 1 2.389333 2.304l0.512 19.285333a2.304 2.304 0 0 1-2.218666 2.389334z" fill="#3ECDFF" /><path d="M187.733333 770.986667l-19.285333-0.512a2.389333 2.389333 0 0 1-2.218667-2.389334 2.133333 2.133333 0 0 1 2.389334-2.218666l19.285333 0.512a2.304 2.304 0 0 1 2.218667 2.389333 2.218667 2.218667 0 0 1-2.389334 2.218667zM264.96 797.354667H162.133333a2.304 2.304 0 1 1 0-4.608h102.4a2.304 2.304 0 1 1 0 4.608z" fill="#3ECDFF" /><path d="M250.965333 797.354667a2.304 2.304 0 0 1-1.621333-4.010667l14.08-13.226667a2.218667 2.218667 0 0 1 3.242667 0 2.304 2.304 0 0 1 0 3.242667l-14.08 13.226667a2.304 2.304 0 0 1-1.621334 0.768z" fill="#3ECDFF" /><path d="M264.533333 810.666667a2.218667 2.218667 0 0 1-1.536-0.597334l-14.08-13.312a2.304 2.304 0 0 1 3.157334-3.328l14.08 13.226667a2.389333 2.389333 0 0 1 0 3.328 2.56 2.56 0 0 1-1.621334 0.682667zM176.384 797.354667a2.304 2.304 0 0 1-1.621333-0.682667l-14.08-13.226667a2.389333 2.389333 0 0 1 0-3.242666 2.304 2.304 0 0 1 3.328 0L177.92 793.6a2.218667 2.218667 0 0 1 0 3.242667 2.133333 2.133333 0 0 1-1.536 0.512z" fill="#3ECDFF" /><path d="M162.133333 810.666667a2.304 2.304 0 0 1-1.536-4.010667L174.848 793.6a2.389333 2.389333 0 0 1 3.328 0 2.389333 2.389333 0 0 1 0 3.242667l-14.08 13.312A2.218667 2.218667 0 0 1 162.133333 810.666667zM177.322667 833.621333a2.048 2.048 0 0 1-1.621334-0.682666 2.389333 2.389333 0 0 1 0-3.242667l72.618667-72.618667a2.389333 2.389333 0 0 1 3.242667 0 2.218667 2.218667 0 0 1 0 3.242667L179.2 832.938667a2.048 2.048 0 0 1-1.877333 0.682666z" fill="#3ECDFF" /><path d="M240.042667 770.986667a2.304 2.304 0 0 1-2.218667-2.389334l0.512-19.285333a2.218667 2.218667 0 0 1 2.389333-2.218667 2.304 2.304 0 0 1 2.304 2.304l-0.597333 19.370667a2.389333 2.389333 0 0 1-2.389333 2.218667z" fill="#3ECDFF" /><path d="M239.957333 771.072a2.304 2.304 0 0 1-2.304-2.304 2.133333 2.133333 0 0 1 2.218667-2.304l19.285333-0.597333a2.218667 2.218667 0 0 1 2.389334 2.218666 2.304 2.304 0 0 1-2.218667 2.389334l-19.285333 0.597333zM168.021333 824.32a2.304 2.304 0 0 1-2.304-2.304 2.133333 2.133333 0 0 1 2.218667-2.304l19.285333-0.512a2.474667 2.474667 0 0 1 2.389334 2.218667 2.389333 2.389333 0 0 1-2.218667 2.389333l-19.370667 0.597333z" fill="#3ECDFF" /><path d="M186.794667 842.922667a2.218667 2.218667 0 0 1-2.218667-2.389334l0.597333-19.285333A2.304 2.304 0 0 1 187.733333 819.2a2.389333 2.389333 0 0 1 2.304 2.389333l-0.597333 19.285334a2.304 2.304 0 0 1-2.645333 2.048zM309.248 957.013333a2.304 2.304 0 0 1-2.304-2.304v-102.4a2.304 2.304 0 0 1 4.608 0v102.4a2.304 2.304 0 0 1-2.304 2.304z" fill="#3ECDFF" /><path d="M322.56 957.013333a2.048 2.048 0 0 1-1.706667-0.682666l-13.226666-14.08a2.218667 2.218667 0 0 1 0-3.242667 2.304 2.304 0 0 1 3.242666 0L324.266667 953.173333a2.304 2.304 0 0 1 0 3.242667 2.218667 2.218667 0 0 1-1.706667 0.597333z" fill="#3ECDFF" /><path d="M296.021333 956.928a2.218667 2.218667 0 0 1-1.536-0.597333 2.304 2.304 0 0 1 0-3.328l13.141334-14.336a2.218667 2.218667 0 0 1 3.242666 0 2.304 2.304 0 0 1 0 3.242666l-13.226666 14.08a2.56 2.56 0 0 1-1.621334 0.938667zM309.248 868.437333a2.304 2.304 0 0 1-1.536-0.682666 2.218667 2.218667 0 0 1 0-3.242667l13.226667-14.08a2.304 2.304 0 1 1 3.328 2.901333l-13.226667 14.08a2.133333 2.133333 0 0 1-1.792 1.024z" fill="#3ECDFF" /><path d="M309.248 868.522667a2.133333 2.133333 0 0 1-1.621333-0.768l-13.226667-13.994667a2.304 2.304 0 1 1 3.328-3.157333l13.226667 13.994666a2.304 2.304 0 0 1 0 3.242667 2.304 2.304 0 0 1-1.706667 0.682667zM345.6 941.994667a2.304 2.304 0 0 1-1.621333-0.682667l-72.618667-72.618667a2.304 2.304 0 0 1 3.242667-3.242666l72.618666 72.618666a2.218667 2.218667 0 0 1 0 3.242667 2.304 2.304 0 0 1-1.621333 0.682667z" fill="#3ECDFF" /><path d="M354.986667 932.608l-19.285334-0.512a2.389333 2.389333 0 0 1-2.304-2.389333 2.389333 2.389333 0 0 1 2.389334-2.218667l19.285333 0.512a2.389333 2.389333 0 0 1 2.304 2.389333 2.304 2.304 0 0 1-2.389333 2.218667z" fill="#3ECDFF" /><path d="M336.128 951.296a2.389333 2.389333 0 0 1-2.304-2.218667l-0.597333-18.944a2.304 2.304 0 0 1 2.304-2.304 2.56 2.56 0 0 1 2.389333 2.218667l0.512 19.285333a2.304 2.304 0 0 1-2.218667 2.389334zM282.88 879.36a2.389333 2.389333 0 0 1-2.304-2.304l-0.512-19.285333a2.304 2.304 0 0 1 2.218667-2.389334 2.389333 2.389333 0 0 1 2.389333 2.304l0.512 19.285334a2.304 2.304 0 0 1-2.218667 2.389333z" fill="#3ECDFF" /><path d="M282.965333 879.36l-19.370666-0.426667a2.389333 2.389333 0 0 1-2.218667-2.389333 2.389333 2.389333 0 0 1 2.389333-2.218667l19.285334 0.512a2.304 2.304 0 0 1 2.218666 2.389334 2.218667 2.218667 0 0 1-2.304 2.133333zM360.704 905.728h-102.4a2.304 2.304 0 0 1 0-4.608h102.4a2.304 2.304 0 1 1 0 4.608z" fill="#3ECDFF" /><path d="M346.624 905.728a2.304 2.304 0 0 1-1.621333-4.010667l14.08-13.226666a2.304 2.304 0 0 1 3.157333 3.328l-14.08 13.226666a2.304 2.304 0 0 1-1.536 0.682667z" fill="#3ECDFF" /><path d="M360.533333 918.954667a2.218667 2.218667 0 0 1-1.536-0.597334l-14.08-13.312a2.304 2.304 0 1 1 3.157334-3.328l14.08 13.226667a2.304 2.304 0 0 1-1.621334 4.010667zM272.042667 905.728a2.304 2.304 0 0 1-1.621334-0.682667l-13.994666-13.226666a2.304 2.304 0 0 1 0-3.242667 2.389333 2.389333 0 0 1 3.328 0l13.994666 13.226667a2.218667 2.218667 0 0 1 0 3.242666 2.133333 2.133333 0 0 1-1.706666 0.682667z" fill="#3ECDFF" /><path d="M258.048 918.954667a2.133333 2.133333 0 0 1-1.621333-0.768 2.218667 2.218667 0 0 1 0-3.242667l14.08-13.226667a2.304 2.304 0 0 1 3.157333 3.328l-14.08 13.312a2.218667 2.218667 0 0 1-1.536 0.597334zM273.066667 941.994667a2.048 2.048 0 0 1-1.621334-0.682667 2.389333 2.389333 0 0 1 0-3.242667l72.618667-72.618666a2.304 2.304 0 0 1 3.242667 3.242666l-72.618667 72.618667a2.048 2.048 0 0 1-1.621333 0.682667z" fill="#3ECDFF" /><path d="M335.701333 879.36a2.304 2.304 0 0 1-2.218666-2.389333l0.597333-19.285334a2.133333 2.133333 0 0 1 2.304-2.218666 2.304 2.304 0 0 1 2.304 2.304l-0.597333 19.370666a2.389333 2.389333 0 0 1-2.389334 2.218667z" fill="#3ECDFF" /><path d="M335.616 879.445333a2.304 2.304 0 0 1-2.304-2.304 2.133333 2.133333 0 0 1 2.218667-2.304l19.285333-0.597333a2.389333 2.389333 0 0 1 2.389333 2.218667 2.304 2.304 0 0 1-2.218666 2.389333l-19.285334 0.597333zM263.68 932.608a2.218667 2.218667 0 0 1-2.304-2.218667 2.304 2.304 0 0 1 2.218667-2.389333l19.285333-0.512a2.474667 2.474667 0 0 1 2.389333 2.218667 2.389333 2.389333 0 0 1-2.218666 2.389333l-19.370667 0.512z" fill="#3ECDFF" /><path d="M282.453333 951.296a2.218667 2.218667 0 0 1-2.218666-2.389333l0.597333-19.285334a2.304 2.304 0 0 1 2.389333-2.218666 2.389333 2.389333 0 0 1 2.218667 2.389333l-0.597333 19.285333a2.304 2.304 0 0 1-2.389334 2.218667zM621.397333 966.058667a4.010667 4.010667 0 0 1-4.010666-4.010667V827.733333a4.096 4.096 0 0 1 8.533333 0v134.741334a4.010667 4.010667 0 0 1-4.522667 3.584z" fill="#3ECDFF" /><path d="M638.805333 966.058667a3.84 3.84 0 0 1-2.901333-1.28l-17.066667-18.432a4.010667 4.010667 0 1 1 5.888-5.546667l17.066667 18.432a4.010667 4.010667 0 0 1 0 5.717333 3.754667 3.754667 0 0 1-2.986667 1.109334z" fill="#3ECDFF" /><path d="M604.074667 965.973333a4.096 4.096 0 0 1-2.730667-1.109333 4.010667 4.010667 0 0 1 0-5.717333l17.066667-18.432a4.010667 4.010667 0 0 1 5.888 5.546666l-17.066667 18.432a4.181333 4.181333 0 0 1-3.157333 1.28zM621.397333 849.834667a4.266667 4.266667 0 0 1-2.730666-1.109334 4.010667 4.010667 0 0 1 0-5.717333l17.066666-18.432a4.010667 4.010667 0 1 1 5.802667 5.546667l-17.066667 18.432a4.010667 4.010667 0 0 1-3.072 1.28z" fill="#3ECDFF" /><path d="M621.397333 849.92a3.925333 3.925333 0 0 1-2.901333-1.28l-17.066667-18.432a4.010667 4.010667 0 0 1 0-5.717333 3.925333 3.925333 0 0 1 5.632 0l17.066667 18.432a4.010667 4.010667 0 0 1-2.986667 6.741333zM669.098667 946.346667a4.096 4.096 0 0 1-2.901334-1.194667L570.965333 849.92a3.925333 3.925333 0 0 1 0-5.717333 4.096 4.096 0 0 1 5.717334 0l95.232 95.232a3.925333 3.925333 0 0 1 0 5.717333 4.010667 4.010667 0 0 1-2.816 1.194667z" fill="#3ECDFF" /><path d="M681.301333 934.058667l-25.6-0.768a4.096 4.096 0 0 1-3.925333-4.181334 4.181333 4.181333 0 0 1 4.181333-3.84l25.6 0.682667a4.096 4.096 0 0 1 0 8.106667z" fill="#3ECDFF" /><path d="M657.066667 958.549333a4.096 4.096 0 0 1-4.010667-3.925333l-0.768-25.6a4.181333 4.181333 0 0 1 3.925333-4.181333 4.266667 4.266667 0 0 1 4.181334 3.925333l0.768 25.6a4.181333 4.181333 0 0 1-3.925334 4.181333zM586.837333 864.170667a4.010667 4.010667 0 0 1-4.010666-3.925334l-0.768-25.6a4.096 4.096 0 0 1 3.925333-4.181333 4.352 4.352 0 0 1 4.181333 3.925333l0.682667 25.6a4.010667 4.010667 0 0 1-3.925333 4.181334z" fill="#3ECDFF" /><path d="M586.922667 864.256l-25.6-0.768a4.096 4.096 0 0 1-3.925334-4.181333 4.010667 4.010667 0 0 1 4.181334-3.925334l25.6 0.768a4.096 4.096 0 0 1 0 8.533334zM688.810667 898.730667H554.154667a4.096 4.096 0 0 1-4.096-4.010667 4.181333 4.181333 0 0 1 4.096-4.096h134.656a4.181333 4.181333 0 0 1 4.096 4.096 4.096 4.096 0 0 1-4.096 4.010667z" fill="#3ECDFF" /><path d="M670.378667 898.730667a3.925333 3.925333 0 0 1-2.901334-1.28 4.010667 4.010667 0 0 1 0-5.717334l18.432-17.066666a4.010667 4.010667 0 1 1 5.546667 5.888l-18.432 17.066666a3.925333 3.925333 0 0 1-2.645333 1.109334z" fill="#3ECDFF" /><path d="M688.725333 916.138667a4.352 4.352 0 0 1-2.816-1.109334l-18.432-17.066666a4.010667 4.010667 0 0 1 0-5.717334 4.096 4.096 0 0 1 5.717334 0l18.432 17.066667a4.010667 4.010667 0 0 1 0 5.717333 3.925333 3.925333 0 0 1-2.901334 1.109334zM572.586667 898.730667a4.096 4.096 0 0 1-2.816-1.109334l-18.432-17.066666a4.010667 4.010667 0 1 1 5.546666-5.888l18.432 17.066666a4.010667 4.010667 0 0 1 0 5.717334 3.925333 3.925333 0 0 1-2.730666 1.28z" fill="#3ECDFF" /><path d="M554.666667 916.138667a3.925333 3.925333 0 0 1-2.901334-1.28 4.010667 4.010667 0 0 1 0-5.717334l18.432-17.066666a4.096 4.096 0 0 1 5.717334 0 4.010667 4.010667 0 0 1 0 5.717333l-18.432 17.066667a4.352 4.352 0 0 1-2.816 1.28zM573.866667 946.346667a4.010667 4.010667 0 0 1-2.901334-1.194667 4.096 4.096 0 0 1 0-5.717333l95.317334-95.232a4.010667 4.010667 0 0 1 5.717333 5.717333l-95.317333 95.232a3.669333 3.669333 0 0 1-2.816 1.194667z" fill="#3ECDFF" /><path d="M656.042667 864.170667a4.096 4.096 0 0 1-3.925334-4.181334l0.768-25.6a4.010667 4.010667 0 0 1 4.181334-3.925333 4.181333 4.181333 0 0 1 3.925333 4.181333l-0.768 25.6a4.096 4.096 0 0 1-4.181333 3.925334z" fill="#3ECDFF" /><path d="M655.957333 864.256a4.096 4.096 0 0 1 0-8.533333l25.6-0.768a3.925333 3.925333 0 0 1 4.096 3.925333 4.010667 4.010667 0 0 1-3.925333 4.181333l-25.6 0.768zM561.578667 934.058667a4.010667 4.010667 0 0 1 0-8.021334l25.6-0.768a4.266667 4.266667 0 0 1 4.181333 3.925334 4.096 4.096 0 0 1-3.925333 4.181333l-25.6 0.682667z" fill="#3ECDFF" /><path d="M586.24 958.549333a4.096 4.096 0 0 1-3.925333-4.181333l0.768-25.6a4.010667 4.010667 0 0 1 4.096-3.925333 3.925333 3.925333 0 0 1 3.925333 4.096l-0.768 25.6a3.925333 3.925333 0 0 1-4.096 4.010666zM794.282667 866.730667a4.010667 4.010667 0 0 1-4.010667-4.010667V728.064a4.010667 4.010667 0 1 1 8.021333 0v134.656a4.010667 4.010667 0 0 1-4.010666 4.010667z" fill="#3ECDFF" /><path d="M811.690667 866.730667a4.266667 4.266667 0 0 1-2.986667-1.194667l-17.066667-18.432a4.010667 4.010667 0 0 1 5.888-5.546667l17.066667 18.432a4.010667 4.010667 0 0 1 0 5.717334 4.181333 4.181333 0 0 1-2.901333 1.024z" fill="#3ECDFF" /><path d="M776.96 866.645333a3.925333 3.925333 0 0 1-2.816-1.109333 4.010667 4.010667 0 0 1 0-5.717333l17.066667-18.432a4.010667 4.010667 0 0 1 5.717333 0 4.096 4.096 0 0 1 0 5.717333l-17.066667 18.432a3.925333 3.925333 0 0 1-2.901333 1.109333zM794.282667 750.933333a3.754667 3.754667 0 0 1-2.730667-1.109333 4.010667 4.010667 0 0 1 0-5.717333l17.066667-18.432a4.010667 4.010667 0 0 1 5.888 5.546666l-17.066667 18.432a4.181333 4.181333 0 0 1-3.157333 1.28z" fill="#3ECDFF" /><path d="M794.282667 750.933333a3.925333 3.925333 0 0 1-2.901334-1.28l-17.066666-18.432a4.010667 4.010667 0 0 1 5.888-5.546666l17.066666 18.432a4.096 4.096 0 0 1 0 5.717333 4.522667 4.522667 0 0 1-2.986666 1.109333zM841.898667 847.018667a3.669333 3.669333 0 0 1-2.816-1.194667L743.850667 750.933333a3.925333 3.925333 0 0 1 0-5.717333 4.096 4.096 0 0 1 5.717333 0L844.8 840.106667a4.096 4.096 0 0 1 0 5.717333 4.010667 4.010667 0 0 1-2.901333 1.194667z" fill="#3ECDFF" /><path d="M854.186667 834.730667l-25.6-0.682667a4.096 4.096 0 0 1-3.925334-4.181333 4.010667 4.010667 0 0 1 4.181334-3.925334l25.6 0.768a4.010667 4.010667 0 0 1 0 8.021334z" fill="#3ECDFF" /><path d="M829.525333 859.221333a4.010667 4.010667 0 0 1-4.010666-3.925333l-0.768-25.6a4.010667 4.010667 0 0 1 3.925333-4.096 4.352 4.352 0 0 1 4.181333 3.925333l0.682667 25.6a4.010667 4.010667 0 0 1-3.84 4.181334zM759.466667 764.842667a4.096 4.096 0 0 1-4.096-3.925334l-0.682667-25.6a4.010667 4.010667 0 0 1 8.021333 0l0.768 25.6a4.096 4.096 0 0 1-3.925333 4.181334z" fill="#3ECDFF" /><path d="M759.466667 764.928l-25.6-0.768a4.010667 4.010667 0 0 1-3.925334-4.181333 3.925333 3.925333 0 0 1 4.181334-3.84l25.6 0.682666a4.096 4.096 0 0 1 0 8.533334zM861.866667 799.402667H726.954667a4.010667 4.010667 0 1 1 0-8.021334H861.866667a4.010667 4.010667 0 0 1 0 8.021334z" fill="#3ECDFF" /><path d="M843.264 799.402667a4.096 4.096 0 0 1-2.901333-1.194667 4.010667 4.010667 0 0 1 0-5.717333l18.432-17.066667a4.010667 4.010667 0 0 1 5.461333 5.888l-18.432 17.066667a4.010667 4.010667 0 0 1-2.56 1.024z" fill="#3ECDFF" /><path d="M861.866667 816.810667a3.84 3.84 0 0 1-2.730667-1.109334l-18.432-17.066666a4.010667 4.010667 0 1 1 5.546667-5.888l18.432 17.066666a4.010667 4.010667 0 0 1 0 5.717334 4.181333 4.181333 0 0 1-2.816 1.28zM745.386667 799.402667a4.181333 4.181333 0 0 1-2.730667-1.024l-18.432-17.066667a4.010667 4.010667 0 1 1 5.546667-5.888l18.432 17.066667a4.010667 4.010667 0 0 1 0 5.717333 4.266667 4.266667 0 0 1-2.816 1.194667z" fill="#3ECDFF" /><path d="M727.125333 816.810667a3.925333 3.925333 0 0 1-2.901333-1.28 4.010667 4.010667 0 0 1 0-5.717334l18.432-17.066666a4.010667 4.010667 0 0 1 5.717333 0 4.096 4.096 0 0 1 0 5.717333l-18.432 17.066667a4.096 4.096 0 0 1-2.816 1.28zM746.752 847.104a4.181333 4.181333 0 0 1-2.901333-1.194667 4.096 4.096 0 0 1 0-5.717333L839.082667 744.96a4.010667 4.010667 0 0 1 5.717333 5.973333L749.568 845.909333a4.010667 4.010667 0 0 1-2.816 1.194667z" fill="#3ECDFF" /><path d="M828.928 764.842667a4.010667 4.010667 0 0 1-3.925333-4.181334l0.768-25.6a3.925333 3.925333 0 0 1 4.096-3.925333 4.010667 4.010667 0 0 1 3.925333 4.096l-0.768 25.6a3.925333 3.925333 0 0 1-4.096 4.010667z" fill="#3ECDFF" /><path d="M828.842667 764.928a4.010667 4.010667 0 0 1 0-8.021333l25.6-0.768a4.010667 4.010667 0 0 1 4.181333 3.925333 3.925333 3.925333 0 0 1-3.925333 4.096l-25.6 0.768zM734.464 834.816a4.096 4.096 0 0 1 0-8.533333l25.6-0.768a4.096 4.096 0 0 1 4.181333 3.925333 4.181333 4.181333 0 0 1-3.925333 4.181333l-25.6 0.768z" fill="#3ECDFF" /><path d="M759.466667 859.221333a4.096 4.096 0 0 1-3.925334-4.096l0.768-25.6a4.266667 4.266667 0 0 1 4.181334-3.925333 4.096 4.096 0 0 1 3.925333 4.181333l-0.768 25.6a4.010667 4.010667 0 0 1-4.181333 3.84z" fill="#3ECDFF" /></svg>