<?xml version="1.0" standalone="no"?><!DOCTYPE svg PUBLIC "-//W3C//DTD SVG 1.1//EN" "http://www.w3.org/Graphics/SVG/1.1/DTD/svg11.dtd"><svg class="icon" width="128px" height="128.00px" viewBox="0 0 1024 1024" version="1.1" xmlns="http://www.w3.org/2000/svg"><path fill="#1296db" d="M819.2 449.877333H71.594667a28.501333 28.501333 0 0 1 0-56.917333H819.2a28.501333 28.501333 0 1 1 0 56.917333zM973.909333 631.466667H225.962667a28.501333 28.501333 0 1 1 0-56.917334h747.946666a28.501333 28.501333 0 0 1 0 56.917334zM798.037333 87.381333H50.090667a28.416 28.416 0 0 1 0-56.832h747.946666a28.416 28.416 0 1 1 0 56.832zM952.405333 268.629333H204.8a28.501333 28.501333 0 1 1 0-56.917333h747.946667a28.501333 28.501333 0 0 1 0 56.917333zM971.946667 993.450667H224a28.416 28.416 0 1 1 0-56.832h747.946667a28.416 28.416 0 0 1 0 56.832zM835.754667 812.288H87.808a28.501333 28.501333 0 0 1 0-56.917333h747.946667a28.501333 28.501333 0 1 1 0 56.917333z"  /></svg>