<?xml version="1.0" standalone="no"?><!DOCTYPE svg PUBLIC "-//W3C//DTD SVG 1.1//EN" "http://www.w3.org/Graphics/SVG/1.1/DTD/svg11.dtd"><svg class="icon" width="128px" height="128.00px" viewBox="0 0 1024 1024" version="1.1" xmlns="http://www.w3.org/2000/svg"><path d="M795.733333 252.501333a226.645333 226.645333 0 0 0-44.032 4.352A288.938667 288.938667 0 0 0 190.037333 298.666667H179.2v1.706666a201.728 201.728 0 0 0 0 400.213334v1.706666h616.533333a224.938667 224.938667 0 0 0 0-449.792z" fill="#FFFFFF" /><path d="M485.034667 972.8a2.474667 2.474667 0 0 1-2.389334-2.389333v-102.912a2.474667 2.474667 0 0 1 4.864 0v103.168a2.474667 2.474667 0 0 1-2.474666 2.133333z" fill="#3ECDFF" /><path d="M498.346667 972.8a2.304 2.304 0 0 1-1.706667-0.768l-13.312-14.08a2.389333 2.389333 0 0 1 0-3.413333 2.389333 2.389333 0 0 1 3.413333 0l13.312 14.08a2.389333 2.389333 0 0 1 0 3.413333 2.304 2.304 0 0 1-1.706666 0.768z" fill="#3ECDFF" /><path d="M471.808 972.8a2.730667 2.730667 0 0 1-1.706667-0.682667 2.389333 2.389333 0 0 1 0-3.413333l13.312-14.08a2.389333 2.389333 0 0 1 3.413334 0 2.389333 2.389333 0 0 1 0 3.413333l-13.312 14.08a2.304 2.304 0 0 1-1.706667 0.682667zM485.034667 884.053333a2.645333 2.645333 0 0 1-1.621334-0.682666 2.389333 2.389333 0 0 1 0-3.413334l13.312-14.08a2.304 2.304 0 0 1 3.413334 0 2.389333 2.389333 0 0 1 0 3.413334l-13.312 14.08a2.304 2.304 0 0 1-1.792 0.682666z" fill="#3ECDFF" /><path d="M485.034667 884.138667a2.304 2.304 0 0 1-1.706667-0.768l-13.312-14.08a2.389333 2.389333 0 1 1 3.498667-3.328l13.312 14.08a2.56 2.56 0 0 1 0 3.498666 2.645333 2.645333 0 0 1-1.792 0.597334zM521.557333 957.952a2.56 2.56 0 0 1-1.706666-0.682667l-72.96-72.96a2.389333 2.389333 0 0 1 3.413333-3.413333l72.96 72.96a2.389333 2.389333 0 0 1 0 3.413333 2.730667 2.730667 0 0 1-1.706667 0.682667z" fill="#3ECDFF" /><path d="M530.944 948.565333l-19.370667-0.597333a2.389333 2.389333 0 0 1-2.389333-2.474667 2.645333 2.645333 0 0 1 2.56-2.389333l19.370667 0.597333a2.474667 2.474667 0 0 1 2.304 2.474667 2.389333 2.389333 0 0 1-2.474667 2.389333z" fill="#3ECDFF" /><path d="M512 967.253333a2.474667 2.474667 0 0 1-2.474667-2.304l-0.512-19.370666a2.304 2.304 0 0 1 2.304-2.474667 2.304 2.304 0 0 1 2.474667 2.304l0.597333 19.370667a2.389333 2.389333 0 0 1-2.389333 2.474666zM458.581333 894.976a2.389333 2.389333 0 0 1-2.389333-2.304l-0.597333-19.370667a2.389333 2.389333 0 0 1 2.389333-2.474666 2.645333 2.645333 0 0 1 2.474667 2.304l0.512 19.370666a2.304 2.304 0 0 1-2.304 2.474667z" fill="#3ECDFF" /><path d="M458.666667 895.061333l-19.370667-0.512a2.389333 2.389333 0 0 1-2.304-2.56 2.304 2.304 0 0 1 2.474667-2.304l19.370666 0.597334a2.304 2.304 0 0 1 2.304 2.474666 2.389333 2.389333 0 0 1-2.474666 2.304zM536.661333 921.6H433.578667a2.474667 2.474667 0 1 1 0-4.864h103.082666a2.474667 2.474667 0 1 1 0 4.864z" fill="#3ECDFF" /><path d="M522.581333 921.6a2.474667 2.474667 0 0 1-1.792-0.768 2.389333 2.389333 0 0 1 0-3.413333l14.165334-13.312a2.389333 2.389333 0 1 1 3.328 3.498666l-14.165334 13.312a2.304 2.304 0 0 1-1.536 0.682667z" fill="#3ECDFF" /><path d="M536.576 934.826667a2.730667 2.730667 0 0 1-1.706667-0.682667L520.533333 920.832a2.389333 2.389333 0 0 1 3.328-3.498667l14.08 13.312a2.389333 2.389333 0 0 1 0 3.413334 2.56 2.56 0 0 1-1.365333 0.768zM447.658667 921.6a2.304 2.304 0 0 1-1.621334-0.682667l-14.165333-13.312a2.389333 2.389333 0 0 1 3.328-3.498666l14.08 13.312a2.389333 2.389333 0 0 1 0 3.413333 2.474667 2.474667 0 0 1-1.621333 0.768z" fill="#3ECDFF" /><path d="M433.664 934.826667a2.474667 2.474667 0 0 1-1.792-0.768 2.389333 2.389333 0 0 1 0-3.413334l14.08-13.312a2.389333 2.389333 0 1 1 3.328 3.498667L435.2 934.144a2.304 2.304 0 0 1-1.536 0.682667zM448.682667 957.952a2.048 2.048 0 0 1-1.706667-0.682667 2.304 2.304 0 0 1 0-3.413333l72.874667-72.96a2.389333 2.389333 0 0 1 3.413333 3.413333l-72.874667 72.96a2.304 2.304 0 0 1-1.706666 0.682667z" fill="#3ECDFF" /><path d="M512 895.061333a2.474667 2.474667 0 0 1-2.304-2.56l0.597333-19.370666a2.304 2.304 0 0 1 2.474667-2.304 2.304 2.304 0 0 1 2.304 2.474666l-0.512 19.370667a2.474667 2.474667 0 0 1-2.56 2.389333z" fill="#3ECDFF" /><path d="M511.488 895.146667a2.474667 2.474667 0 0 1-2.389333-2.389334 2.389333 2.389333 0 0 1 2.304-2.474666l19.456-0.597334a2.816 2.816 0 0 1 2.474666 2.389334 2.474667 2.474667 0 0 1-2.389333 2.474666l-18.944 0.597334zM439.210667 948.565333a2.389333 2.389333 0 0 1-2.389334-2.304 2.56 2.56 0 0 1 2.389334-2.56l19.370666-0.512a2.474667 2.474667 0 0 1 2.474667 2.304 2.389333 2.389333 0 0 1-2.389333 2.474667l-19.370667 0.597333z" fill="#3ECDFF" /><path d="M458.154667 967.338667a2.56 2.56 0 0 1-2.389334-2.56l0.597334-19.370667c0-1.28 1.024-2.645333 2.474666-2.304a2.389333 2.389333 0 0 1 2.389334 2.474667l-0.426667 19.370666a2.474667 2.474667 0 0 1-2.645333 2.389334zM740.864 913.749333a4.181333 4.181333 0 0 1-4.181333-4.266666V774.229333a4.266667 4.266667 0 0 1 8.533333 0v135.253334a4.266667 4.266667 0 0 1-4.352 4.266666z" fill="#3ECDFF" /><path d="M758.357333 913.749333a4.181333 4.181333 0 0 1-3.157333-1.365333l-17.066667-18.517333a4.181333 4.181333 0 0 1 0-5.973334 4.266667 4.266667 0 0 1 5.973334 0l17.066666 18.517334a4.266667 4.266667 0 0 1 0 5.973333 4.352 4.352 0 0 1-2.816 1.365333z" fill="#3ECDFF" /><path d="M723.456 913.578667a4.096 4.096 0 0 1-2.901333-1.109334 4.181333 4.181333 0 0 1 0-5.973333l17.066666-18.517333a4.266667 4.266667 0 0 1 6.144 5.802666l-17.066666 18.517334a4.352 4.352 0 0 1-3.242667 1.28zM740.864 797.013333a4.352 4.352 0 0 1-2.901333-1.194666 4.181333 4.181333 0 0 1 0-5.973334l17.066666-18.517333a4.266667 4.266667 0 0 1 6.229334 5.802667l-17.066667 18.517333a4.266667 4.266667 0 0 1-3.328 1.365333z" fill="#3ECDFF" /><path d="M740.864 797.098667a4.352 4.352 0 0 1-3.072-1.28l-17.066667-18.517334a4.266667 4.266667 0 1 1 6.144-5.802666l17.066667 18.517333a4.181333 4.181333 0 0 1 0 5.973333 4.096 4.096 0 0 1-3.072 1.109334zM788.736 893.952a4.010667 4.010667 0 0 1-2.986667-1.28L690.090667 797.013333a4.096 4.096 0 0 1 0-5.973333 4.266667 4.266667 0 0 1 5.973333 0l95.658667 95.658667a4.266667 4.266667 0 0 1-2.986667 7.253333z" fill="#3ECDFF" /><path d="M801.024 881.578667l-25.6-0.768a4.266667 4.266667 0 0 1 0-8.533334l25.6 0.768a4.266667 4.266667 0 0 1 0 8.533334z" fill="#3ECDFF" /><path d="M776.533333 906.154667a4.266667 4.266667 0 0 1-4.266666-4.096l-0.768-25.6a4.266667 4.266667 0 0 1 8.533333 0l0.768 25.6a4.352 4.352 0 0 1-4.181333 4.352zM706.133333 811.349333a4.096 4.096 0 0 1-4.181333-4.096l-0.768-25.6a4.181333 4.181333 0 0 1 4.096-4.352 4.352 4.352 0 0 1 4.352 4.096l0.768 25.6a4.266667 4.266667 0 0 1-4.096 4.352z" fill="#3ECDFF" /><path d="M706.218667 811.434667l-25.6-0.682667a4.266667 4.266667 0 0 1-4.096-4.352 4.437333 4.437333 0 0 1 4.437333-4.266667l25.6 0.768a4.266667 4.266667 0 0 1 0 8.533334zM808.533333 846.165333H673.28a4.266667 4.266667 0 0 1-4.181333-4.266666 4.181333 4.181333 0 0 1 4.181333-4.266667h135.253333a4.266667 4.266667 0 0 1 4.266667 4.266667 4.266667 4.266667 0 0 1-4.266667 4.266666z" fill="#3ECDFF" /><path d="M790.016 846.165333a4.437333 4.437333 0 0 1-3.072-1.365333 4.266667 4.266667 0 0 1 0-5.973333l18.517333-17.066667a4.266667 4.266667 0 0 1 5.973334 0 4.181333 4.181333 0 0 1 0 5.973333l-18.517334 17.066667a4.096 4.096 0 0 1-2.901333 1.365333z" fill="#3ECDFF" /><path d="M808.448 863.573333a4.096 4.096 0 0 1-2.901333-1.194666l-18.517334-17.066667a4.266667 4.266667 0 1 1 5.802667-6.144l18.517333 17.066667a4.181333 4.181333 0 0 1 0 5.973333 4.096 4.096 0 0 1-2.901333 1.365333zM691.797333 846.165333a4.352 4.352 0 0 1-2.901333-1.194666l-18.517333-17.066667a4.181333 4.181333 0 0 1 0-5.973333 4.266667 4.266667 0 0 1 5.973333 0l18.517333 17.066666a4.181333 4.181333 0 0 1 0 5.973334 4.437333 4.437333 0 0 1-3.072 1.194666z" fill="#3ECDFF" /><path d="M673.450667 863.573333a3.925333 3.925333 0 0 1-3.072-1.365333 4.181333 4.181333 0 0 1 0-5.973333l18.517333-17.066667a4.266667 4.266667 0 0 1 5.802667 6.144l-18.517334 17.066667a4.352 4.352 0 0 1-2.730666 1.194666zM693.077333 893.952a4.266667 4.266667 0 0 1-2.986666-7.253333L785.749333 791.04a4.266667 4.266667 0 0 1 5.973334 0 4.266667 4.266667 0 0 1 0 6.058667l-95.658667 95.573333a4.010667 4.010667 0 0 1-2.986667 1.28z" fill="#3ECDFF" /><path d="M775.68 811.434667a4.266667 4.266667 0 0 1-4.096-4.437334l0.768-25.6a4.352 4.352 0 0 1 4.352-4.096 4.181333 4.181333 0 0 1 4.096 4.352l-0.768 25.6a4.181333 4.181333 0 0 1-4.352 4.181334z" fill="#3ECDFF" /><path d="M775.594667 811.52a4.266667 4.266667 0 0 1 0-8.533333l25.6-0.682667a4.352 4.352 0 0 1 4.352 4.096 4.266667 4.266667 0 0 1-4.096 4.352l-25.6 0.768zM680.789333 881.578667a4.266667 4.266667 0 0 1 0-8.533334l25.6-0.768a4.181333 4.181333 0 0 1 4.352 4.096 4.266667 4.266667 0 0 1-4.096 4.437334l-25.6 0.682666z" fill="#3ECDFF" /><path d="M705.536 906.154667a4.266667 4.266667 0 0 1-4.181333-4.352l0.768-25.6a4.352 4.352 0 0 1 4.352-4.096 4.181333 4.181333 0 0 1 4.096 4.352l-0.682667 25.6a4.266667 4.266667 0 0 1-4.352 4.096zM243.626667 896a4.181333 4.181333 0 0 1-4.266667-4.181333V756.736a4.266667 4.266667 0 0 1 8.533333 0v135.338667a4.181333 4.181333 0 0 1-4.266666 3.925333z" fill="#3ECDFF" /><path d="M261.034667 896a4.352 4.352 0 0 1-3.072-1.28l-17.066667-18.517333a4.266667 4.266667 0 1 1 6.144-5.802667l17.066667 18.517333a4.181333 4.181333 0 0 1 0 5.973334 4.096 4.096 0 0 1-3.072 1.109333z" fill="#3ECDFF" /><path d="M226.133333 896a4.352 4.352 0 0 1-2.901333-1.194667 4.181333 4.181333 0 0 1 0-5.973333l17.322667-18.432a4.266667 4.266667 0 0 1 6.144 5.802667l-17.493334 18.517333a4.266667 4.266667 0 0 1-3.072 1.28zM243.626667 779.52a4.266667 4.266667 0 0 1-3.072-7.168l17.066666-18.517333a4.352 4.352 0 0 1 5.973334 0 4.181333 4.181333 0 0 1 0 5.973333l-17.066667 18.517333a4.096 4.096 0 0 1-2.901333 1.194667z" fill="#3ECDFF" /><path d="M243.626667 779.690667a4.266667 4.266667 0 0 1-3.072-1.365334L223.061333 759.466667a4.266667 4.266667 0 1 1 6.144-5.802667l17.493334 18.517333a4.181333 4.181333 0 0 1 0 5.973334 4.352 4.352 0 0 1-3.072 1.536zM291.413333 876.458667a4.437333 4.437333 0 0 1-2.986666-1.194667L192.768 779.605333a4.266667 4.266667 0 0 1 0-5.973333 4.096 4.096 0 0 1 5.973333 0l95.658667 95.573333a4.266667 4.266667 0 0 1 0 6.058667 4.437333 4.437333 0 0 1-2.986667 1.194667z" fill="#3ECDFF" /><path d="M303.786667 864.170667l-25.6-0.768a4.266667 4.266667 0 0 1 0-8.533334l25.6 0.768a4.181333 4.181333 0 0 1 4.096 4.352 4.266667 4.266667 0 0 1-4.096 4.181334z" fill="#3ECDFF" /><path d="M278.954667 888.661333a4.266667 4.266667 0 0 1-4.181334-4.096l-0.768-25.6a4.266667 4.266667 0 0 1 4.096-4.352 4.352 4.352 0 0 1 4.352 4.096l0.768 25.6a4.181333 4.181333 0 0 1-4.096 4.352zM208.896 793.6a4.352 4.352 0 0 1-4.266667-4.181333l-0.768-25.6a4.266667 4.266667 0 0 1 4.096-4.437334 4.352 4.352 0 0 1 4.352 4.181334l0.768 25.6a4.266667 4.266667 0 0 1-4.096 4.352z" fill="#3ECDFF" /><path d="M208.981333 794.026667l-25.6-0.768a4.266667 4.266667 0 0 1 0-8.533334l25.6 0.768a4.266667 4.266667 0 0 1 0 8.533334zM311.296 828.672H176.042667a4.266667 4.266667 0 1 1 0-8.533333h135.253333a4.266667 4.266667 0 0 1 0 8.533333z" fill="#3ECDFF" /><path d="M292.778667 828.672A4.096 4.096 0 0 1 290.133333 827.733333a4.181333 4.181333 0 0 1 0-5.973333l18.517334-17.066667a4.266667 4.266667 0 0 1 5.802666 6.144l-18.517333 17.066667a4.352 4.352 0 0 1-3.157333 0.768z" fill="#3ECDFF" /><path d="M311.125333 846.08a4.266667 4.266667 0 0 1-2.901333-1.109333L290.133333 827.733333a4.266667 4.266667 0 1 1 5.802667-6.144l18.517333 17.066667a4.181333 4.181333 0 0 1-2.901333 7.253333zM194.56 828.672a4.096 4.096 0 0 1-2.901333-1.194667l-18.517334-17.066666a4.266667 4.266667 0 1 1 5.802667-6.144l18.517333 17.066666a4.266667 4.266667 0 0 1 0 5.973334 4.096 4.096 0 0 1-2.901333 1.365333z" fill="#3ECDFF" /><path d="M176.128 846.08a4.352 4.352 0 0 1-3.072-1.28 4.181333 4.181333 0 0 1 0-5.973333l18.517333-17.066667a4.266667 4.266667 0 0 1 5.802667 6.144L179.2 844.8a4.010667 4.010667 0 0 1-3.072 1.28zM196.266667 876.458667a4.266667 4.266667 0 0 1-2.986667-1.194667 4.096 4.096 0 0 1 0-5.973333l95.232-95.658667a4.096 4.096 0 0 1 5.973333 0 4.266667 4.266667 0 0 1 0 5.973333L198.826667 875.264a4.437333 4.437333 0 0 1-2.56 1.194667z" fill="#3ECDFF" /><path d="M278.357333 793.6a4.266667 4.266667 0 0 1-4.096-4.352l0.768-25.6a4.266667 4.266667 0 1 1 8.533334 0l-0.768 25.6a4.266667 4.266667 0 0 1-4.437334 4.352z" fill="#3ECDFF" /><path d="M278.272 794.026667a4.096 4.096 0 0 1-4.181333-4.096 4.181333 4.181333 0 0 1 4.096-4.352l25.6-0.768a4.522667 4.522667 0 0 1 4.352 4.096 4.352 4.352 0 0 1-4.181334 4.352l-25.6 0.768zM183.466667 864.170667a4.266667 4.266667 0 0 1-4.181334-4.096 4.181333 4.181333 0 0 1 4.096-4.352l25.6-0.768a4.266667 4.266667 0 0 1 0 8.533333l-25.6 0.768z" fill="#3ECDFF" /><path d="M208.298667 888.746667a4.266667 4.266667 0 0 1-4.096-4.352l0.768-25.6a4.266667 4.266667 0 0 1 8.533333 0l-0.768 25.6a4.266667 4.266667 0 0 1-4.437333 4.352z" fill="#3ECDFF" /></svg>