<?xml version="1.0" standalone="no"?><!DOCTYPE svg PUBLIC "-//W3C//DTD SVG 1.1//EN" "http://www.w3.org/Graphics/SVG/1.1/DTD/svg11.dtd"><svg class="icon" width="128px" height="128.00px" viewBox="0 0 1024 1024" version="1.1" xmlns="http://www.w3.org/2000/svg"><path d="M794.624 250.368a224.853333 224.853333 0 0 0-43.861333 4.352 287.829333 287.829333 0 0 0-559.445334 41.642667h-10.581333v1.706666a200.96 200.96 0 0 0 0 398.592v1.706667h613.888a224 224 0 0 0 0-448z" fill="#FFFFFF" /><path d="M457.642667 919.552a52.48 52.48 0 0 1-104.874667 0c0-29.013333 52.394667-139.690667 52.394667-139.690667s52.48 110.677333 52.48 139.690667zM630.101333 919.552a52.48 52.48 0 0 1-104.874666 0c0-29.013333 52.48-139.690667 52.48-139.690667s52.394667 110.677333 52.394666 139.690667zM887.466667 776.533333a26.282667 26.282667 0 0 1-52.48 0c0-14.506667 26.282667-69.802667 26.282666-69.802666S887.466667 761.856 887.466667 776.533333zM151.552 776.533333a26.282667 26.282667 0 0 1-52.48 0c0-14.506667 26.197333-69.802667 26.197333-69.802666s26.282667 55.125333 26.282667 69.802666zM764.757333 859.050667a37.12 37.12 0 0 1-74.24 0c0-20.48 37.12-98.816 37.12-98.816s37.12 78.336 37.12 98.816zM292.352 859.050667a37.12 37.12 0 0 1-74.24 0c0-20.48 37.12-98.816 37.12-98.816s37.12 78.336 37.12 98.816z" fill="#3ECDFF" /></svg>