<?xml version="1.0" standalone="no"?><!DOCTYPE svg PUBLIC "-//W3C//DTD SVG 1.1//EN" "http://www.w3.org/Graphics/SVG/1.1/DTD/svg11.dtd"><svg class="icon" width="128px" height="128.00px" viewBox="0 0 1024 1024" version="1.1" xmlns="http://www.w3.org/2000/svg"><path d="M826.794667 345.685333a176.725333 176.725333 0 0 0-35.157334 3.498667 230.4 230.4 0 0 0-448.597333 33.450667h-8.533333V384a161.109333 161.109333 0 0 0 0 319.658667v1.365333h492.288a179.712 179.712 0 0 0 0-359.338667z" fill="#FFFFFF" /><path d="M733.866667 430.762667a210.176 210.176 0 0 0-39.765334 3.84 261.205333 261.205333 0 0 0-507.733333 37.888H176.64v1.536a182.442667 182.442667 0 0 0 0 361.813333v1.536H733.866667a203.349333 203.349333 0 0 0 0-406.613333z" fill="#C1C1C1" /></svg>