<?xml version="1.0" standalone="no"?><!DOCTYPE svg PUBLIC "-//W3C//DTD SVG 1.1//EN" "http://www.w3.org/Graphics/SVG/1.1/DTD/svg11.dtd"><svg t="1742969269962" class="icon" viewBox="0 0 1024 1024" version="1.1" xmlns="http://www.w3.org/2000/svg" p-id="2195" xmlns:xlink="http://www.w3.org/1999/xlink" width="16" height="16"><path d="M231.594667 200.32h560.938666a29.482667 29.482667 0 0 0 31.146667-31.146667 27.562667 27.562667 0 0 0-28.586667-31.274666H231.04a29.098667 29.098667 0 0 0-30.634667 31.317333 29.44 29.44 0 0 0 31.146667 31.104z m623.104 62.378667H169.301333a38.869333 38.869333 0 0 0-31.146666 42.752v549.418666a31.573333 31.573333 0 0 0 35.242666 31.061334h677.205334a36.010667 36.010667 0 0 0 35.285333-36.352V305.493333a38.869333 38.869333 0 0 0-31.146667-42.752z m-218.026667 374.058666a31.146667 31.146667 0 1 1 0 62.165334H543.146667v62.421333a29.525333 29.525333 0 0 1-31.146667 31.317333 34.048 34.048 0 0 1-32.64-35.2l1.493333-58.538666H387.370667a31.146667 31.146667 0 1 1 0-62.165334h93.482666V574.293333H387.370667a31.232 31.232 0 1 1 0-62.421333h62.293333l-48.213333-75.690667a33.109333 33.109333 0 0 1 12.032-45.952 35.157333 35.157333 0 0 1 45.781333 16.469334l53.205333 98.304 53.205334-98.304a35.114667 35.114667 0 0 1 45.781333-16.469334 33.152 33.152 0 0 1 12.032 45.952l-49.237333 75.690667h62.293333a31.232 31.232 0 1 1 0 62.421333h-93.44v62.421334h93.525333z" fill="#8686a0" p-id="2196"></path></svg>