<?xml version="1.0" standalone="no"?><!DOCTYPE svg PUBLIC "-//W3C//DTD SVG 1.1//EN" "http://www.w3.org/Graphics/SVG/1.1/DTD/svg11.dtd"><svg class="icon" width="128px" height="128.00px" viewBox="0 0 1024 1024" version="1.1" xmlns="http://www.w3.org/2000/svg"><path fill="#1296db" d="M284.501333 598.528a92.074667 92.074667 0 0 1-142.592-116.565333c32.170667-39.424 226.56-131.584 226.56-131.584s-51.797333 208.810667-83.968 248.149333zM268.288 976.128a92.074667 92.074667 0 1 1-142.592-116.650667c32.256-39.338667 226.56-131.498667 226.56-131.498666s-51.797333 208.725333-83.968 248.149333zM614.4 937.045333a92.074667 92.074667 0 0 1-142.421333-116.565333c32.170667-39.424 226.56-131.584 226.56-131.584S646.741333 897.706667 614.4 937.045333zM581.802667 303.616a65.109333 65.109333 0 1 1-100.778667-82.432C503.466667 193.28 641.28 128 641.28 128s-36.693333 147.797333-59.477333 175.616zM901.546667 525.909333A65.109333 65.109333 0 0 1 800.682667 443.733333c22.784-27.904 160.256-93.098667 160.256-93.098666s-36.608 147.456-59.392 175.274666zM634.794667 551.68A65.194667 65.194667 0 0 1 533.930667 469.333333c22.784-27.818667 160.256-93.013333 160.256-93.013333s-36.608 147.456-59.392 175.36z"  /></svg>