<?xml version="1.0" standalone="no"?><!DOCTYPE svg PUBLIC "-//W3C//DTD SVG 1.1//EN" "http://www.w3.org/Graphics/SVG/1.1/DTD/svg11.dtd"><svg class="icon" width="128px" height="128.00px" viewBox="0 0 1024 1024" version="1.1" xmlns="http://www.w3.org/2000/svg"><path d="M772.086016 759.557767a26.529527 26.529527 0 1 1-52.97375 0c0-14.586975 26.444223-70.546363 26.444223-70.546363s26.529527 56.300604 26.529527 70.546363zM294.810438 759.557767a26.529527 26.529527 0 1 1-52.973751 0c0-14.586975 26.444223-70.546363 26.444224-70.546363s26.529527 56.300604 26.529527 70.546363z" fill="#3ECDFF" /><path d="M797.335984 200.731616a229.211703 229.211703 0 0 0-44.272748 4.350501A290.801152 290.801152 0 0 0 187.668681 247.222267h-10.577689v1.706079a203.023392 203.023392 0 0 0 0 402.719929v1.706079h620.244992a226.311369 226.311369 0 0 0 0-452.622738z" fill="#FFFFFF" /><path d="M551.404708 698.309534l-115.842759 136.486313a17.060789 17.060789 0 0 0 13.051504 28.150303h58.091987a17.060789 17.060789 0 0 0 15.695926-10.492386l57.750772-136.486313a17.060789 17.060789 0 0 0-28.74743-17.657917z" fill="#FFBF44" /><path d="M452.110914 997.726385l115.842759-136.486314a17.060789 17.060789 0 0 0-13.051503-28.150302h-58.091988a17.060789 17.060789 0 0 0-15.695926 10.492385l-57.750771 136.486314a17.060789 17.060789 0 0 0 28.747429 17.657917z" fill="#FFBF44" /></svg>