<?xml version="1.0" standalone="no"?><!DOCTYPE svg PUBLIC "-//W3C//DTD SVG 1.1//EN" "http://www.w3.org/Graphics/SVG/1.1/DTD/svg11.dtd"><svg class="icon" width="128px" height="128.00px" viewBox="0 0 1024 1024" version="1.1" xmlns="http://www.w3.org/2000/svg"><path d="M788.224 729.685333l-22.101333-25.6a13.909333 13.909333 0 0 0-13.312-4.352l-34.133334 6.997334A14.08 14.08 0 0 0 708.266667 715.861333l-11.690667 32.853334a13.909333 13.909333 0 0 0 3.157333 13.824l22.101334 25.6a14.165333 14.165333 0 0 0 13.312 4.522666l34.133333-7.082666a13.738667 13.738667 0 0 0 10.325333-8.533334l11.690667-32.853333a14.250667 14.250667 0 0 0-3.072-14.506667zM296.874667 768a26.282667 26.282667 0 1 1-52.565334 0c0-14.506667 26.282667-69.973333 26.282667-69.973333s26.282667 55.381333 26.282667 69.973333z" fill="#3ECDFF" /><path d="M795.050667 213.333333a224.853333 224.853333 0 0 0-43.861334 4.266667 288.256 288.256 0 0 0-560.384 41.813333h-10.666666v1.706667a201.301333 201.301333 0 0 0 0 399.274667v1.621333h614.912a224.341333 224.341333 0 1 0 0-448.682667z" fill="#FFFFFF" /><path d="M550.570667 707.669333L436.650667 842.325333a17.066667 17.066667 0 0 0 12.970666 28.074667h57.173334a17.066667 17.066667 0 0 0 15.701333-10.410667L579.328 725.333333a17.066667 17.066667 0 0 0-28.757333-17.664z" fill="#FFBF44" /><path d="M453.461333 1002.922667l113.92-134.656A17.066667 17.066667 0 0 0 554.666667 840.192h-57.173334a17.066667 17.066667 0 0 0-15.701333 10.410667l-56.832 134.656a17.066667 17.066667 0 0 0 28.501333 17.664z" fill="#FFBF44" /></svg>