<?xml version="1.0" standalone="no"?><!DOCTYPE svg PUBLIC "-//W3C//DTD SVG 1.1//EN" "http://www.w3.org/Graphics/SVG/1.1/DTD/svg11.dtd"><svg class="icon" width="128px" height="128.00px" viewBox="0 0 1024 1024" version="1.1" xmlns="http://www.w3.org/2000/svg"><path d="M791.125333 611.84a11.178667 11.178667 0 0 1-11.093333-11.178667V170.666667A11.178667 11.178667 0 0 1 802.133333 170.666667v429.994666a11.178667 11.178667 0 0 1-11.008 11.178667z" fill="#75DFFC" /><path d="M846.592 611.84a11.008 11.008 0 0 1-8.106667-3.498667l-55.466666-58.88a11.093333 11.093333 0 1 1 16.213333-15.189333l55.466667 58.794667a11.093333 11.093333 0 0 1-0.512 15.701333 10.922667 10.922667 0 0 1-7.594667 3.072z" fill="#75DFFC" /><path d="M735.744 611.328a11.093333 11.093333 0 0 1-8.533333-18.773333l55.381333-58.794667a11.264 11.264 0 0 1 15.786667 0 11.093333 11.093333 0 0 1 0 15.701333l-55.381334 58.794667a11.178667 11.178667 0 0 1-7.253333 3.072zM791.125333 240.896a10.922667 10.922667 0 0 1-7.594666-3.072 11.178667 11.178667 0 0 1-0.512-15.957333l55.466666-58.794667a11.178667 11.178667 0 0 1 16.213334 15.274667l-55.466667 58.794666a11.008 11.008 0 0 1-8.106667 3.754667z" fill="#75DFFC" /><path d="M791.125333 241.322667a11.349333 11.349333 0 0 1-8.106666-3.498667L727.637333 179.2a11.178667 11.178667 0 0 1 16.213334-15.274667l55.381333 58.794667a11.178667 11.178667 0 0 1 0 15.786667 11.434667 11.434667 0 0 1-8.106667 2.816zM943.104 548.864a11.008 11.008 0 0 1-7.850667-3.242667L631.466667 241.749333a11.093333 11.093333 0 1 1 15.701333-15.701333l303.786667 303.872a11.093333 11.093333 0 0 1 0 15.701333 11.178667 11.178667 0 0 1-7.850667 3.242667z" fill="#75DFFC" /><path d="M982.272 509.696l-80.725333-2.389333a11.178667 11.178667 0 0 1-10.837334-11.434667 11.434667 11.434667 0 0 1 11.434667-10.837333l80.810667 2.389333a11.178667 11.178667 0 0 1 0 22.272z" fill="#75DFFC" /><path d="M903.594667 587.776a11.264 11.264 0 0 1-11.178667-10.837333l-2.389333-80.725334a11.264 11.264 0 0 1 10.837333-11.52 11.178667 11.178667 0 0 1 11.434667 10.837334l2.389333 80.725333a11.178667 11.178667 0 0 1-10.752 11.52zM680.789333 286.549333a11.093333 11.093333 0 0 1-11.093333-10.752l-2.389333-80.725333a11.178667 11.178667 0 0 1 10.752-11.52 11.349333 11.349333 0 0 1 11.434666 10.837333l2.389334 80.725334a11.008 11.008 0 0 1-10.752 11.434666z" fill="#75DFFC" /><path d="M681.130667 286.890667l-80.725334-2.389334a11.178667 11.178667 0 1 1 0.597334-22.272l80.810666 2.474667a11.093333 11.093333 0 0 1 0 22.186667zM1006.165333 396.970667H576.426667a11.093333 11.093333 0 1 1 0-22.186667h429.738666a11.093333 11.093333 0 0 1 0 22.186667z" fill="#75DFFC" /><path d="M947.2 396.970667a10.837333 10.837333 0 0 1-8.533333-3.498667 11.093333 11.093333 0 0 1 0.512-15.701333l59.221333-55.381334a11.093333 11.093333 0 1 1 15.189333 16.213334l-58.794666 55.381333a10.837333 10.837333 0 0 1-7.594667 2.986667z" fill="#75DFFC" /><path d="M1005.738667 452.266667a11.264 11.264 0 0 1-7.68-3.072l-58.794667-55.381334a11.178667 11.178667 0 0 1 15.274667-16.213333l58.794666 55.466667a11.093333 11.093333 0 0 1 0.512 15.701333 11.349333 11.349333 0 0 1-8.106666 3.498667zM635.221333 396.970667a10.837333 10.837333 0 0 1-7.594666-2.986667l-58.794667-55.381333a11.178667 11.178667 0 1 1 15.274667-16.213334l58.794666 55.381334a11.093333 11.093333 0 0 1 0 15.701333 10.752 10.752 0 0 1-7.68 3.498667z" fill="#75DFFC" /><path d="M576.938667 452.266667a11.093333 11.093333 0 0 1-7.68-19.2l58.794666-55.466667a11.178667 11.178667 0 1 1 15.274667 16.213333l-58.794667 55.552a10.922667 10.922667 0 0 1-7.594666 2.901334zM639.402667 548.949333A11.008 11.008 0 0 1 631.466667 546.133333a11.178667 11.178667 0 0 1 0-15.786666l303.786666-303.872a11.178667 11.178667 0 1 1 15.786667 15.786666L647.253333 546.133333a11.349333 11.349333 0 0 1-7.850666 2.816z" fill="#75DFFC" /><path d="M901.632 286.634667a11.178667 11.178667 0 0 1-10.837333-11.434667l2.389333-80.725333a11.349333 11.349333 0 0 1 11.349333-10.837334 11.178667 11.178667 0 0 1 10.837334 11.434667l-2.304 80.810667a11.093333 11.093333 0 0 1-11.434667 10.752z" fill="#75DFFC" /><path d="M901.376 286.976a11.093333 11.093333 0 0 1-11.178667-10.752 11.264 11.264 0 0 1 10.837334-11.690667l80.725333-2.389333a11.178667 11.178667 0 0 1 0 22.272l-80.810667 2.389333zM600.149333 509.781333a11.178667 11.178667 0 0 1 0-22.272l80.725334-2.389333a11.178667 11.178667 0 0 1 0.682666 22.272l-80.810666 2.389333z" fill="#75DFFC" /><path d="M678.912 587.776a11.178667 11.178667 0 0 1-10.837333-11.434667l2.389333-80.725333a11.264 11.264 0 0 1 11.52-10.837333 11.093333 11.093333 0 0 1 10.752 11.434666l-2.389333 80.810667a11.093333 11.093333 0 0 1-11.434667 10.752z" fill="#75DFFC" /><path d="M406.016 911.616a22.272 22.272 0 0 1-22.016-22.272V134.656a22.272 22.272 0 0 1 44.544 0v754.688a22.272 22.272 0 0 1-22.528 22.272z" fill="#3ECDFF" /><path d="M503.466667 911.616a21.930667 21.930667 0 0 1-16.213334-6.997333l-97.450666-103.253334a22.272 22.272 0 0 1 32.426666-30.549333l97.28 103.253333a22.186667 22.186667 0 0 1-16.128 37.546667z" fill="#3ECDFF" /><path d="M308.736 910.848a22.272 22.272 0 0 1-16.213333-37.546667l97.28-103.253333a22.272 22.272 0 1 1 32.426666 30.549333l-97.365333 103.253334a22.186667 22.186667 0 0 1-16.128 6.997333zM406.016 260.181333a22.272 22.272 0 0 1-16.213333-37.546666L487.168 119.466667a22.272 22.272 0 1 1 32.341333 30.549333l-97.28 103.253333a22.272 22.272 0 0 1-16.213333 6.912z" fill="#3ECDFF" /><path d="M406.016 260.949333a22.186667 22.186667 0 0 1-16.213333-6.997333l-97.28-103.253333a22.272 22.272 0 1 1 32.426666-30.549334l97.28 103.338667a22.272 22.272 0 0 1-16.213333 37.461333zM672.853333 801.109333a22.101333 22.101333 0 0 1-15.786666-6.570666L123.477333 260.949333a22.272 22.272 0 0 1 31.488-31.488L688.64 763.136a22.272 22.272 0 0 1-15.786667 37.973333z" fill="#3ECDFF" /><path d="M741.717333 732.245333h-0.682666l-141.824-4.181333a22.272 22.272 0 0 1 0.597333-44.544h0.682667l141.909333 4.266667a22.272 22.272 0 0 1-0.597333 44.458666z" fill="#3ECDFF" /><path d="M603.477333 869.376a22.357333 22.357333 0 0 1-22.272-21.589333l-4.181333-141.909334a22.272 22.272 0 0 1 44.458667-1.28l4.266666 141.824a22.186667 22.186667 0 0 1-21.589333 22.869334zM212.224 340.48a22.357333 22.357333 0 0 1-22.272-21.589333l-4.181333-141.909334a22.272 22.272 0 0 1 44.629333-1.28l4.266667 141.824A22.357333 22.357333 0 0 1 213.333333 340.48z" fill="#3ECDFF" /><path d="M212.821333 341.333333h-0.682666l-141.824-4.522666a22.272 22.272 0 0 1 0.597333-44.544h0.682667l141.824 4.266666a22.272 22.272 0 0 1-0.597334 44.8zM783.701333 534.357333H28.928a22.272 22.272 0 0 1 0-44.458666h754.773333a22.272 22.272 0 0 1 0 44.458666z" fill="#3ECDFF" /><path d="M680.448 534.357333a21.930667 21.930667 0 0 1-16.213333-6.997333 22.186667 22.186667 0 0 1 1.365333-31.402667l103.253333-97.365333a22.272 22.272 0 0 1 30.549334 32.426667l-103.765334 97.28a21.76 21.76 0 0 1-15.189333 6.058666z" fill="#3ECDFF" /><path d="M782.848 631.466667a22.186667 22.186667 0 0 1-14.848-5.802667L664.32 528.298667a22.272 22.272 0 1 1 30.549333-32.341334l103.253334 97.28A22.272 22.272 0 0 1 782.848 631.466667zM132.181333 534.357333a21.76 21.76 0 0 1-15.189333-6.058666L13.653333 431.018667a22.272 22.272 0 0 1 30.549334-32.426667l103.253333 97.365333a22.186667 22.186667 0 0 1 0.938667 31.402667 21.930667 21.930667 0 0 1-16.213334 6.997333z" fill="#3ECDFF" /><path d="M29.781333 631.466667a22.272 22.272 0 0 1-15.274666-38.229334l103.253333-97.28a22.272 22.272 0 1 1 30.549333 32.341334L44.970667 625.664a22.186667 22.186667 0 0 1-15.189334 5.802667zM139.52 801.194667a22.272 22.272 0 0 1-15.786667-37.973334L657.066667 229.546667a22.272 22.272 0 1 1 31.488 31.488l-533.333334 533.674666a22.186667 22.186667 0 0 1-15.701333 6.485334z" fill="#3ECDFF" /><path d="M600.149333 340.565333h-0.682666a22.272 22.272 0 0 1-21.589334-22.869333l4.181334-141.909333a22.272 22.272 0 0 1 44.544 1.365333l-4.266667 141.824a22.272 22.272 0 0 1-22.186667 21.589333z" fill="#3ECDFF" /><path d="M599.552 341.333333a22.272 22.272 0 0 1-0.682667-44.544l141.909334-4.181333h0.597333a22.272 22.272 0 0 1 1.024 44.288L600.234667 341.333333zM70.656 732.416a22.272 22.272 0 0 1-0.682667-44.544l141.909334-4.181333h0.682666a22.272 22.272 0 0 1 0.768 44.458666l-141.824 4.266667z" fill="#3ECDFF" /><path d="M208.896 869.461333h-0.682667a22.272 22.272 0 0 1-21.589333-22.954666l4.181333-141.824A22.272 22.272 0 0 1 213.333333 683.093333h0.682667a22.357333 22.357333 0 0 1 21.589333 22.954667l-4.266666 141.824a22.272 22.272 0 0 1-22.442667 21.589333z" fill="#3ECDFF" /></svg>