<?xml version="1.0" standalone="no"?><!DOCTYPE svg PUBLIC "-//W3C//DTD SVG 1.1//EN" "http://www.w3.org/Graphics/SVG/1.1/DTD/svg11.dtd"><svg class="icon" width="128px" height="128.00px" viewBox="0 0 1024 1024" version="1.1" xmlns="http://www.w3.org/2000/svg"><path fill="#1296db" d="M268.544 699.221333C121.344 699.221333 5.973333 616.96 5.973333 512s115.370667-187.221333 262.570667-187.221333S531.2 407.04 531.2 512 415.829333 699.221333 268.544 699.221333z m0-306.517333C163.072 392.533333 73.898667 447.317333 73.898667 512s89.173333 119.466667 194.645333 119.466667 194.730667-54.613333 194.730667-119.466667-89.173333-119.466667-194.730667-119.466667z"  /><path fill="#1296db" d="M755.456 699.221333c-147.285333 0-262.656-82.261333-262.656-187.221333s115.370667-187.221333 262.656-187.221333S1018.026667 407.04 1018.026667 512s-115.370667 187.221333-262.570667 187.221333z m0-306.517333c-105.557333 0-194.730667 54.613333-194.730667 119.466667S649.898667 631.466667 755.456 631.466667s194.645333-54.613333 194.645333-119.466667-89.173333-119.466667-194.645333-119.466667z"  /></svg>