<?xml version="1.0" standalone="no"?><!DOCTYPE svg PUBLIC "-//W3C//DTD SVG 1.1//EN" "http://www.w3.org/Graphics/SVG/1.1/DTD/svg11.dtd"><svg class="icon" width="128px" height="128.00px" viewBox="0 0 1024 1024" version="1.1" xmlns="http://www.w3.org/2000/svg"><path d="M793.6 287.488a223.744 223.744 0 0 0-43.690667 4.352 286.549333 286.549333 0 0 0-557.653333 41.813333H181.76v1.706667a201.557333 201.557333 0 0 0 0 399.530667v1.706666H793.6a224.597333 224.597333 0 0 0 0-449.109333z" fill="#FFFFFF" /><path d="M886.272 814.762667a26.197333 26.197333 0 1 1-52.309333 0c0-14.506667 26.197333-69.973333 26.197333-69.973334s26.112 55.466667 26.112 69.973334zM152.661333 814.762667a26.197333 26.197333 0 1 1-52.309333 0c0-14.506667 26.112-69.973333 26.112-69.973334s26.197333 55.466667 26.197333 69.973334zM739.584 872.448a26.197333 26.197333 0 1 1-52.309333 0c0-14.506667 26.112-69.973333 26.112-69.973333s26.197333 55.466667 26.197333 69.973333zM299.349333 872.448a26.112 26.112 0 1 1-52.224 0C247.466667 857.941333 273.066667 802.133333 273.066667 802.133333s26.282667 55.808 26.282666 70.314667zM592.810667 909.056a26.112 26.112 0 1 1-52.224 0c0-14.592 26.112-70.058667 26.112-70.058667s26.112 55.466667 26.112 70.058667zM446.122667 909.056a26.197333 26.197333 0 1 1-52.309334 0c0-14.592 26.112-70.058667 26.112-70.058667s26.197333 55.466667 26.197334 70.058667z" fill="#3ECDFF" /></svg>