<?xml version="1.0" standalone="no"?><!DOCTYPE svg PUBLIC "-//W3C//DTD SVG 1.1//EN" "http://www.w3.org/Graphics/SVG/1.1/DTD/svg11.dtd"><svg class="icon" width="128px" height="128.00px" viewBox="0 0 1024 1024" version="1.1" xmlns="http://www.w3.org/2000/svg"><path fill="#1296db" d="M807.765333 269.909333H62.378667a45.397333 45.397333 0 0 1 0-90.709333h745.386666a45.397333 45.397333 0 1 1 0 90.709333zM961.621333 461.568H216.234667a45.397333 45.397333 0 1 1 0-90.709333h745.386666a45.397333 45.397333 0 0 1 0 90.709333zM959.658667 844.8H214.272a45.397333 45.397333 0 1 1 0-90.709333h745.386667a45.397333 45.397333 0 0 1 0 90.709333zM823.978667 653.141333H78.592a45.397333 45.397333 0 1 1 0-90.709333h745.386667a45.397333 45.397333 0 0 1 0 90.709333z"  /></svg>