<?xml version="1.0" standalone="no"?><!DOCTYPE svg PUBLIC "-//W3C//DTD SVG 1.1//EN" "http://www.w3.org/Graphics/SVG/1.1/DTD/svg11.dtd"><svg t="1743392379218" class="icon" viewBox="0 0 1024 1024" version="1.1" xmlns="http://www.w3.org/2000/svg" p-id="20750" xmlns:xlink="http://www.w3.org/1999/xlink" width="128" height="128"><path d="M629.333333 149.333333H576a21.333333 21.333333 0 0 0 0 42.666667h53.333333c76.373333 0 138.666667 52.693333 138.666667 117.333333S705.706667 426.666667 629.333333 426.666667H234.666667a21.333333 21.333333 0 0 0 0 42.666666h394.666666c100.053333 0 181.333333-71.68 181.333334-160S729.386667 149.333333 629.333333 149.333333z" fill="#c1c1c1" p-id="20751"></path><path d="M234.666667 341.333333h384a21.333333 21.333333 0 0 0 0-42.666666H234.666667a21.333333 21.333333 0 0 0 0 42.666666zM562.773333 533.333333H128a21.333333 21.333333 0 0 0 0 42.666667h434.773333a120.106667 120.106667 0 0 1 0 240H554.666667a21.333333 21.333333 0 0 0 0 42.666667h8.106666a162.773333 162.773333 0 0 0 0-325.333334z" fill="#c1c1c1" p-id="20752"></path><path d="M410.88 640H173.013333a21.333333 21.333333 0 1 0 0 42.666667h237.866667a56.106667 56.106667 0 1 1 0 112h-4.266667a21.333333 21.333333 0 0 0 0 42.666666h4.266667a98.773333 98.773333 0 1 0 0-197.333333z" fill="#c1c1c1" p-id="20753"></path></svg>