<?xml version="1.0" standalone="no"?><!DOCTYPE svg PUBLIC "-//W3C//DTD SVG 1.1//EN" "http://www.w3.org/Graphics/SVG/1.1/DTD/svg11.dtd"><svg class="icon" width="128px" height="128.00px" viewBox="0 0 1024 1024" version="1.1" xmlns="http://www.w3.org/2000/svg"><path d="M901.461333 772.778667a26.282667 26.282667 0 0 1-52.48 0c0-14.506667 26.282667-69.888 26.282667-69.888s26.197333 55.381333 26.197333 69.888zM165.376 772.778667a26.282667 26.282667 0 0 1-52.48 0c0-14.506667 26.197333-69.888 26.197333-69.888s26.282667 55.381333 26.282667 69.888zM778.666667 864.426667a37.12 37.12 0 1 1-74.154667 0c0-20.565333 37.12-98.901333 37.12-98.901334s37.034667 78.336 37.034667 98.901334zM306.176 864.426667a37.12 37.12 0 1 1-74.24 0c0-20.565333 37.12-98.901333 37.12-98.901334s37.12 78.336 37.12 98.901334z" fill="#3ECDFF" /><path d="M794.624 214.016a224.682667 224.682667 0 0 0-43.776 4.352 287.914667 287.914667 0 0 0-559.616 41.728h-10.581333v1.621333a201.045333 201.045333 0 0 0 0 398.762667v1.706667h614.4a224.085333 224.085333 0 0 0 0-448.170667z" fill="#FFFFFF" /><path d="M550.4 707.498667L436.736 841.813333a17.066667 17.066667 0 0 0 13.056 28.16h57.002667a17.066667 17.066667 0 0 0 15.701333-10.496L579.157333 725.333333a17.066667 17.066667 0 0 0-28.757333-17.834666z" fill="#FFBF44" /><path d="M453.632 1002.154667l113.664-134.314667A17.066667 17.066667 0 0 0 554.666667 839.765333h-57.429334a17.066667 17.066667 0 0 0-15.701333 10.410667l-56.661333 134.314667a17.066667 17.066667 0 0 0 28.757333 17.664z" fill="#FFBF44" /></svg>