<?xml version="1.0" standalone="no"?><!DOCTYPE svg PUBLIC "-//W3C//DTD SVG 1.1//EN" "http://www.w3.org/Graphics/SVG/1.1/DTD/svg11.dtd"><svg class="icon" width="128px" height="128.00px" viewBox="0 0 1024 1024" version="1.1" xmlns="http://www.w3.org/2000/svg"><path fill="#1296db" d="M512 396.714667c-172.885333 0-499.968-26.709333-499.968-128s327.082667-128 499.968-128 499.968 26.709333 499.968 128-327.082667 128-499.968 128z m0-210.090667c-125.866667 0-243.968 10.752-332.8 30.208C79.274667 238.933333 57.514667 263.936 57.514667 268.885333S79.274667 298.666667 179.2 321.024c88.576 19.456 206.677333 30.208 332.8 30.208s243.968-10.752 332.8-30.208c100.181333-22.101333 121.941333-47.104 121.941333-52.138667S944.725333 238.933333 844.8 216.832c-88.832-19.456-206.933333-30.208-332.8-30.208z"  /><path fill="#1296db" d="M502.954667 606.805333c-199.765333 0-433.152-33.450667-433.152-128s233.386667-128 433.152-128a22.784 22.784 0 1 1 0 45.482667c-270.592 0-387.669333 54.528-387.669334 82.346667s117.077333 82.261333 387.669334 82.261333a22.784 22.784 0 1 1 0 45.482667zM438.272 882.858667a23.637333 23.637333 0 0 1-4.181333 0c-72.448-13.397333-113.92-41.813333-113.92-77.994667 0-58.624 103.850667-85.333333 200.362666-85.333333a22.784 22.784 0 0 1 0 45.482666c-98.048 0-153.6 28.416-154.88 40.021334 0.512 4.949333 20.394667 22.784 76.8 33.194666a22.698667 22.698667 0 0 1-4.096 45.056z"  /><path fill="#1296db" d="M515.754667 764.586667c-147.114667 0-304.213333-26.709333-304.213334-101.632S368.64 561.322667 515.754667 561.322667a22.784 22.784 0 0 1 0 45.482666c-184.32 0-258.730667 39.68-258.730667 56.149334s74.410667 56.149333 258.730667 56.149333a22.784 22.784 0 0 1 0 45.482667z"  /><path fill="#1296db" d="M764.416 813.482667m-32.085333 0a32.085333 32.085333 0 1 0 64.170666 0 32.085333 32.085333 0 1 0-64.170666 0Z"  /><path fill="#1296db" d="M613.546667 612.608m-16.042667 0a16.042667 16.042667 0 1 0 32.085333 0 16.042667 16.042667 0 1 0-32.085333 0Z"  /><path fill="#1296db" d="M613.546667 797.44m-16.042667 0a16.042667 16.042667 0 1 0 32.085333 0 16.042667 16.042667 0 1 0-32.085333 0Z"  /><path fill="#1296db" d="M817.322667 628.650667m-32.085334 0a32.085333 32.085333 0 1 0 64.170667 0 32.085333 32.085333 0 1 0-64.170667 0Z"  /><path fill="#1296db" d="M968.106667 797.44m-16.042667 0a16.042667 16.042667 0 1 0 32.085333 0 16.042667 16.042667 0 1 0-32.085333 0Z"  /><path fill="#1296db" d="M721.664 487.424m-32.085333 0a32.085333 32.085333 0 1 0 64.170666 0 32.085333 32.085333 0 1 0-64.170666 0Z"  /><path fill="#1296db" d="M925.354667 471.381333m-16.042667 0a16.042667 16.042667 0 1 0 32.085333 0 16.042667 16.042667 0 1 0-32.085333 0Z"  /></svg>