<?xml version="1.0" standalone="no"?><!DOCTYPE svg PUBLIC "-//W3C//DTD SVG 1.1//EN" "http://www.w3.org/Graphics/SVG/1.1/DTD/svg11.dtd"><svg class="icon" width="128px" height="128.00px" viewBox="0 0 1024 1024" version="1.1" xmlns="http://www.w3.org/2000/svg"><path fill="#1296db" d="M793.6 274.090667H435.712a44.629333 44.629333 0 1 1 0-89.173334H793.6a44.629333 44.629333 0 0 1 0 89.173334zM206.677333 274.090667H61.098667a44.629333 44.629333 0 1 1 0-89.173334h145.578666a44.629333 44.629333 0 1 1 0 89.173334zM962.901333 462.421333h-170.666666a44.629333 44.629333 0 0 1 0-89.173333h170.666666a44.629333 44.629333 0 1 1 0 89.173333zM614.4 462.421333H230.4a44.629333 44.629333 0 1 1 0-89.173333h384a44.629333 44.629333 0 1 1 0 89.173333zM951.978667 839.082667H219.392a44.629333 44.629333 0 1 1 0-89.173334h732.586667a44.629333 44.629333 0 0 1 0 89.173334zM802.133333 650.752H428.117333a44.629333 44.629333 0 1 1 0-89.173333H802.133333a44.629333 44.629333 0 1 1 0 89.173333zM199.082667 650.752H69.376a44.629333 44.629333 0 0 1 0-89.173333h129.706667a44.629333 44.629333 0 1 1 0 89.173333z"  /></svg>