<?xml version="1.0" standalone="no"?><!DOCTYPE svg PUBLIC "-//W3C//DTD SVG 1.1//EN" "http://www.w3.org/Graphics/SVG/1.1/DTD/svg11.dtd"><svg class="icon" width="128px" height="127.63px" viewBox="0 0 1027 1024" version="1.1" xmlns="http://www.w3.org/2000/svg"><path d="M282.368 325.290667m-173.312 0a173.312 173.312 0 1 0 346.624 0 173.312 173.312 0 1 0-346.624 0Z" fill="#FFBF44" /><path d="M543.232 346.88h-47.616a21.589333 21.589333 0 1 1 0-43.178667h47.616a21.589333 21.589333 0 1 1 0 43.178667zM467.029333 240.213333a21.504 21.504 0 0 1-10.752-40.192l41.216-23.808A21.504 21.504 0 0 1 519.082667 213.333333L477.866667 237.312a21.76 21.76 0 0 1-10.837334 2.901333zM388.949333 162.133333a21.589333 21.589333 0 0 1-18.602666-32.341333l23.808-41.301333a21.589333 21.589333 0 0 1 37.376 21.589333l-23.808 41.216a21.504 21.504 0 0 1-18.773334 10.837333zM282.368 133.632a21.504 21.504 0 0 1-21.504-21.589333V64.426667a21.589333 21.589333 0 0 1 42.666667 0v47.616a21.589333 21.589333 0 0 1-21.162667 21.589333zM175.786667 162.133333a21.504 21.504 0 0 1-18.688-10.837333l-23.808-41.216A21.589333 21.589333 0 0 1 170.666667 88.576l23.808 41.301333a21.504 21.504 0 0 1-7.936 29.44 21.248 21.248 0 0 1-10.752 2.816zM97.706667 240.213333a21.589333 21.589333 0 0 1-10.752-2.816L45.738667 213.333333a21.589333 21.589333 0 1 1 21.589333-37.376l41.216 23.808a21.504 21.504 0 0 1-10.837333 40.192zM69.205333 346.88H21.589333a21.589333 21.589333 0 1 1 0-43.178667h47.616a21.589333 21.589333 0 1 1 0 43.178667zM56.576 477.269333a21.589333 21.589333 0 0 1-10.837333-40.277333l41.216-23.808a21.589333 21.589333 0 1 1 21.589333 37.376l-41.216 23.808a21.674667 21.674667 0 0 1-10.752 2.901333zM151.978667 572.757333a21.589333 21.589333 0 0 1-18.688-32.341333l23.808-41.301333A21.589333 21.589333 0 0 1 194.474667 520.533333L170.666667 561.92a21.674667 21.674667 0 0 1-18.688 10.837333zM282.368 607.658667a21.504 21.504 0 0 1-21.504-21.589334V538.453333a21.589333 21.589333 0 0 1 42.666667 0v47.616a21.589333 21.589333 0 0 1-21.162667 21.589334zM412.842667 572.757333a21.674667 21.674667 0 0 1-18.688-10.837333L370.346667 520.533333a21.589333 21.589333 0 0 1 37.376-21.589333l23.808 41.301333a21.589333 21.589333 0 0 1-18.688 32.341334zM508.245333 477.269333a21.418667 21.418667 0 0 1-10.752-2.901333l-41.216-23.808A21.589333 21.589333 0 1 1 477.866667 413.184l41.216 23.808a21.589333 21.589333 0 0 1 7.850666 29.525333 21.418667 21.418667 0 0 1-18.688 10.752z" fill="#FFBF44" /><path d="M813.738667 323.413333a208.981333 208.981333 0 0 0-40.96 4.010667 268.885333 268.885333 0 0 0-522.666667 38.997333h-9.984v1.536a187.733333 187.733333 0 0 0 0 372.48V742.4h573.610667a209.322667 209.322667 0 1 0 0-418.56z" fill="#FFFFFF" /><path d="M498.944 948.565333a49.066667 49.066667 0 1 1-98.048 0c0-27.050667 48.981333-130.474667 48.981333-130.474666s49.066667 103.509333 49.066667 130.474666zM660.053333 948.565333a48.981333 48.981333 0 1 1-97.962666 0c0-27.050667 48.981333-130.474667 48.981333-130.474666s48.981333 103.509333 48.981333 130.474666zM900.522667 814.848a24.576 24.576 0 0 1-49.066667 0c0-13.568 24.576-65.28 24.576-65.28s24.490667 51.712 24.490667 65.28zM213.333333 814.848a24.490667 24.490667 0 0 1-48.981333 0c0-13.568 24.490667-65.28 24.490667-65.28S213.333333 801.28 213.333333 814.848zM785.834667 892.16a34.645333 34.645333 0 0 1-69.290667 0C716.8 872.96 750.933333 799.829333 750.933333 799.829333s34.901333 73.130667 34.901334 92.330667zM344.490667 892.16a34.730667 34.730667 0 0 1-69.376 0c0-19.2 34.730667-92.330667 34.730666-92.330667s34.645333 73.130667 34.645334 92.330667z" fill="#3ECDFF" /></svg>