<?xml version="1.0" standalone="no"?><!DOCTYPE svg PUBLIC "-//W3C//DTD SVG 1.1//EN" "http://www.w3.org/Graphics/SVG/1.1/DTD/svg11.dtd"><svg class="icon" width="128px" height="128.00px" viewBox="0 0 1024 1024" version="1.1" xmlns="http://www.w3.org/2000/svg"><path d="M261.205333 446.890667m-162.816 0a162.816 162.816 0 1 0 325.632 0 162.816 162.816 0 1 0-325.632 0Z" fill="#FFBF44" /><path d="M361.301333 289.536a16.128 16.128 0 0 1-13.909333-24.234667l22.357333-38.741333a16.128 16.128 0 0 1 27.989334 16.128L375.466667 281.6a16.213333 16.213333 0 0 1-14.165334 7.936zM261.205333 262.741333a16.128 16.128 0 0 1-16.128-16.213333v-44.714667a16.128 16.128 0 0 1 32.256 0v44.714667a16.128 16.128 0 0 1-16.128 16.213333zM161.109333 289.536a16.213333 16.213333 0 0 1-14.08-8.533333l-22.357333-38.741334a16.128 16.128 0 0 1 27.989333-16.128l22.357334 38.741334a16.128 16.128 0 0 1-13.909334 24.234666zM87.722667 362.837333a15.957333 15.957333 0 0 1-8.021334-2.133333l-38.826666-22.357333a16.213333 16.213333 0 1 1 16.213333-27.989334L95.829333 332.8a16.128 16.128 0 0 1-8.533333 30.122667zM60.928 463.018667H16.128a16.213333 16.213333 0 0 1 0-32.341334h44.8a16.213333 16.213333 0 0 1 0 32.341334zM48.981333 585.557333a16.213333 16.213333 0 0 1-8.533333-30.208l38.826667-22.357333a16.128 16.128 0 0 1 16.128 27.989333l-38.314667 22.357334a15.701333 15.701333 0 0 1-8.106667 2.218666z" fill="#FFBF44" /><path d="M850.261333 362.837333a171.690667 171.690667 0 0 0-34.133333 3.413334 223.232 223.232 0 0 0-433.92 32.341333h-8.533333v1.28a155.818667 155.818667 0 0 0 0 309.162667v1.28h476.586666a173.738667 173.738667 0 1 0 0-347.477334z" fill="#FFFFFF" /><path d="M760.405333 445.098667a196.864 196.864 0 0 0-38.485333 3.754666 252.672 252.672 0 0 0-491.093333 36.608H221.866667v1.536a176.384 176.384 0 0 0 0 349.866667v1.450667h538.538666a196.266667 196.266667 0 1 0 0-393.216z" fill="#C1C1C1" /></svg>