<?xml version="1.0" standalone="no"?><!DOCTYPE svg PUBLIC "-//W3C//DTD SVG 1.1//EN" "http://www.w3.org/Graphics/SVG/1.1/DTD/svg11.dtd"><svg class="icon" width="128px" height="127.75px" viewBox="0 0 1026 1024" version="1.1" xmlns="http://www.w3.org/2000/svg"><path d="M911.701333 468.48a266.581333 266.581333 0 0 1-238.08-386.901333 266.666667 266.666667 0 1 0 335.701334 368.384 266.666667 266.666667 0 0 1-97.621334 18.517333z" fill="#FFBF44" /><path d="M622.933333 459.605333a176.896 176.896 0 0 0-34.133333 3.413334 226.645333 226.645333 0 0 0-440.576 32.853333h-8.533333v1.365333a158.208 158.208 0 0 0 0 313.856v1.365334H622.933333a176.469333 176.469333 0 1 0 0-352.853334z" fill="#FFFFFF" /><path d="M822.698667 543.146667a196.266667 196.266667 0 0 0-39.082667 3.84 256.512 256.512 0 0 0-498.602667 37.12h-9.472v1.536a179.2 179.2 0 0 0 0 355.242666v1.536h547.157334a199.68 199.68 0 1 0 0-399.274666z" fill="#C1C1C1" /></svg>