<?xml version="1.0" standalone="no"?><!DOCTYPE svg PUBLIC "-//W3C//DTD SVG 1.1//EN" "http://www.w3.org/Graphics/SVG/1.1/DTD/svg11.dtd"><svg class="icon" width="128px" height="128.00px" viewBox="0 0 1024 1024" version="1.1" xmlns="http://www.w3.org/2000/svg"><path fill="#1296db" d="M512 512m-320.085333 0a320.085333 320.085333 0 1 0 640.170666 0 320.085333 320.085333 0 1 0-640.170666 0Z"  /><path fill="#1296db" d="M992.682667 535.722667H904.533333a22.613333 22.613333 0 0 1 0-45.226667h87.808a22.613333 22.613333 0 1 1 0 45.226667zM852.309333 339.285333a22.613333 22.613333 0 0 1-11.349333-42.24l75.946667-43.861333a22.698667 22.698667 0 0 1 22.698666 39.253333l-76.032 43.861334a22.528 22.528 0 0 1-11.264 2.986666zM708.266667 195.498667a22.272 22.272 0 0 1-11.264-2.986667 22.784 22.784 0 0 1-8.533334-30.976L732.757333 85.333333a22.613333 22.613333 0 0 1 39.168 22.613334l-43.861333 75.946666A22.528 22.528 0 0 1 708.266667 195.498667zM512 140.885333a22.698667 22.698667 0 0 1-22.698667-22.698666V30.293333a22.698667 22.698667 0 1 1 45.397334 0v87.893334A22.698667 22.698667 0 0 1 512 140.885333zM315.733333 195.498667a22.442667 22.442667 0 0 1-19.626666-11.349334l-43.861334-75.946666A22.613333 22.613333 0 1 1 291.242667 85.333333l43.946666 75.946667a22.784 22.784 0 0 1-8.533333 30.976 22.272 22.272 0 0 1-10.922667 3.242667zM171.690667 339.285333a22.528 22.528 0 0 1-11.264-2.986666l-76.032-43.861334a22.698667 22.698667 0 0 1 22.698666-39.253333l75.946667 43.861333a22.613333 22.613333 0 0 1-11.349333 42.24zM119.466667 535.722667H31.317333a22.613333 22.613333 0 1 1 0-45.226667H119.466667a22.613333 22.613333 0 0 1 0 45.226667zM95.744 776.533333a22.613333 22.613333 0 0 1-11.349333-42.666666l76.032-43.861334a22.613333 22.613333 0 1 1 22.613333 39.168l-75.946667 43.861334a22.954667 22.954667 0 0 1-11.349333 3.498666zM271.616 952.064a22.698667 22.698667 0 0 1-19.541333-34.133333l43.861333-76.032a22.613333 22.613333 0 0 1 39.253333 22.613333l-43.946666 76.032a22.613333 22.613333 0 0 1-19.626667 11.52zM512 1016.405333a22.613333 22.613333 0 0 1-22.613333-22.613333v-87.722667a22.613333 22.613333 0 1 1 45.226666 0v87.722667a22.613333 22.613333 0 0 1-22.613333 22.613333zM752.384 952.064a22.613333 22.613333 0 0 1-19.626667-11.349333l-43.946666-76.032a22.613333 22.613333 0 0 1 39.253333-22.613334l43.861333 76.032a22.698667 22.698667 0 0 1-19.541333 34.133334zM928.256 776.533333a22.954667 22.954667 0 0 1-11.349333-3.072l-75.946667-43.861333a22.613333 22.613333 0 1 1 22.613333-39.168l76.032 43.434667a22.613333 22.613333 0 0 1-11.349333 42.666666z"  /></svg>