<?xml version="1.0" standalone="no"?><!DOCTYPE svg PUBLIC "-//W3C//DTD SVG 1.1//EN" "http://www.w3.org/Graphics/SVG/1.1/DTD/svg11.dtd"><svg class="icon" width="128px" height="128.00px" viewBox="0 0 1024 1024" version="1.1" xmlns="http://www.w3.org/2000/svg"><path fill="#1296db" d="M276.394667 283.562667m-21.504 0a21.504 21.504 0 1 0 43.008 0 21.504 21.504 0 1 0-43.008 0Z"  /><path fill="#1296db" d="M117.162667 445.525333m-43.008 0a43.008 43.008 0 1 0 86.016 0 43.008 43.008 0 1 0-86.016 0Z"  /><path fill="#1296db" d="M549.461333 305.066667m-43.008 0a43.008 43.008 0 1 0 86.016 0 43.008 43.008 0 1 0-86.016 0Z"  /><path fill="#1296db" d="M421.205333 115.797333m-43.008 0a43.008 43.008 0 1 0 86.016 0 43.008 43.008 0 1 0-86.016 0Z"  /><path fill="#1296db" d="M180.992 903.936m-21.504 0a21.504 21.504 0 1 0 43.008 0 21.504 21.504 0 1 0-43.008 0Z"  /><path fill="#1296db" d="M454.058667 925.44m-43.008 0a43.008 43.008 0 1 0 86.016 0 43.008 43.008 0 1 0-86.016 0Z"  /><path fill="#1296db" d="M325.802667 736.170667m-43.008 0a43.008 43.008 0 1 0 86.016 0 43.008 43.008 0 1 0-86.016 0Z"  /><path fill="#1296db" d="M677.034667 623.445333H66.645333a30.464 30.464 0 0 1 0-60.928h610.389334a249.770667 249.770667 0 0 0 0-499.541333 30.549333 30.549333 0 0 1 0-61.013333 310.784 310.784 0 1 1 0 621.482666z"  /><path fill="#1296db" d="M629.333333 475.392H311.808a30.464 30.464 0 1 1 0-60.928h317.525333a115.285333 115.285333 0 1 0 0-230.4 30.464 30.464 0 1 1 0-60.928 176.213333 176.213333 0 1 1 0 352.426667zM770.816 1022.037333a30.549333 30.549333 0 0 1 0-61.013333 115.285333 115.285333 0 0 0 0-230.4H453.290667a30.464 30.464 0 0 1 0-60.928h317.525333a176.298667 176.298667 0 0 1 0 352.512z"  /></svg>