<?xml version="1.0" standalone="no"?><!DOCTYPE svg PUBLIC "-//W3C//DTD SVG 1.1//EN" "http://www.w3.org/Graphics/SVG/1.1/DTD/svg11.dtd"><svg class="icon" width="128px" height="128.00px" viewBox="0 0 1024 1024" version="1.1" xmlns="http://www.w3.org/2000/svg"><path d="M795.136 237.994667a226.389333 226.389333 0 0 0-44.202667 4.352 288.341333 288.341333 0 0 0-560.469333 41.813333H180.053333v1.706667a201.301333 201.301333 0 0 0 0 399.36v1.621333h615.082667a224.426667 224.426667 0 0 0 0-448.853333z" fill="#FFFFFF" /><path d="M179.029333 731.648m16.298667 0l0.085333 0q16.298667 0 16.298667 16.298667l0 146.944q0 16.298667-16.298667 16.298666l-0.085333 0q-16.298667 0-16.298667-16.298666l0-146.944q0-16.298667 16.298667-16.298667Z" fill="#3ECDFF" /><path d="M338.090667 805.12m16.298666 0l0.085334 0q16.298667 0 16.298666 16.298667l0 146.944q0 16.298667-16.298666 16.298666l-0.085334 0q-16.298667 0-16.298666-16.298666l0-146.944q0-16.298667 16.298666-16.298667Z" fill="#3ECDFF" /><path d="M656.128 805.12m16.298667 0l0.085333 0q16.298667 0 16.298667 16.298667l0 146.944q0 16.298667-16.298667 16.298666l-0.085333 0q-16.298667 0-16.298667-16.298666l0-146.944q0-16.298667 16.298667-16.298667Z" fill="#3ECDFF" /><path d="M497.066667 731.648m16.298666 0l0.085334 0q16.298667 0 16.298666 16.298667l0 146.944q0 16.298667-16.298666 16.298666l-0.085334 0q-16.298667 0-16.298666-16.298666l0-146.944q0-16.298667 16.298666-16.298667Z" fill="#3ECDFF" /><path d="M815.189333 731.648m16.298667 0l0.085333 0q16.298667 0 16.298667 16.298667l0 148.650666q0 16.298667-16.298667 16.298667l-0.085333 0q-16.298667 0-16.298667-16.298667l0-148.650666q0-16.298667 16.298667-16.298667Z" fill="#3ECDFF" /></svg>