<?xml version="1.0" standalone="no"?><!DOCTYPE svg PUBLIC "-//W3C//DTD SVG 1.1//EN" "http://www.w3.org/Graphics/SVG/1.1/DTD/svg11.dtd"><svg class="icon" width="128px" height="128.00px" viewBox="0 0 1024 1024" version="1.1" xmlns="http://www.w3.org/2000/svg"><path fill="#1296db" d="M803.754667 423.424h-376.32a29.269333 29.269333 0 0 1 0-58.538667h376.32a29.269333 29.269333 0 1 1 0 58.538667zM186.709333 423.424H33.621333a29.269333 29.269333 0 0 1 0-58.538667h153.088a29.269333 29.269333 0 0 1 0 58.538667zM981.333333 621.397333H802.133333A29.354667 29.354667 0 0 1 802.133333 563.2h179.2a29.354667 29.354667 0 1 1 0 58.624zM615.594667 621.397333H211.541333a29.354667 29.354667 0 0 1 0-58.624h404.053334a29.354667 29.354667 0 0 1 0 58.624zM812.458667 65.28h-376.32a29.354667 29.354667 0 0 1 0-58.624h376.32a29.354667 29.354667 0 0 1 0 58.624zM195.413333 65.28H42.666667A29.354667 29.354667 0 1 1 42.666667 6.656h152.746666a29.354667 29.354667 0 1 1 0 58.624zM990.378667 263.253333H810.666667A29.354667 29.354667 0 0 1 810.666667 204.8h179.712a29.354667 29.354667 0 0 1 0 58.624zM624.298667 263.253333H220.245333a29.354667 29.354667 0 0 1 0-58.624h404.053334a29.354667 29.354667 0 0 1 0 58.624zM970.154667 1017.344H200.021333a29.354667 29.354667 0 0 1 0-58.624h770.133334a29.354667 29.354667 0 0 1 0 58.624zM812.458667 819.2H419.413333a29.354667 29.354667 0 0 1 0-58.624h393.045334a29.354667 29.354667 0 0 1 0 58.624zM179.2 819.2H42.666667a29.354667 29.354667 0 1 1 0-58.624h136.533333A29.354667 29.354667 0 0 1 179.2 819.2z"  /></svg>