<?xml version="1.0" standalone="no"?><!DOCTYPE svg PUBLIC "-//W3C//DTD SVG 1.1//EN" "http://www.w3.org/Graphics/SVG/1.1/DTD/svg11.dtd"><svg class="icon" width="128px" height="128.00px" viewBox="0 0 1024 1024" version="1.1" xmlns="http://www.w3.org/2000/svg"><path d="M838.570667 749.738667A489.642667 489.642667 0 0 1 401.493333 39.338667a489.728 489.728 0 1 0 616.533334 676.352 487.850667 487.850667 0 0 1-179.456 34.048z" fill="#FFBF44" /><path d="M809.984 436.565333H49.749333a46.250667 46.250667 0 1 1 0-92.501333h760.234667a46.250667 46.250667 0 1 1 0 92.501333zM966.912 625.664h-760.32a46.250667 46.250667 0 0 1 0-92.501333h760.32a46.250667 46.250667 0 1 1 0 92.501333zM974.250667 983.466667H214.016a46.250667 46.250667 0 1 1 0-92.501334h760.234667a46.250667 46.250667 0 1 1 0 92.501334zM826.538667 814.762667H66.218667a46.250667 46.250667 0 0 1 0-92.501334h760.32a46.250667 46.250667 0 0 1 0 92.501334z" fill="#FFFFFF" /></svg>