<?xml version="1.0" standalone="no"?><!DOCTYPE svg PUBLIC "-//W3C//DTD SVG 1.1//EN" "http://www.w3.org/Graphics/SVG/1.1/DTD/svg11.dtd"><svg class="icon" width="128px" height="128.00px" viewBox="0 0 1024 1024" version="1.1" xmlns="http://www.w3.org/2000/svg"><path d="M796.842667 280.746667a229.034667 229.034667 0 0 0-44.202667 4.352 290.133333 290.133333 0 0 0-563.882667 42.069333h-10.666666v1.706667a202.496 202.496 0 0 0 0 401.749333v1.706667h618.752a225.792 225.792 0 1 0 0-451.584z" fill="#FFFFFF" /><path d="M512 947.2a4.181333 4.181333 0 0 1-4.181333-4.181333v-135.68a4.266667 4.266667 0 0 1 8.533333 0v135.850666a4.181333 4.181333 0 0 1-4.352 4.010667z" fill="#3ECDFF" /><path d="M529.493333 947.2a4.096 4.096 0 0 1-3.072-1.28l-17.578666-18.602667a4.181333 4.181333 0 0 1 0-5.973333 4.266667 4.266667 0 0 1 6.058666 0l17.066667 18.602667a4.181333 4.181333 0 0 1 0 5.973333 4.266667 4.266667 0 0 1-2.474667 1.28z" fill="#3ECDFF" /><path d="M494.421333 947.2a4.352 4.352 0 0 1-2.901333-1.194667 4.181333 4.181333 0 0 1 0-5.973333l17.322667-18.432a4.266667 4.266667 0 0 1 6.229333 5.802667l-17.578667 18.602666a4.266667 4.266667 0 0 1-3.072 1.194667zM512 830.208a4.352 4.352 0 0 1-2.901333-1.194667 4.181333 4.181333 0 0 1 0-5.973333l17.578666-18.602667a4.266667 4.266667 0 1 1 6.144 5.802667l-17.066666 18.602667a4.437333 4.437333 0 0 1-3.754667 1.365333z" fill="#3ECDFF" /><path d="M512 830.293333a4.352 4.352 0 0 1-3.072-1.28L491.349333 810.666667a4.266667 4.266667 0 0 1 6.144-5.802667l17.578667 18.602667a4.266667 4.266667 0 0 1 0 5.973333 4.010667 4.010667 0 0 1-3.072 0.853333zM559.957333 927.488a4.437333 4.437333 0 0 1-2.986666-1.194667L460.8 830.208a4.096 4.096 0 0 1 0-5.973333 4.266667 4.266667 0 0 1 5.973333 0L563.2 920.32a4.096 4.096 0 0 1 0 5.973333 4.437333 4.437333 0 0 1-3.242667 1.194667z" fill="#3ECDFF" /><path d="M572.330667 915.114667l-25.6-0.768a4.266667 4.266667 0 0 1-4.181334-4.352 4.522667 4.522667 0 0 1 4.437334-4.096l25.6 0.768a4.266667 4.266667 0 0 1 0 8.533333z" fill="#3ECDFF" /><path d="M547.498667 939.776a4.266667 4.266667 0 0 1-4.266667-4.096l-0.768-25.6a4.352 4.352 0 0 1 4.096-4.352 4.437333 4.437333 0 0 1 4.437333 4.096l0.682667 25.6a4.181333 4.181333 0 0 1-4.096 4.352zM477.098667 844.8a4.266667 4.266667 0 0 1-4.266667-4.096l-0.768-25.6a4.181333 4.181333 0 0 1 4.096-4.437333 4.352 4.352 0 0 1 4.352 4.096l0.768 25.6a4.181333 4.181333 0 0 1-4.096 4.352z" fill="#3ECDFF" /><path d="M477.184 844.8l-25.6-0.768a4.266667 4.266667 0 1 1 0-8.533333l25.6 0.768a4.181333 4.181333 0 0 1 4.096 4.352 4.096 4.096 0 0 1-4.096 4.181333zM580.266667 879.530667H443.733333a4.266667 4.266667 0 0 1 0-8.533334h136.533334a4.266667 4.266667 0 0 1 0 8.533334z" fill="#3ECDFF" /><path d="M561.322667 879.530667a4.096 4.096 0 0 1-3.072-1.365334 4.181333 4.181333 0 0 1 0-5.973333l18.602666-17.066667a4.266667 4.266667 0 1 1 5.802667 6.144l-18.602667 17.493334a4.352 4.352 0 0 1-2.730666 0.768z" fill="#3ECDFF" /><path d="M579.754667 897.024a4.266667 4.266667 0 0 1-2.901334-1.109333l-18.602666-17.578667a4.266667 4.266667 0 0 1 5.802666-6.144l18.602667 17.493333a4.266667 4.266667 0 0 1-2.901333 7.338667zM462.677333 879.530667a4.352 4.352 0 0 1-2.901333-1.194667l-18.602667-17.493333a4.266667 4.266667 0 1 1 5.802667-6.144l18.602667 17.066666a4.181333 4.181333 0 0 1 0 5.973334 4.096 4.096 0 0 1-2.901334 1.792z" fill="#3ECDFF" /><path d="M444.245333 897.024a4.266667 4.266667 0 0 1-2.901333-7.338667l18.602667-17.493333a4.266667 4.266667 0 0 1 5.802666 6.144L447.146667 896a4.266667 4.266667 0 0 1-2.901334 1.024zM463.957333 927.573333a4.266667 4.266667 0 0 1-2.986666-7.253333l96.085333-96.085333a4.266667 4.266667 0 0 1 5.973333 0 4.352 4.352 0 0 1 0 6.058666l-96.085333 96a4.010667 4.010667 0 0 1-2.986667 1.28z" fill="#3ECDFF" /><path d="M546.901333 844.8a4.266667 4.266667 0 0 1-4.096-4.352l0.768-25.6a4.181333 4.181333 0 0 1 4.352-4.096 4.266667 4.266667 0 0 1 4.096 4.352l-0.768 25.6a4.266667 4.266667 0 0 1-4.352 4.096z" fill="#3ECDFF" /><path d="M546.730667 844.8a4.266667 4.266667 0 0 1 0-8.533333l25.6-0.768a4.181333 4.181333 0 0 1 4.352 4.096 4.096 4.096 0 0 1-4.096 4.352l-25.6 0.768zM451.584 915.114667a4.096 4.096 0 0 1-4.181333-4.096 4.181333 4.181333 0 0 1 4.096-4.352l25.6-0.768a4.437333 4.437333 0 0 1 4.352 4.096 4.266667 4.266667 0 0 1-4.096 4.437333l-25.6 0.682667z" fill="#3ECDFF" /><path d="M476.501333 939.861333a4.266667 4.266667 0 0 1-4.096-4.437333l0.768-25.6a4.437333 4.437333 0 0 1 4.352-4.096 4.266667 4.266667 0 0 1 4.096 4.352l-0.768 25.6a4.266667 4.266667 0 0 1-4.352 4.181333z" fill="#3ECDFF" /></svg>