<?xml version="1.0" standalone="no"?><!DOCTYPE svg PUBLIC "-//W3C//DTD SVG 1.1//EN" "http://www.w3.org/Graphics/SVG/1.1/DTD/svg11.dtd"><svg class="icon" width="128px" height="128.00px" viewBox="0 0 1024 1024" version="1.1" xmlns="http://www.w3.org/2000/svg"><path d="M794.794667 234.410667A225.536 225.536 0 0 0 750.933333 238.933333a288 288 0 0 0-559.872 41.728h-10.581333v1.706667a201.130667 201.130667 0 0 0 0 398.933333V682.666667h614.4a224.256 224.256 0 1 0 0-448.426667z" fill="#FFFFFF" /><path d="M766.549333 935.594667a52.48 52.48 0 0 1-104.96 0c0-29.013333 52.48-139.776 52.48-139.776s52.48 110.762667 52.48 139.776zM290.133333 814.165333a26.282667 26.282667 0 0 1-52.48 0c0-14.506667 26.282667-69.888 26.282667-69.888S290.133333 799.658667 290.133333 814.165333zM428.885333 986.965333a9.472 9.472 0 0 1-3.925333-0.938666 9.130667 9.130667 0 0 1-4.266667-12.117334l120.064-249.514666a9.045333 9.045333 0 1 1 16.298667 7.850666l-119.978667 249.514667a9.130667 9.130667 0 0 1-8.192 5.205333z" fill="#3ECDFF" /></svg>