<?xml version="1.0" standalone="no"?><!DOCTYPE svg PUBLIC "-//W3C//DTD SVG 1.1//EN" "http://www.w3.org/Graphics/SVG/1.1/DTD/svg11.dtd"><svg class="icon" width="128px" height="128.00px" viewBox="0 0 1024 1024" version="1.1" xmlns="http://www.w3.org/2000/svg"><path d="M794.197333 235.605333a224 224 0 0 0-43.776 4.352A287.317333 287.317333 0 0 0 191.829333 281.6h-10.666666v1.621333a200.704 200.704 0 0 0 0 398.08V682.666667h613.034666a223.744 223.744 0 0 0 0-447.402667z" fill="#FFFFFF" /><path d="M429.056 986.453333a9.472 9.472 0 0 1-3.925333-0.938666 8.96 8.96 0 0 1-4.181334-12.117334l119.466667-249.002666a9.045333 9.045333 0 1 1 16.298667 7.936l-119.466667 249.002666a9.045333 9.045333 0 0 1-8.192 5.12zM270.848 845.909333a2.474667 2.474667 0 0 1-2.474667-2.474666v-102.4a2.474667 2.474667 0 0 1 4.864 0v102.4a2.474667 2.474667 0 0 1-2.389333 2.474666z" fill="#3ECDFF" /><path d="M284.074667 845.909333a2.474667 2.474667 0 0 1-1.792-0.768l-13.226667-14.08a2.389333 2.389333 0 1 1 3.498667-3.328l13.226666 14.08a2.474667 2.474667 0 0 1-1.706666 4.096z" fill="#3ECDFF" /><path d="M257.621333 845.738667A2.645333 2.645333 0 0 1 256 844.8a2.389333 2.389333 0 0 1 0-3.413333l13.056-13.653334a2.389333 2.389333 0 0 1 3.413333 0 2.389333 2.389333 0 0 1 0 3.413334L259.328 844.8a2.56 2.56 0 0 1-1.706667 0.938667zM270.848 757.333333a2.304 2.304 0 0 1-1.706667-0.682666 2.389333 2.389333 0 0 1 0-3.413334l13.226667-13.994666a2.389333 2.389333 0 0 1 3.413333 0 2.304 2.304 0 0 1 0 3.413333l-13.226666 13.994667a2.304 2.304 0 0 1-1.706667 0.682666z" fill="#3ECDFF" /><path d="M270.848 757.418667a2.389333 2.389333 0 0 1-1.792-0.682667L256 742.4a2.389333 2.389333 0 1 1 3.498667-3.328l13.226666 14.08a2.389333 2.389333 0 0 1 0 3.413333 2.218667 2.218667 0 0 1-1.877333 0.853334zM307.2 830.890667a2.133333 2.133333 0 0 1-1.706667-0.768l-72.533333-72.533334a2.389333 2.389333 0 0 1 3.413333-3.413333l72.533334 72.533333a2.474667 2.474667 0 0 1-1.706667 4.181334z" fill="#3ECDFF" /><path d="M316.416 821.504l-19.285333-0.597333a2.389333 2.389333 0 0 1-2.304-2.474667 2.133333 2.133333 0 0 1 2.474666-2.304l19.285334 0.512a2.56 2.56 0 0 1 2.389333 2.56 2.474667 2.474667 0 0 1-2.56 2.304z" fill="#3ECDFF" /><path d="M297.642667 840.106667a2.389333 2.389333 0 0 1-2.389334-2.304l-0.597333-19.285334a2.474667 2.474667 0 0 1 4.864 0l0.512 19.285334a2.304 2.304 0 0 1-2.304 2.474666zM244.48 768a2.389333 2.389333 0 0 1-2.389333-2.304l-0.597334-19.029333a2.474667 2.474667 0 0 1 2.304-2.56 2.56 2.56 0 0 1 2.474667 2.389333l0.512 19.285333a2.304 2.304 0 0 1-2.304 2.474667z" fill="#3ECDFF" /><path d="M244.565333 768h-19.370666a2.304 2.304 0 0 1-2.304-2.474667 2.474667 2.474667 0 0 1 2.474666-2.304l19.285334 0.512a2.474667 2.474667 0 0 1 2.304 2.474667 2.389333 2.389333 0 0 1-2.389334 1.792zM322.133333 794.624h-102.4a2.474667 2.474667 0 0 1 0-4.864h102.4a2.474667 2.474667 0 0 1 0 4.864z" fill="#3ECDFF" /><path d="M308.138667 794.624a2.474667 2.474667 0 0 1-1.792-1.024 2.389333 2.389333 0 0 1 0-3.413333l14.08-13.226667a2.389333 2.389333 0 0 1 3.413333 0 2.474667 2.474667 0 0 1 0 3.413333L309.76 793.6a2.304 2.304 0 0 1-1.621333 1.024z" fill="#3ECDFF" /><path d="M322.048 807.850667a2.730667 2.730667 0 0 1-1.706667-0.682667L306.346667 793.6a2.389333 2.389333 0 0 1 3.328-3.498667l13.994666 13.226667a2.389333 2.389333 0 0 1 0 3.413333 2.304 2.304 0 0 1-1.621333 1.109334zM233.642667 794.624a2.730667 2.730667 0 0 1-1.706667-0.682667l-13.994667-13.226666a2.389333 2.389333 0 0 1 0-3.413334 2.389333 2.389333 0 0 1 3.413334 0l13.994666 13.226667a2.389333 2.389333 0 0 1 0 3.413333 2.304 2.304 0 0 1-1.706666 0.682667z" fill="#3ECDFF" /><path d="M219.648 807.850667a2.304 2.304 0 0 1-1.706667-0.768 2.389333 2.389333 0 0 1 0-3.413334l13.994667-13.226666a2.389333 2.389333 0 0 1 3.413333 0 2.304 2.304 0 0 1 0 3.413333l-13.994666 13.226667a2.730667 2.730667 0 0 1-1.706667 0.768zM234.581333 830.890667a2.730667 2.730667 0 0 1-1.706666-0.682667 2.56 2.56 0 0 1 0-3.498667l72.533333-72.448a2.304 2.304 0 0 1 3.413333 0 2.389333 2.389333 0 0 1 0 3.413334l-72.533333 72.533333a2.56 2.56 0 0 1-1.706667 0.682667z" fill="#3ECDFF" /><path d="M297.216 768a2.389333 2.389333 0 0 1-2.389333-2.474667l0.597333-19.285333a2.56 2.56 0 0 1 2.474667-2.304 2.389333 2.389333 0 0 1 2.389333 2.474667l-0.597333 19.285333a2.389333 2.389333 0 0 1-2.474667 2.304z" fill="#3ECDFF" /><path d="M297.130667 768a2.389333 2.389333 0 0 1-2.389334-2.304 2.389333 2.389333 0 0 1 2.304-2.56l19.285334-0.512a2.304 2.304 0 0 1 2.474666 2.304 2.304 2.304 0 0 1-2.304 2.474667l-19.285333 0.597333zM225.28 821.504a2.474667 2.474667 0 0 1-2.474667-2.304 2.389333 2.389333 0 0 1 2.389334-2.474667l19.285333-0.597333c1.28 0 2.389333 1.024 2.474667 2.304a2.389333 2.389333 0 0 1-2.389334 2.474667l-19.285333 0.597333z" fill="#3ECDFF" /><path d="M244.053333 840.106667a2.389333 2.389333 0 0 1-2.389333-2.474667l0.597333-19.285333a2.218667 2.218667 0 0 1 2.474667-2.304 2.389333 2.389333 0 0 1 2.389333 2.474666l-0.597333 19.285334a2.389333 2.389333 0 0 1-2.474667 2.304zM713.557333 971.861333a4.266667 4.266667 0 0 1-4.266666-4.266666V833.109333a4.266667 4.266667 0 1 1 8.533333 0v134.485334a4.181333 4.181333 0 0 1-4.266667 4.266666z" fill="#3ECDFF" /><path d="M730.88 971.861333a4.096 4.096 0 0 1-3.072-1.365333l-17.066667-18.346667a4.266667 4.266667 0 1 1 6.144-5.802666l17.066667 18.346666a4.266667 4.266667 0 0 1-3.072 7.168z" fill="#3ECDFF" /><path d="M696.234667 971.690667a4.010667 4.010667 0 0 1-2.901334-1.109334 4.266667 4.266667 0 0 1 0-5.973333l17.066667-18.432a4.266667 4.266667 0 0 1 6.144 5.802667l-17.066667 18.432a4.352 4.352 0 0 1-3.242666 1.28zM713.557333 855.722667a4.096 4.096 0 0 1-2.901333-1.109334 4.181333 4.181333 0 0 1 0-5.973333l17.066667-18.432A4.266667 4.266667 0 1 1 733.866667 836.266667l-17.066667 18.346666a4.096 4.096 0 0 1-3.242667 1.109334z" fill="#3ECDFF" /><path d="M713.557333 855.893333a3.925333 3.925333 0 0 1-3.072-1.365333l-17.066666-18.432a4.266667 4.266667 0 0 1 0-5.973333 4.352 4.352 0 0 1 5.973333 0l17.066667 18.432a4.181333 4.181333 0 0 1 0 5.973333 4.352 4.352 0 0 1-2.901334 1.365333zM761.088 952.149333a4.608 4.608 0 0 1-2.986667-1.194666l-95.146666-95.146667a4.266667 4.266667 0 0 1 0-5.973333 4.096 4.096 0 0 1 5.973333 0l95.146667 95.061333a4.266667 4.266667 0 0 1-2.986667 7.253333z" fill="#3ECDFF" /><path d="M773.376 939.861333l-25.6-0.768a4.181333 4.181333 0 0 1-4.096-4.352 4.266667 4.266667 0 0 1 4.352-4.096l25.6 0.768a4.352 4.352 0 0 1 4.181333 4.352 4.266667 4.266667 0 0 1-4.437333 4.096z" fill="#3ECDFF" /><path d="M748.714667 964.266667a4.266667 4.266667 0 0 1-4.181334-4.096l-0.768-25.6a4.266667 4.266667 0 0 1 4.096-4.352 4.352 4.352 0 0 1 4.352 4.096l0.768 25.6a4.266667 4.266667 0 0 1-4.096 4.352zM678.997333 870.4a4.266667 4.266667 0 0 1-4.266666-4.096l-0.682667-25.6a4.181333 4.181333 0 0 1 4.096-4.352 4.266667 4.266667 0 0 1 4.352 4.096l0.768 25.6a4.352 4.352 0 0 1-4.181333 4.352z" fill="#3ECDFF" /><path d="M679.082667 870.4l-25.6-0.768a4.266667 4.266667 0 0 1-4.096-4.352 4.181333 4.181333 0 0 1 4.352-4.096l25.6 0.768a4.266667 4.266667 0 0 1 0 8.533333zM780.885333 904.533333H646.314667a4.266667 4.266667 0 0 1 0-8.533333h134.570666a4.266667 4.266667 0 0 1 0 8.533333z" fill="#3ECDFF" /><path d="M762.453333 904.533333a4.096 4.096 0 0 1-3.072-1.365333 4.181333 4.181333 0 0 1 0-5.973333l18.432-17.066667a4.266667 4.266667 0 0 1 5.802667 6.144l-18.432 17.066667a4.352 4.352 0 0 1-2.730667 1.194666z" fill="#3ECDFF" /><path d="M780.714667 921.6a4.266667 4.266667 0 0 1-2.901334-1.109333l-18.432-17.066667a4.266667 4.266667 0 1 1 5.802667-6.144l18.432 17.066667a4.266667 4.266667 0 0 1-2.901333 7.338666zM664.746667 904.533333a4.181333 4.181333 0 0 1-2.901334-1.194666l-18.432-17.066667a4.266667 4.266667 0 1 1 5.802667-6.144l18.432 17.066667a4.181333 4.181333 0 0 1 0 5.973333 4.096 4.096 0 0 1-2.901333 1.365333z" fill="#3ECDFF" /><path d="M646.485333 921.6a4.181333 4.181333 0 0 1-3.072-1.28 4.266667 4.266667 0 0 1 0-6.058667l18.432-17.066666a4.181333 4.181333 0 1 1 5.717334 6.144l-18.346667 17.066666a4.266667 4.266667 0 0 1-2.730667 1.194667zM666.026667 952.149333a4.437333 4.437333 0 0 1-2.986667-1.194666 4.096 4.096 0 0 1 0-5.973334l95.146667-95.146666a4.096 4.096 0 0 1 5.973333 0 4.266667 4.266667 0 0 1 0 5.973333L669.013333 950.954667a4.437333 4.437333 0 0 1-2.986666 1.194666z" fill="#3ECDFF" /><path d="M748.117333 870.4a4.181333 4.181333 0 0 1-4.096-4.352l0.682667-25.6a4.096 4.096 0 0 1 4.437333-4.181333 4.352 4.352 0 0 1 4.096 4.437333l-0.768 25.6a4.266667 4.266667 0 0 1-4.352 4.096z" fill="#3ECDFF" /><path d="M748.032 870.4a4.266667 4.266667 0 0 1-4.266667-4.096 4.352 4.352 0 0 1 4.181334-4.352l25.6-0.768a4.352 4.352 0 0 1 4.352 4.096 4.181333 4.181333 0 0 1-4.096 4.352l-25.6 0.768zM653.738667 939.946667a4.266667 4.266667 0 0 1 0-8.533334l25.6-0.682666a4.096 4.096 0 0 1 4.352 4.096 4.266667 4.266667 0 0 1-4.096 4.352l-25.6 0.768z" fill="#3ECDFF" /><path d="M678.4 964.266667a4.352 4.352 0 0 1-4.181333-4.352l0.768-25.6a4.096 4.096 0 0 1 4.352-4.181334 4.181333 4.181333 0 0 1 4.096 4.352l-0.682667 25.6a4.266667 4.266667 0 0 1-4.352 4.181334z" fill="#3ECDFF" /></svg>