<?xml version="1.0" standalone="no"?><!DOCTYPE svg PUBLIC "-//W3C//DTD SVG 1.1//EN" "http://www.w3.org/Graphics/SVG/1.1/DTD/svg11.dtd"><svg class="icon" width="128px" height="128.00px" viewBox="0 0 1024 1024" version="1.1" xmlns="http://www.w3.org/2000/svg"><path fill="#1296db" d="M244.224 896.682667a11.52 11.52 0 0 1-11.52-11.605334V594.261333a11.52 11.52 0 0 1 23.04 0v290.816a11.605333 11.605333 0 0 1-11.52 11.605334z"  /><path fill="#1296db" d="M281.6 896.682667a11.605333 11.605333 0 0 1-8.533333-3.669334L235.776 853.333333a11.52 11.52 0 0 1 17.066667-15.872L290.133333 877.226667a11.605333 11.605333 0 0 1-8.533333 19.456z"  /><path fill="#1296db" d="M206.677333 896a11.264 11.264 0 0 1-7.850666-3.157333 11.52 11.52 0 0 1-0.512-16.298667l37.461333-39.765333a11.52 11.52 0 0 1 17.066667 15.786666l-37.461334 39.850667a11.690667 11.690667 0 0 1-8.704 3.584zM244.224 645.632a11.605333 11.605333 0 0 1-8.533333-19.456L273.066667 586.325333a11.52 11.52 0 0 1 17.066666 15.872l-37.546666 39.765334a11.434667 11.434667 0 0 1-8.362667 3.669333z"  /><path fill="#1296db" d="M244.224 645.888a11.690667 11.690667 0 0 1-8.533333-3.584l-37.376-39.850667a11.52 11.52 0 1 1 17.066666-15.786666l37.461334 39.765333a11.52 11.52 0 0 1-0.512 16.298667 11.264 11.264 0 0 1-8.106667 3.157333zM347.050667 854.101333a11.776 11.776 0 0 1-8.533334-3.413333l-205.653333-205.653333a11.52 11.52 0 1 1 16.298667-16.298667l205.653333 205.653333a11.605333 11.605333 0 0 1-8.106667 19.712z"  /><path fill="#1296db" d="M373.589333 827.733333l-54.698666-1.621333a11.605333 11.605333 0 0 1 0.682666-23.125333l54.698667 1.621333a11.605333 11.605333 0 0 1 0 23.125333z"  /><path fill="#1296db" d="M320.256 880.384a11.605333 11.605333 0 0 1-11.52-11.264l-1.536-54.613333a11.605333 11.605333 0 0 1 23.125333-0.682667l1.621334 54.698667a11.605333 11.605333 0 0 1-11.178667 11.861333zM169.472 676.522667A11.605333 11.605333 0 0 1 157.952 665.6l-1.621333-54.698667a11.605333 11.605333 0 0 1 11.178666-11.861333A12.202667 12.202667 0 0 1 179.2 609.962667l1.621333 54.698666a11.605333 11.605333 0 0 1-11.178666 11.861334z"  /><path fill="#1296db" d="M169.728 676.778667l-54.698667-1.621334a11.690667 11.690667 0 0 1-11.178666-11.946666 11.776 11.776 0 0 1 11.861333-11.178667l54.698667 1.621333a11.605333 11.605333 0 0 1 0 23.125334zM389.717333 750.933333H98.901333a11.605333 11.605333 0 0 1 0-23.125333h290.816a11.605333 11.605333 0 1 1 0 23.125333z"  /><path fill="#1296db" d="M349.866667 750.933333a11.178667 11.178667 0 0 1-8.533334-3.669333 11.52 11.52 0 0 1 0-16.298667l39.850667-37.461333a11.52 11.52 0 1 1 15.786667 17.066667l-39.850667 37.546666A11.264 11.264 0 0 1 349.866667 750.933333z"  /><path fill="#1296db" d="M389.461333 788.821333a11.690667 11.690667 0 0 1-7.936-3.157333l-39.765333-37.546667a11.52 11.52 0 1 1 15.786667-17.066666l39.765333 37.546666a11.52 11.52 0 0 1-7.850667 19.968zM138.666667 750.933333a11.605333 11.605333 0 0 1-7.936-3.157333l-39.765334-37.546667a11.52 11.52 0 1 1 15.872-17.066666l39.765334 37.461333a11.605333 11.605333 0 0 1 0.512 16.298667 11.434667 11.434667 0 0 1-8.448 4.010666z"  /><path fill="#1296db" d="M99.157333 788.821333a11.776 11.776 0 0 1-8.533333-3.669333 11.52 11.52 0 0 1 0.512-16.298667l39.765333-37.546666a11.52 11.52 0 0 1 15.872 17.066666l-39.850666 37.546667a11.690667 11.690667 0 0 1-7.765334 2.901333zM141.482667 854.101333a11.434667 11.434667 0 0 1-8.533334-3.413333 11.605333 11.605333 0 0 1 0-16.298667l205.738667-205.653333a11.52 11.52 0 1 1 16.298667 16.298667l-205.653334 205.653333a11.434667 11.434667 0 0 1-7.850666 3.413333z"  /><path fill="#1296db" d="M319.061333 676.608a11.690667 11.690667 0 0 1-11.861333-11.946667l1.621333-54.613333a11.690667 11.690667 0 0 1 11.861334-11.178667 11.434667 11.434667 0 0 1 11.178666 11.861334L330.496 665.6a11.52 11.52 0 0 1-11.434667 11.008z"  /><path fill="#1296db" d="M318.805333 676.778667a11.52 11.52 0 0 1 0-23.04l54.613334-1.621334a11.52 11.52 0 1 1 0.682666 23.04l-54.613333 1.621334zM114.944 827.733333a11.52 11.52 0 0 1 0-23.04l54.698667-1.621333a11.349333 11.349333 0 0 1 11.861333 11.178667 11.52 11.52 0 0 1-11.178667 11.861333l-55.04 1.621333z"  /><path fill="#1296db" d="M168.192 880.384a11.52 11.52 0 0 1-11.178667-11.861333l1.621334-54.698667a11.690667 11.690667 0 0 1 11.861333-11.178667 11.52 11.52 0 0 1 11.178667 11.861334l-1.621334 54.698666a11.52 11.52 0 0 1-11.861333 11.178667zM508.586667 435.2a11.605333 11.605333 0 0 1-11.52-11.52V133.034667a11.605333 11.605333 0 0 1 23.125333 0v290.901333A11.605333 11.605333 0 0 1 508.586667 435.2z"  /><path fill="#1296db" d="M546.133333 435.2a11.776 11.776 0 0 1-8.533333-3.669333l-37.461333-39.765334a11.52 11.52 0 0 1 17.066666-15.872l37.461334 40.106667a11.52 11.52 0 0 1-0.512 16.298667A11.605333 11.605333 0 0 1 546.133333 435.2z"  /><path fill="#1296db" d="M471.125333 435.2a11.264 11.264 0 0 1-7.936-3.157333 11.605333 11.605333 0 0 1-0.512-16.298667l37.546667-39.765333a11.52 11.52 0 0 1 17.066667 15.786666l-37.546667 39.850667a11.349333 11.349333 0 0 1-8.618667 3.584zM508.586667 184.405333a11.605333 11.605333 0 0 1-7.850667-3.157333 11.52 11.52 0 0 1-0.512-16.298667L537.6 125.098667a11.52 11.52 0 0 1 17.066667 15.872l-37.461334 39.765333a11.776 11.776 0 0 1-8.618666 3.669333z"  /><path fill="#1296db" d="M508.586667 184.661333a11.52 11.52 0 0 1-8.533334-3.584l-37.546666-39.850666a11.52 11.52 0 0 1 17.066666-15.786667l37.546667 39.765333a11.605333 11.605333 0 0 1-0.512 16.298667 11.264 11.264 0 0 1-8.021333 3.157333zM611.413333 392.533333a11.605333 11.605333 0 0 1-8.533333-3.413333L397.653333 183.808a11.52 11.52 0 0 1 16.298667-16.298667l205.653333 205.653334a11.52 11.52 0 0 1 0 16.298666 11.605333 11.605333 0 0 1-8.192 3.072z"  /><path fill="#1296db" d="M637.952 366.336l-54.613333-1.621333A11.605333 11.605333 0 0 1 583.68 341.333333l54.613333 1.621334a11.605333 11.605333 0 0 1 0 23.125333z"  /><path fill="#1296db" d="M584.704 419.157333a11.52 11.52 0 0 1-11.52-11.178666L571.733333 353.28a11.52 11.52 0 0 1 11.008-11.946667 11.776 11.776 0 0 1 11.861334 11.178667l1.621333 54.698667a11.605333 11.605333 0 0 1-11.178667 11.861333zM433.92 215.296a11.52 11.52 0 0 1-11.52-11.178667l-1.621333-54.698666a11.52 11.52 0 0 1 11.178666-11.861334A12.032 12.032 0 0 1 443.733333 148.736l1.621334 54.698667a11.52 11.52 0 0 1-11.178667 11.861333z"  /><path fill="#1296db" d="M434.176 215.552l-54.698667-1.621333a11.605333 11.605333 0 0 1-11.178666-11.861334 11.861333 11.861333 0 0 1 11.861333-11.264l54.613333 1.621334a11.605333 11.605333 0 0 1 0 23.125333zM654.165333 290.133333H363.264a11.52 11.52 0 1 1 0-23.04h290.901333a11.52 11.52 0 1 1 0 23.04z"  /><path fill="#1296db" d="M614.4 290.133333a11.52 11.52 0 0 1-7.850667-19.968l39.765334-37.461333a11.52 11.52 0 0 1 15.786666 17.066667l-39.765333 37.461333A11.264 11.264 0 0 1 614.4 290.133333z"  /><path fill="#1296db" d="M653.824 327.594667a12.032 12.032 0 0 1-7.936-3.157334L605.866667 286.890667a11.52 11.52 0 1 1 15.872-17.066667l39.765333 37.546667a11.605333 11.605333 0 0 1 0.768 16.896 11.776 11.776 0 0 1-8.448 3.328zM403.114667 290.133333a11.264 11.264 0 0 1-7.936-3.157333l-39.765334-37.461333a11.52 11.52 0 0 1 15.786667-17.066667l39.765333 37.461333a11.52 11.52 0 0 1 0.512 16.298667 11.264 11.264 0 0 1-8.362666 3.925333z"  /><path fill="#1296db" d="M363.605333 327.594667a11.605333 11.605333 0 0 1-7.936-19.968l39.850667-37.546667a11.52 11.52 0 0 1 15.786667 17.066667L371.541333 324.266667a12.032 12.032 0 0 1-7.936 3.328zM405.845333 392.533333a11.264 11.264 0 0 1-8.533333-3.413333 11.52 11.52 0 0 1 0-16.298667l205.653333-205.653333a11.52 11.52 0 0 1 16.298667 16.298667l-205.653333 205.653333a11.264 11.264 0 0 1-7.765334 3.413333z"  /><path fill="#1296db" d="M583.424 215.381333A11.605333 11.605333 0 0 1 571.733333 203.52l1.621334-54.698667a11.861333 11.861333 0 0 1 11.861333-11.178666 11.52 11.52 0 0 1 11.178667 11.861333l-1.621334 54.698667a11.52 11.52 0 0 1-11.349333 11.178666z"  /><path fill="#1296db" d="M583.168 215.552a11.52 11.52 0 0 1 0-23.04l54.698667-1.621333a11.52 11.52 0 1 1 0.682666 23.04l-54.698666 1.621333zM379.392 366.336a11.52 11.52 0 0 1 0-23.04l54.613333-1.621333a11.52 11.52 0 1 1 0.682667 23.04l-54.613333 1.621333z"  /><path fill="#1296db" d="M432.64 419.157333a11.434667 11.434667 0 0 1-11.178667-11.861333l1.621334-54.613333a11.52 11.52 0 1 1 23.04 0.682666l-1.621334 54.613334a11.52 11.52 0 0 1-11.861333 11.178666zM779.605333 902.485333a11.52 11.52 0 0 1-11.605333-11.52V600.149333a11.605333 11.605333 0 1 1 23.125333 0v290.816a11.52 11.52 0 0 1-11.52 11.52z"  /><path fill="#1296db" d="M817.066667 902.485333a11.349333 11.349333 0 0 1-8.533334-3.584l-37.546666-39.850666a11.52 11.52 0 0 1 17.066666-15.786667l37.461334 39.765333a11.52 11.52 0 0 1-8.533334 19.456z"  /><path fill="#1296db" d="M742.4 902.229333a12.032 12.032 0 0 1-7.936-3.157333 11.605333 11.605333 0 0 1 0-16.298667l37.461333-39.850666a11.52 11.52 0 0 1 17.066667 15.872l-37.546667 39.765333a11.434667 11.434667 0 0 1-9.045333 3.669333zM779.605333 651.434667a11.264 11.264 0 0 1-7.936-3.157334 11.605333 11.605333 0 0 1-0.512-16.298666l37.546667-39.765334a11.52 11.52 0 1 1 17.066667 15.786667l-37.461334 39.850667a11.52 11.52 0 0 1-8.704 3.584z"  /><path fill="#1296db" d="M779.605333 651.776a11.434667 11.434667 0 0 1-8.533333-3.669333L733.866667 608.341333a11.52 11.52 0 1 1 17.066666-15.872l37.546667 39.850667a11.52 11.52 0 0 1-1.024 16.213333 11.264 11.264 0 0 1-7.850667 3.242667zM882.432 859.904a11.264 11.264 0 0 1-8.533333-3.413333l-205.653334-205.653334a11.52 11.52 0 0 1 0-16.298666 11.605333 11.605333 0 0 1 16.298667 0l205.653333 205.653333a11.52 11.52 0 0 1 0 16.298667 11.264 11.264 0 0 1-7.765333 3.413333z"  /><path fill="#1296db" d="M908.970667 833.365333l-54.613334-1.621333a11.434667 11.434667 0 0 1-11.178666-11.861333 11.776 11.776 0 0 1 11.861333-11.178667l54.613333 1.621333a11.52 11.52 0 0 1 0 23.04z"  /><path fill="#1296db" d="M855.637333 886.186667a11.52 11.52 0 0 1-11.52-11.178667l-1.621333-54.613333a11.690667 11.690667 0 0 1 11.178667-11.946667 11.52 11.52 0 0 1 11.861333 11.264l1.621333 54.613333a11.434667 11.434667 0 0 1-11.178666 11.861334zM704.853333 682.666667a11.605333 11.605333 0 0 1-11.52-11.178667l-1.621333-54.698667a11.52 11.52 0 0 1 11.178667-11.861333 11.861333 11.861333 0 0 1 11.861333 11.178667l2.048 54.442666A11.52 11.52 0 0 1 705.194667 682.666667z"  /><path fill="#1296db" d="M705.109333 682.666667l-54.698666-1.621334a11.52 11.52 0 0 1 0.682666-23.04l54.698667 1.621334a11.52 11.52 0 0 1 0 23.04zM925.098667 757.162667H634.282667a11.605333 11.605333 0 1 1 0-23.125334h290.816a11.605333 11.605333 0 0 1 0 23.125334z"  /><path fill="#1296db" d="M885.333333 757.162667a11.776 11.776 0 0 1-8.533333-3.669334 11.605333 11.605333 0 0 1 0.512-16.298666l39.850667-37.546667a11.52 11.52 0 1 1 15.786666 17.066667l-39.850666 37.546666a11.605333 11.605333 0 0 1-7.765334 2.901334z"  /><path fill="#1296db" d="M924.842667 794.624a11.264 11.264 0 0 1-7.936-3.157333l-39.850667-37.461334a11.52 11.52 0 0 1 15.872-17.066666l39.765333 37.461333a11.52 11.52 0 0 1-7.850666 19.968zM674.133333 757.162667a11.861333 11.861333 0 0 1-7.936-3.157334L626.346667 716.8a11.52 11.52 0 0 1 15.786666-17.066667l39.850667 37.546667a11.605333 11.605333 0 0 1-7.850667 19.882667z"  /><path fill="#1296db" d="M634.538667 794.624a11.178667 11.178667 0 0 1-8.533334-3.669333 11.52 11.52 0 0 1 0.512-16.298667l39.765334-37.461333a11.52 11.52 0 1 1 15.786666 17.066666l-39.765333 37.461334a11.264 11.264 0 0 1-7.765333 2.901333zM676.864 859.989333a11.776 11.776 0 0 1-8.533333-3.413333 11.52 11.52 0 0 1 0-16.298667l205.653333-205.653333a11.52 11.52 0 0 1 16.384 16.298667l-205.738667 205.653333a11.605333 11.605333 0 0 1-7.765333 3.413333z"  /><path fill="#1296db" d="M854.357333 682.666667a11.52 11.52 0 0 1-11.178666-11.861334l1.621333-54.613333a11.776 11.776 0 0 1 11.861333-11.264 11.52 11.52 0 0 1 11.178667 11.861333l-1.621333 54.698667a11.52 11.52 0 0 1-11.861334 11.178667z"  /><path fill="#1296db" d="M854.101333 682.666667a11.605333 11.605333 0 0 1 0-23.125334l54.613334-1.621333a11.605333 11.605333 0 0 1 0.682666 23.125333l-54.613333 1.621334zM650.325333 833.450667a11.52 11.52 0 0 1 0-23.04l54.698667-1.621334A11.946667 11.946667 0 0 1 716.8 819.968a11.605333 11.605333 0 0 1-11.178667 11.861333l-54.698666 1.621334z"  /><path fill="#1296db" d="M703.573333 886.272a11.52 11.52 0 0 1-11.178666-11.861333l1.621333-54.698667a11.52 11.52 0 1 1 23.04 0.682667l-1.621333 54.698666a11.52 11.52 0 0 1-11.861334 11.178667z"  /></svg>