<?xml version="1.0" standalone="no"?><!DOCTYPE svg PUBLIC "-//W3C//DTD SVG 1.1//EN" "http://www.w3.org/Graphics/SVG/1.1/DTD/svg11.dtd"><svg class="icon" width="128px" height="128.00px" viewBox="0 0 1024 1024" version="1.1" xmlns="http://www.w3.org/2000/svg"><path fill="#1296db" d="M88.405333 699.221333a30.890667 30.890667 0 0 1-10.581333-59.733333c2.56-0.938667 256-94.549333 394.410667-220.928C608 294.229333 664.661333 48.725333 665.6 46.250667A30.890667 30.890667 0 1 1 725.333333 59.733333c-2.474667 10.837333-61.696 267.008-211.626666 404.138667C366.933333 598.698667 109.824 693.333333 98.986667 697.344a30.805333 30.805333 0 0 1-10.581334 1.877333zM302.421333 937.898667a30.890667 30.890667 0 0 1-10.581333-59.733334c2.56-0.938667 256-94.549333 394.410667-220.928C822.016 532.906667 878.933333 287.402667 878.933333 284.928a30.890667 30.890667 0 0 1 60.586667 13.738667c-2.474667 10.837333-61.696 267.008-211.626667 404.053333C580.266667 837.376 324.266667 932.010667 313.002667 936.021333a30.805333 30.805333 0 0 1-10.581334 1.877334z"  /><path fill="#1296db" d="M805.546667 218.709333m-21.76 0a21.76 21.76 0 1 0 43.52 0 21.76 21.76 0 1 0-43.52 0Z"  /><path fill="#1296db" d="M171.776 821.589333m-21.76 0a21.76 21.76 0 1 0 43.52 0 21.76 21.76 0 1 0-43.52 0Z"  /><path fill="#1296db" d="M671.402667 458.837333m-43.605334 0a43.605333 43.605333 0 1 0 87.210667 0 43.605333 43.605333 0 1 0-87.210667 0Z"  /><path fill="#1296db" d="M417.450667 700.416m-43.605334 0a43.605333 43.605333 0 1 0 87.210667 0 43.605333 43.605333 0 1 0-87.210667 0Z"  /><path fill="#1296db" d="M283.818667 371.712m-43.605334 0a43.605333 43.605333 0 1 0 87.210667 0 43.605333 43.605333 0 1 0-87.210667 0Z"  /><path fill="#1296db" d="M466.517333 207.957333m-21.76 0a21.76 21.76 0 1 0 43.52 0 21.76 21.76 0 1 0-43.52 0Z"  /><path fill="#1296db" d="M785.322667 799.744m-43.605334 0a43.605333 43.605333 0 1 0 87.210667 0 43.605333 43.605333 0 1 0-87.210667 0Z"  /><path fill="#1296db" d="M944.725333 524.288m-21.76 0a21.76 21.76 0 1 0 43.52 0 21.76 21.76 0 1 0-43.52 0Z"  /><path fill="#1296db" d="M461.056 980.053333m-21.76 0a21.76 21.76 0 1 0 43.52 0 21.76 21.76 0 1 0-43.52 0Z"  /></svg>