<?xml version="1.0" standalone="no"?><!DOCTYPE svg PUBLIC "-//W3C//DTD SVG 1.1//EN" "http://www.w3.org/Graphics/SVG/1.1/DTD/svg11.dtd"><svg class="icon" width="128px" height="128.00px" viewBox="0 0 1024 1024" version="1.1" xmlns="http://www.w3.org/2000/svg"><path fill="#1296db" d="M266.325333 694.528C117.674667 694.528 1.28 611.498667 1.28 505.6S117.674667 316.586667 266.325333 316.586667s265.045333 83.029333 265.045334 189.013333-116.394667 188.928-265.045334 188.928z m0-309.333333c-106.496 0-196.266667 55.125333-196.266666 120.405333s90.026667 120.405333 196.266666 120.405333 196.266667-55.210667 196.266667-120.405333-89.770667-120.405333-196.266667-120.405333z"  /><path fill="#1296db" d="M757.674667 694.528c-148.650667 0-265.045333-83.029333-265.045334-188.928S609.024 316.586667 757.674667 316.586667s265.045333 83.029333 265.045333 189.013333-116.394667 188.928-265.045333 188.928z m0-309.333333c-106.496 0-196.266667 55.125333-196.266667 120.405333s89.941333 120.405333 196.266667 120.405333 196.266667-55.210667 196.266666-120.405333-89.770667-120.405333-196.266666-120.405333z"  /><path fill="#1296db" d="M83.968 193.962667m-48.384 0a48.384 48.384 0 1 0 96.768 0 48.384 48.384 0 1 0-96.768 0Z"  /><path fill="#1296db" d="M940.032 193.962667m-48.384 0a48.384 48.384 0 1 0 96.768 0 48.384 48.384 0 1 0-96.768 0Z"  /><path fill="#1296db" d="M369.322667 216.832m-48.384 0a48.384 48.384 0 1 0 96.768 0 48.384 48.384 0 1 0-96.768 0Z"  /><path fill="#1296db" d="M654.677333 216.832m-48.384 0a48.384 48.384 0 1 0 96.768 0 48.384 48.384 0 1 0-96.768 0Z"  /><path fill="#1296db" d="M83.882667 830.037333m-48.384 0a48.384 48.384 0 1 0 96.768 0 48.384 48.384 0 1 0-96.768 0Z"  /><path fill="#1296db" d="M940.032 830.037333m-48.384 0a48.384 48.384 0 1 0 96.768 0 48.384 48.384 0 1 0-96.768 0Z"  /><path fill="#1296db" d="M369.322667 807.168m-48.384 0a48.384 48.384 0 1 0 96.768 0 48.384 48.384 0 1 0-96.768 0Z"  /><path fill="#1296db" d="M654.677333 807.168m-48.384 0a48.384 48.384 0 1 0 96.768 0 48.384 48.384 0 1 0-96.768 0Z"  /></svg>