<?xml version="1.0" standalone="no"?><!DOCTYPE svg PUBLIC "-//W3C//DTD SVG 1.1//EN" "http://www.w3.org/Graphics/SVG/1.1/DTD/svg11.dtd"><svg class="icon" width="128px" height="128.00px" viewBox="0 0 1024 1024" version="1.1" xmlns="http://www.w3.org/2000/svg"><path d="M278.954667 440.32m-173.482667 0a173.482667 173.482667 0 1 0 346.965333 0 173.482667 173.482667 0 1 0-346.965333 0Z" fill="#FFBF44" /><path d="M540.074667 457.557333H492.373333a17.066667 17.066667 0 0 1 0-34.133333h47.701334a17.066667 17.066667 0 0 1 0 34.133333zM463.786667 350.805333a17.066667 17.066667 0 0 1-8.533334-32.085333l41.301334-23.808a17.066667 17.066667 0 1 1 17.066666 29.781333l-41.301333 23.808a16.554667 16.554667 0 0 1-8.533333 2.304zM385.621333 273.066667a17.066667 17.066667 0 0 1-14.848-25.6l23.808-41.301334a17.066667 17.066667 0 0 1 29.866667 17.066667L400.554667 264.533333a17.066667 17.066667 0 0 1-14.933334 8.533334zM278.954667 244.138667a17.066667 17.066667 0 0 1-17.066667-17.066667V179.2a17.066667 17.066667 0 0 1 34.133333 0v47.701333a17.066667 17.066667 0 0 1-17.066666 17.237334zM172.288 273.066667a17.066667 17.066667 0 0 1-14.933333-8.533334l-23.893334-41.301333a17.066667 17.066667 0 0 1 29.866667-17.066667L187.136 247.466667a17.066667 17.066667 0 0 1-14.848 25.6zM93.866667 350.805333a16.554667 16.554667 0 0 1-8.533334-2.304l-41.130666-23.808a17.066667 17.066667 0 1 1 17.066666-29.781333L102.4 318.72a17.066667 17.066667 0 0 1-8.533333 32.085333zM65.536 457.557333H17.834667a17.066667 17.066667 0 0 1 0-34.133333h47.701333a17.066667 17.066667 0 0 1 0 34.133333zM52.821333 588.117333a17.066667 17.066667 0 0 1-8.533333-32.170666L85.333333 532.138667a17.066667 17.066667 0 1 1 17.066667 29.866666l-40.96 23.808a17.066667 17.066667 0 0 1-8.618667 2.304zM148.394667 683.690667a17.664 17.664 0 0 1-8.533334-2.304 17.066667 17.066667 0 0 1-6.314666-23.552l23.893333-41.301334a17.066667 17.066667 0 0 1 29.781333 17.066667l-23.808 41.301333a17.066667 17.066667 0 0 1-15.018666 8.789334zM278.954667 718.677333a17.066667 17.066667 0 0 1-17.066667-17.066666v-47.786667a17.066667 17.066667 0 1 1 34.133333 0v47.616a17.066667 17.066667 0 0 1-17.066666 17.237333zM409.6 683.690667a17.066667 17.066667 0 0 1-14.933333-8.533334l-23.808-41.301333a17.066667 17.066667 0 0 1 29.781333-17.066667l23.893333 41.301334a17.066667 17.066667 0 0 1-6.4 23.296 17.664 17.664 0 0 1-8.533333 2.304zM505.088 588.117333a17.664 17.664 0 0 1-8.533333-2.304l-41.301334-23.808a17.066667 17.066667 0 0 1 17.066667-29.866666l41.301333 23.808a17.066667 17.066667 0 0 1-8.533333 32.170666z" fill="#FFBF44" /><path d="M812.544 440.234667a211.882667 211.882667 0 0 0-41.301333 4.096 270.933333 270.933333 0 0 0-526.592 39.253333h-10.069334v1.536a189.184 189.184 0 0 0 0 375.466667v1.28h577.962667a210.858667 210.858667 0 1 0 0-421.717334z" fill="#FFFFFF" /></svg>