<?xml version="1.0" standalone="no"?><!DOCTYPE svg PUBLIC "-//W3C//DTD SVG 1.1//EN" "http://www.w3.org/Graphics/SVG/1.1/DTD/svg11.dtd"><svg class="icon" width="128px" height="128.00px" viewBox="0 0 1024 1024" version="1.1" xmlns="http://www.w3.org/2000/svg"><path d="M921.088 378.282667c-145.066667 0-261.888-109.994667-261.888-245.76a232.789333 232.789333 0 0 1 28.074667-110.933334C590.165333 57.685333 521.386667 146.432 521.386667 250.453333c0 135.765333 117.248 245.76 261.888 245.76a264.533333 264.533333 0 0 0 233.728-134.997333 275.541333 275.541333 0 0 1-95.914667 17.066667z" fill="#FFBF44" /><path d="M709.12 392.021333a209.834667 209.834667 0 0 0-38.997333 3.584c-32.256-98.048-129.536-169.216-244.565334-169.216-128 0-234.496 88.490667-253.098666 204.032H162.986667v1.450667C75.008 442.368 6.997333 512.853333 6.997333 598.272s68.266667 155.904 155.989334 166.4v1.450667h546.133333c110.08 0 199.338667-83.797333 199.338667-187.050667S819.2 392.021333 709.12 392.021333z" fill="#FFFFFF" /><path d="M426.666667 958.464a46.762667 46.762667 0 0 1-93.354667 0c0-24.149333 46.677333-116.650667 46.677333-116.650667S426.666667 934.314667 426.666667 958.464zM539.562667 885.674667a33.109333 33.109333 0 0 1-66.048 0c0-17.066667 33.024-82.517333 33.024-82.517334s33.024 65.450667 33.024 82.517334z" fill="#3ECDFF" /></svg>