<?xml version="1.0" standalone="no"?><!DOCTYPE svg PUBLIC "-//W3C//DTD SVG 1.1//EN" "http://www.w3.org/Graphics/SVG/1.1/DTD/svg11.dtd"><svg class="icon" width="128px" height="128.00px" viewBox="0 0 1024 1024" version="1.1" xmlns="http://www.w3.org/2000/svg"><path d="M539.136 930.133333a37.12 37.12 0 0 1-74.24 0c0-20.48 37.12-98.816 37.12-98.816s37.12 78.08 37.12 98.816zM858.88 860.074667a37.12 37.12 0 0 1-74.24 0c0-20.48 37.12-98.816 37.12-98.816s37.12 78.336 37.12 98.816zM219.392 860.074667a37.12 37.12 0 1 1-74.154667 0c0-20.48 37.034667-98.816 37.034667-98.816s37.12 78.336 37.12 98.816z" fill="#3ECDFF" /><path d="M794.624 255.317333a224.853333 224.853333 0 0 0-43.861333 4.352 287.829333 287.829333 0 0 0-559.445334 41.728h-10.581333v1.706667a200.96 200.96 0 0 0 0 398.592v1.621333h613.888a224 224 0 0 0 0-448z" fill="#FFFFFF" /><path d="M661.845333 928a2.474667 2.474667 0 0 1-2.389333-2.474667v-102.4a2.474667 2.474667 0 0 1 2.389333-2.389333 2.389333 2.389333 0 0 1 2.389334 2.389333v102.4a2.389333 2.389333 0 0 1-2.389334 2.474667z" fill="#3ECDFF" /><path d="M675.072 928a2.304 2.304 0 0 1-1.706667-0.768L660.138667 913.066667a2.304 2.304 0 0 1 0-3.413334 2.389333 2.389333 0 0 1 3.413333 0l13.226667 14.08a2.389333 2.389333 0 0 1 0 3.413334 2.730667 2.730667 0 0 1-1.706667 0.853333z" fill="#3ECDFF" /><path d="M648.533333 927.829333a2.218667 2.218667 0 0 1-1.621333-0.597333 2.56 2.56 0 0 1 0-3.498667l13.312-13.994666a2.304 2.304 0 0 1 3.413333 0 2.474667 2.474667 0 0 1 0 3.413333l-13.226666 13.994667a2.56 2.56 0 0 1-1.877334 0.682666zM661.845333 839.338667a2.474667 2.474667 0 0 1-1.706666-4.096l13.226666-14.08a2.389333 2.389333 0 1 1 3.498667 3.328l-13.226667 14.08a2.474667 2.474667 0 0 1-1.792 0.768z" fill="#3ECDFF" /><path d="M661.845333 839.424a2.304 2.304 0 0 1-1.706666-0.768l-13.312-14.08a2.474667 2.474667 0 0 1 3.584-3.328l13.226666 14.08a2.474667 2.474667 0 0 1 0 3.413333 2.730667 2.730667 0 0 1-1.792 0.682667zM698.197333 913.066667a2.56 2.56 0 0 1-1.706666-0.682667l-72.618667-72.618667a2.304 2.304 0 0 1 0-3.413333 2.389333 2.389333 0 0 1 3.413333 0L699.733333 908.8a2.389333 2.389333 0 0 1 0 3.413333 2.730667 2.730667 0 0 1-1.536 0.853334z" fill="#3ECDFF" /><path d="M707.584 903.509333l-19.370667-0.512a2.474667 2.474667 0 0 1-2.304-2.474666 2.304 2.304 0 0 1 2.474667-2.389334l19.285333 0.597334a2.389333 2.389333 0 1 1 0 4.778666z" fill="#3ECDFF" /><path d="M688.725333 922.197333a2.389333 2.389333 0 0 1-2.389333-2.304l-0.597333-19.370666a2.474667 2.474667 0 0 1 2.304-2.474667 2.56 2.56 0 0 1 2.56 2.389333l0.512 19.285334a2.304 2.304 0 0 1-2.304 2.474666zM635.477333 850.261333a2.474667 2.474667 0 0 1-2.389333-2.389333l-0.597333-19.285333a2.389333 2.389333 0 0 1 2.304-2.474667 2.389333 2.389333 0 0 1 2.56 2.304l0.512 19.285333a2.389333 2.389333 0 0 1-2.304 2.56z" fill="#3ECDFF" /><path d="M635.562667 850.261333l-19.285334-0.512a2.474667 2.474667 0 0 1-2.389333-2.474666 2.56 2.56 0 0 1 2.56-2.389334l19.285333 0.597334a2.304 2.304 0 0 1 2.304 2.474666 2.389333 2.389333 0 0 1-2.474666 2.304zM713.216 876.629333h-102.4a2.474667 2.474667 0 1 1 0-4.864h102.4a2.474667 2.474667 0 1 1 0 4.864z" fill="#3ECDFF" /><path d="M699.221333 876.629333a2.474667 2.474667 0 0 1-1.792-0.768 2.389333 2.389333 0 0 1 0-3.413333l14.08-13.226667a2.389333 2.389333 0 0 1 3.413334 0 2.389333 2.389333 0 0 1 0 3.413334l-14.08 13.226666a2.304 2.304 0 0 1-1.621334 0.768z" fill="#3ECDFF" /><path d="M713.130667 889.856a2.304 2.304 0 0 1-1.621334-0.682667l-14.08-13.226666a2.389333 2.389333 0 0 1 3.328-3.498667l14.08 13.226667a2.474667 2.474667 0 0 1 0 3.413333 2.474667 2.474667 0 0 1-1.706666 0.768zM624.554667 876.629333a2.304 2.304 0 0 1-1.621334-0.682666l-14.08-13.226667a2.389333 2.389333 0 0 1 0-3.413333 2.389333 2.389333 0 0 1 3.413334 0l14.08 13.226666a2.389333 2.389333 0 0 1 0 3.413334 2.474667 2.474667 0 0 1-1.792 0.682666z" fill="#3ECDFF" /><path d="M610.645333 889.856a2.56 2.56 0 0 1-1.792-0.768 2.389333 2.389333 0 0 1 0-3.413333l14.08-13.226667a2.389333 2.389333 0 0 1 3.413334 0 2.304 2.304 0 0 1 0 3.413333l-14.08 13.226667a2.304 2.304 0 0 1-1.621334 0.768zM625.578667 913.066667a2.304 2.304 0 0 1-1.706667-0.682667 2.389333 2.389333 0 0 1 0-3.413333L696.490667 836.266667a2.389333 2.389333 0 0 1 3.413333 3.413333l-72.618667 72.618667a2.218667 2.218667 0 0 1-1.706666 0.768z" fill="#3ECDFF" /><path d="M688.298667 850.261333a2.474667 2.474667 0 0 1-2.389334-2.474666l0.597334-19.370667a2.304 2.304 0 0 1 2.474666-2.304 2.389333 2.389333 0 0 1 2.389334 2.474667l-0.597334 19.285333a2.389333 2.389333 0 0 1-2.474666 2.389333z" fill="#3ECDFF" /><path d="M688.213333 850.346667a2.389333 2.389333 0 0 1-2.389333-2.389334 2.304 2.304 0 0 1 2.304-2.474666L707.413333 844.8a2.56 2.56 0 0 1 2.474667 2.389333 2.389333 2.389333 0 0 1-2.304 2.474667l-19.285333 0.597333zM616.192 903.594667a2.474667 2.474667 0 0 1 0-4.864l19.370667-0.597334a2.474667 2.474667 0 0 1 2.474666 2.389334 2.474667 2.474667 0 0 1-2.389333 2.474666l-19.285333 0.597334z" fill="#3ECDFF" /><path d="M635.050667 922.197333a2.389333 2.389333 0 0 1-2.389334-2.474666l0.597334-19.285334a2.474667 2.474667 0 1 1 4.864 0l-0.597334 19.285334a2.389333 2.389333 0 0 1-2.474666 2.474666zM342.101333 920.149333a2.474667 2.474667 0 0 1-2.389333-2.474666v-102.4a2.474667 2.474667 0 1 1 4.864 0v102.4a2.474667 2.474667 0 0 1-2.474667 2.474666z" fill="#3ECDFF" /><path d="M355.413333 920.149333a2.474667 2.474667 0 0 1-1.792-0.768l-13.226666-14.08a2.389333 2.389333 0 1 1 3.498666-3.328l13.226667 14.08a2.389333 2.389333 0 0 1 0 3.413334 2.474667 2.474667 0 0 1-1.706667 0.682666z" fill="#3ECDFF" /><path d="M328.874667 919.978667a2.218667 2.218667 0 0 1-1.621334-0.597334 2.389333 2.389333 0 0 1 0-3.413333l13.226667-14.08a2.389333 2.389333 0 0 1 3.498667 3.328l-13.226667 14.08a2.389333 2.389333 0 0 1-1.877333 0.682667zM342.101333 831.488a2.304 2.304 0 0 1-1.621333-0.682667 2.389333 2.389333 0 0 1 0-3.413333l13.226667-14.08a2.389333 2.389333 0 0 1 3.498666 3.328l-13.312 14.08a2.474667 2.474667 0 0 1-1.792 0.768z" fill="#3ECDFF" /><path d="M342.101333 831.573333a2.304 2.304 0 0 1-1.706666-0.768l-13.226667-14.08a2.389333 2.389333 0 0 1 0-3.413333 2.389333 2.389333 0 0 1 3.413333 0L343.893333 827.733333a2.389333 2.389333 0 0 1 0 3.413334 2.730667 2.730667 0 0 1-1.792 0.426666zM378.453333 905.045333a2.218667 2.218667 0 0 1-1.706666-0.682666l-72.618667-72.618667a2.389333 2.389333 0 0 1 3.413333-3.413333l72.618667 72.618666a2.389333 2.389333 0 0 1 0 3.413334 2.218667 2.218667 0 0 1-1.706667 0.682666z" fill="#3ECDFF" /><path d="M387.84 896l-19.285333-0.597333a2.389333 2.389333 0 0 1-2.389334-2.474667 2.474667 2.474667 0 0 1 2.474667-2.389333l19.370667 0.597333a2.474667 2.474667 0 0 1 2.304 2.474667 2.389333 2.389333 0 0 1-2.474667 2.389333z" fill="#3ECDFF" /><path d="M368.981333 914.346667a2.389333 2.389333 0 0 1-2.389333-2.304l-0.597333-19.285334a2.56 2.56 0 0 1 2.389333-2.56 2.56 2.56 0 0 1 2.474667 2.389334l0.597333 19.285333a2.389333 2.389333 0 0 1-2.389333 2.474667zM315.733333 842.410667a2.389333 2.389333 0 0 1-2.389333-2.389334l-0.597333-19.285333a2.474667 2.474667 0 0 1 4.864 0l0.597333 19.370667a2.474667 2.474667 0 0 1-2.389333 2.474666z" fill="#3ECDFF" /><path d="M315.733333 842.496l-19.285333-0.597333a2.304 2.304 0 0 1-2.304-2.474667 2.389333 2.389333 0 0 1 2.389333-2.389333l19.285334 0.597333a2.304 2.304 0 0 1 2.304 2.474667 2.304 2.304 0 0 1-2.389334 2.389333zM393.557333 868.778667h-102.4a2.474667 2.474667 0 0 1 0-4.864h102.4a2.474667 2.474667 0 0 1 0 4.864z" fill="#3ECDFF" /><path d="M379.477333 868.778667a2.474667 2.474667 0 0 1-1.792-0.768 2.389333 2.389333 0 0 1 0-3.413334l13.994667-13.226666a2.389333 2.389333 0 0 1 3.413333 0 2.304 2.304 0 0 1 0 3.413333l-14.08 13.226667a2.048 2.048 0 0 1-1.536 0.768z" fill="#3ECDFF" /><path d="M393.386667 882.005333a2.389333 2.389333 0 0 1-1.621334-0.597333l-14.08-13.312a2.389333 2.389333 0 0 1 3.328-3.498667l14.08 13.226667a2.389333 2.389333 0 0 1 0 3.413333 2.474667 2.474667 0 0 1-1.706666 0.768zM304.896 868.778667a2.304 2.304 0 0 1-1.706667-0.682667l-13.994666-13.226667a2.389333 2.389333 0 1 1 3.242666-3.498666l14.08 13.226666a2.389333 2.389333 0 0 1 0 3.413334 2.304 2.304 0 0 1-1.621333 0.768z" fill="#3ECDFF" /><path d="M290.901333 882.005333a2.304 2.304 0 0 1-1.706666-0.768 2.389333 2.389333 0 0 1 0-3.413333l14.08-13.226667a2.389333 2.389333 0 1 1 3.242666 3.498667l-13.994666 13.312a2.645333 2.645333 0 0 1-1.621334 0.597333zM305.834667 905.130667a2.474667 2.474667 0 0 1-1.706667-4.181334l72.618667-72.618666a2.389333 2.389333 0 0 1 3.413333 0 2.304 2.304 0 0 1 0 3.413333L307.2 904.533333a2.133333 2.133333 0 0 1-1.365333 0.597334z" fill="#3ECDFF" /><path d="M368.554667 842.410667a2.389333 2.389333 0 0 1-2.304-2.474667l0.682666-19.285333c0-1.365333 0.938667-2.645333 2.56-2.389334a2.474667 2.474667 0 0 1 2.304 2.474667l-0.597333 19.370667a2.389333 2.389333 0 0 1-2.645333 2.304z" fill="#3ECDFF" /><path d="M368.469333 842.496a2.389333 2.389333 0 0 1-2.389333-2.389333 2.474667 2.474667 0 0 1 2.304-2.474667l19.285333-0.512a2.645333 2.645333 0 0 1 2.56 2.304 2.389333 2.389333 0 0 1-2.389333 2.474667l-19.285333 0.597333zM296.533333 896a2.474667 2.474667 0 0 1-2.474666-2.389333 2.474667 2.474667 0 0 1 2.389333-2.474667l19.285333-0.597333a2.730667 2.730667 0 0 1 2.474667 2.389333 2.304 2.304 0 0 1-2.304 2.474667l-19.370667 0.597333z" fill="#3ECDFF" /><path d="M315.733333 914.432a2.389333 2.389333 0 0 1-2.304-2.56l0.512-19.285333a2.304 2.304 0 0 1 2.56-2.304 2.389333 2.389333 0 0 1 2.304 2.474666l-0.597333 19.285334a2.474667 2.474667 0 0 1-2.474667 2.389333z" fill="#3ECDFF" /></svg>