<?xml version="1.0" standalone="no"?><!DOCTYPE svg PUBLIC "-//W3C//DTD SVG 1.1//EN" "http://www.w3.org/Graphics/SVG/1.1/DTD/svg11.dtd"><svg class="icon" width="128px" height="128.00px" viewBox="0 0 1024 1024" version="1.1" xmlns="http://www.w3.org/2000/svg"><path d="M909.653333 373.333333A254.378667 254.378667 0 0 1 682.666667 4.096a254.549333 254.549333 0 1 0 320.426666 351.573333 254.208 254.208 0 0 1-93.44 17.664z" fill="#FFBF44" /><path d="M703.658667 387.498667a198.997333 198.997333 0 0 0-37.973334 3.754666 248.832 248.832 0 0 0-483.754666 36.096h-9.216v1.450667a173.738667 173.738667 0 0 0 0 344.661333v1.536h530.944a193.792 193.792 0 0 0 0-387.498666z" fill="#FFFFFF" /><path d="M368.298667 974.592a45.397333 45.397333 0 0 1-90.709334 0c0-25.088 45.312-120.832 45.312-120.832s45.397333 95.744 45.397334 120.832zM587.349333 964.864a3.498667 3.498667 0 0 1-3.413333-3.498667V844.8a3.498667 3.498667 0 1 1 6.912 0v116.565333a3.498667 3.498667 0 0 1-3.498667 3.498667z" fill="#3ECDFF" /><path d="M602.453333 964.864a3.669333 3.669333 0 0 1-2.56-1.109333l-15.018666-15.957334a3.498667 3.498667 0 1 1 5.034666-4.778666l15.018667 15.957333a3.498667 3.498667 0 0 1-2.474667 5.888z" fill="#3ECDFF" /><path d="M572.330667 964.693333a3.669333 3.669333 0 0 1-2.389334-0.938666 3.498667 3.498667 0 0 1 0-4.949334l15.018667-15.957333a3.584 3.584 0 0 1 4.949333 0 3.498667 3.498667 0 0 1 0 4.949333l-15.018666 15.957334a3.328 3.328 0 0 1-2.56 0.938666zM587.349333 864.256a3.669333 3.669333 0 0 1-2.389333-0.938667 3.498667 3.498667 0 0 1 0-4.949333l15.018667-15.957333a3.584 3.584 0 0 1 4.949333 0 3.498667 3.498667 0 0 1 0 4.949333l-15.018667 15.957333a3.328 3.328 0 0 1-2.56 0.938667z" fill="#3ECDFF" /><path d="M587.349333 864.341333a3.328 3.328 0 0 1-2.474666-1.109333l-15.018667-15.872a3.498667 3.498667 0 0 1 0-4.949333 3.413333 3.413333 0 0 1 4.949333 0l15.018667 15.872a3.498667 3.498667 0 0 1 0 4.949333 3.328 3.328 0 0 1-2.474667 1.109333zM628.565333 947.797333a3.584 3.584 0 0 1-2.474666-1.024l-82.346667-82.432a3.498667 3.498667 0 1 1 4.949333-4.949333l82.773334 82.432a3.498667 3.498667 0 0 1 0 4.949333 3.413333 3.413333 0 0 1-2.901334 1.024z" fill="#3ECDFF" /><path d="M639.232 937.130667l-21.845333-0.682667a3.498667 3.498667 0 1 1 0-6.912l21.930666 0.597333a3.584 3.584 0 0 1 3.413334 3.584 3.498667 3.498667 0 0 1-3.498667 3.413334z" fill="#3ECDFF" /><path d="M617.898667 958.293333a3.498667 3.498667 0 0 1-3.498667-3.413333l-0.682667-21.845333a3.413333 3.413333 0 0 1 3.413334-3.584 3.669333 3.669333 0 0 1 3.584 3.328l0.682666 21.930666a3.669333 3.669333 0 0 1-3.413333 3.584zM557.482667 876.629333a3.413333 3.413333 0 0 1-3.498667-3.413333l-0.682667-21.845333a3.498667 3.498667 0 0 1 6.997334 0l0.682666 21.930666a3.498667 3.498667 0 0 1-3.413333 3.584z" fill="#3ECDFF" /><path d="M557.568 876.714667l-21.930667-0.597334a3.584 3.584 0 0 1-3.413333-3.669333 3.498667 3.498667 0 0 1 3.584-3.328l21.930667 0.597333a3.584 3.584 0 0 1 3.413333 3.584 3.498667 3.498667 0 0 1-3.584 3.413334zM645.717333 906.581333H529.066667a3.498667 3.498667 0 0 1 0-6.997333h116.650666a3.498667 3.498667 0 0 1 0 6.997333z" fill="#3ECDFF" /><path d="M629.76 906.581333a3.328 3.328 0 0 1-2.56-1.109333 3.498667 3.498667 0 0 1 0-4.949333l15.957333-15.018667a3.413333 3.413333 0 0 1 4.864 0 3.498667 3.498667 0 0 1 0 4.949333l-15.957333 15.018667a3.669333 3.669333 0 0 1-2.304 1.109333z" fill="#3ECDFF" /><path d="M645.546667 921.6a3.669333 3.669333 0 0 1-2.389334-0.938667l-15.957333-15.018666a3.498667 3.498667 0 0 1 0-4.949334 3.413333 3.413333 0 0 1 4.864 0l15.957333 15.018667a3.413333 3.413333 0 0 1 0 4.949333 3.328 3.328 0 0 1-2.474666 0.938667zM545.109333 906.581333a3.669333 3.669333 0 0 1-2.389333-0.938666l-15.957333-15.018667a3.584 3.584 0 0 1 0-4.949333 3.498667 3.498667 0 0 1 4.949333 0l15.957333 15.018666a3.498667 3.498667 0 0 1 0 4.949334 3.328 3.328 0 0 1-2.56 0.938666z" fill="#3ECDFF" /><path d="M529.066667 921.6a3.328 3.328 0 0 1-2.56-1.109333 3.413333 3.413333 0 0 1 0-4.949334l15.957333-15.018666a3.413333 3.413333 0 0 1 4.864 0 3.498667 3.498667 0 0 1 0 4.949333l-15.957333 15.018667a3.669333 3.669333 0 0 1-2.304 1.109333zM546.133333 947.797333a3.584 3.584 0 0 1-2.474666-1.024 3.498667 3.498667 0 0 1 0-4.949333l82.432-82.432a3.498667 3.498667 0 0 1 4.949333 4.949333L548.693333 947.2a3.413333 3.413333 0 0 1-2.56 0.597333z" fill="#3ECDFF" /><path d="M617.386667 876.629333a3.413333 3.413333 0 0 1-3.328-3.584l0.341333-21.845333a3.498667 3.498667 0 0 1 3.584-3.413333 3.498667 3.498667 0 0 1 3.413333 3.584l-0.597333 21.930666a3.498667 3.498667 0 0 1-3.413333 3.328z" fill="#3ECDFF" /><path d="M617.301333 876.714667a3.413333 3.413333 0 0 1-3.498666-3.328 3.498667 3.498667 0 0 1 3.328-3.669334l21.930666-0.597333a3.669333 3.669333 0 0 1 3.584 3.413333 3.498667 3.498667 0 0 1-3.413333 3.584l-21.845333 0.597334zM535.637333 937.130667a3.413333 3.413333 0 0 1-3.498666-3.328 3.498667 3.498667 0 0 1 3.328-3.669334l21.930666-0.597333a3.413333 3.413333 0 0 1 3.584 3.413333 3.498667 3.498667 0 0 1-3.328 3.584l-21.930666 0.597334z" fill="#3ECDFF" /><path d="M556.970667 958.293333a3.413333 3.413333 0 0 1-3.413334-3.584l0.597334-21.930666a3.498667 3.498667 0 0 1 3.669333-3.328 3.413333 3.413333 0 0 1 3.328 3.584l-0.597333 21.930666a3.498667 3.498667 0 0 1-3.584 3.328z" fill="#3ECDFF" /></svg>