<?xml version="1.0" standalone="no"?><!DOCTYPE svg PUBLIC "-//W3C//DTD SVG 1.1//EN" "http://www.w3.org/Graphics/SVG/1.1/DTD/svg11.dtd"><svg class="icon" width="128px" height="128.00px" viewBox="0 0 1024 1024" version="1.1" xmlns="http://www.w3.org/2000/svg"><path d="M287.488 316.757333m-169.813333 0a169.813333 169.813333 0 1 0 339.626666 0 169.813333 169.813333 0 1 0-339.626666 0Z" fill="#FFBF44" /><path d="M543.061333 337.834667h-46.677333a21.162667 21.162667 0 0 1 0-42.666667h46.677333a21.162667 21.162667 0 1 1 0 42.666667zM468.48 233.386667a21.077333 21.077333 0 0 1-10.581333-39.424L498.261333 170.666667a21.162667 21.162667 0 0 1 21.162667 36.608L478.976 230.4a20.394667 20.394667 0 0 1-10.496 2.986667zM391.936 156.928a20.736 20.736 0 0 1-10.581333-2.816 21.077333 21.077333 0 0 1-7.68-28.842667l23.296-40.448a21.162667 21.162667 0 0 1 36.608 21.162667l-23.296 40.362667a21.077333 21.077333 0 0 1-18.346667 10.581333zM287.488 128.938667a21.162667 21.162667 0 0 1-21.162667-21.077334V61.184a21.162667 21.162667 0 0 1 42.666667 0v46.677333a21.162667 21.162667 0 0 1-21.504 21.077334zM183.04 156.928a20.906667 20.906667 0 0 1-18.261333-10.581333l-23.381334-40.362667a21.162667 21.162667 0 0 1 36.608-21.162667l23.381334 40.448a21.162667 21.162667 0 0 1-7.765334 28.842667 20.736 20.736 0 0 1-10.581333 2.816zM106.581333 233.386667a20.736 20.736 0 0 1-10.581333-2.986667l-40.362667-23.125333A21.162667 21.162667 0 1 1 76.8 170.666667l40.448 23.296a21.077333 21.077333 0 0 1-10.581333 39.424zM78.592 337.834667H31.914667a21.162667 21.162667 0 0 1 0-42.666667h46.677333a21.162667 21.162667 0 1 1 0 42.666667zM66.218667 465.664A21.162667 21.162667 0 0 1 55.637333 426.666667l40.362667-23.381334a21.162667 21.162667 0 1 1 21.162667 36.608L76.8 462.848a21.333333 21.333333 0 0 1-10.581333 2.816zM159.744 559.189333a20.736 20.736 0 0 1-10.581333-2.816 21.077333 21.077333 0 0 1-7.765334-28.842666l23.381334-40.448a21.162667 21.162667 0 1 1 36.608 21.162666l-23.381334 40.362667a20.992 20.992 0 0 1-18.261333 10.581333zM287.488 593.408a21.162667 21.162667 0 0 1-21.162667-21.077333V525.653333a21.162667 21.162667 0 1 1 42.666667 0v46.677334a21.162667 21.162667 0 0 1-21.504 21.077333zM415.317333 559.189333a21.077333 21.077333 0 0 1-18.346666-10.581333l-23.296-40.362667a21.162667 21.162667 0 1 1 36.608-21.162666l23.296 40.448a21.077333 21.077333 0 0 1-7.68 28.842666 21.589333 21.589333 0 0 1-10.581334 2.816zM506.026667 465.664a26.965333 26.965333 0 0 1-11.946667-2.816l-45.653333-23.381333a19.882667 19.882667 0 0 1-8.533334-28.842667 25.6 25.6 0 0 1 32.682667-7.765333L517.973333 426.666667a19.882667 19.882667 0 0 1 8.533334 28.842666 24.576 24.576 0 0 1-20.48 10.154667z" fill="#FFBF44" /><path d="M808.106667 314.88a206.848 206.848 0 0 0-40.106667 3.925333 263.509333 263.509333 0 0 0-512 38.229334h-9.898667V358.4a183.978667 183.978667 0 0 0 0 364.885333V725.333333H808.106667a204.8 204.8 0 0 0 0-410.197333z" fill="#FFFFFF" /><path d="M517.632 935.936a48.042667 48.042667 0 1 1-96.085333 0c0-26.538667 48.042667-128 48.042666-128s48.042667 101.461333 48.042667 128zM633.6 856.149333a34.133333 34.133333 0 0 1-68.266667 0c0-18.773333 34.133333-90.453333 34.133334-90.453333s34.133333 71.68 34.133333 90.453333z" fill="#3ECDFF" /></svg>