<?xml version="1.0" standalone="no"?><!DOCTYPE svg PUBLIC "-//W3C//DTD SVG 1.1//EN" "http://www.w3.org/Graphics/SVG/1.1/DTD/svg11.dtd"><svg class="icon" width="128px" height="128.00px" viewBox="0 0 1024 1024" version="1.1" xmlns="http://www.w3.org/2000/svg"><path d="M522.837333 958.122667a4.181333 4.181333 0 0 1-4.266666-4.181334v-124.586666a4.266667 4.266667 0 1 1 8.533333 0v124.586666a4.181333 4.181333 0 0 1-4.266667 4.181334z" fill="#3ECDFF" /><path d="M538.88 958.122667a4.181333 4.181333 0 0 1-3.072-1.28l-16.042667-17.066667a4.266667 4.266667 0 0 1 6.144-5.802667l16.042667 17.066667a4.181333 4.181333 0 0 1 0 5.973333 4.266667 4.266667 0 0 1-3.072 1.109334z" fill="#3ECDFF" /><path d="M506.709333 958.037333a4.266667 4.266667 0 0 1-2.901333-1.109333 4.352 4.352 0 0 1 0-6.058667l16.128-17.066666a4.266667 4.266667 0 1 1 6.144 5.802666l-16.042667 17.066667a4.181333 4.181333 0 0 1-3.328 1.365333zM522.837333 850.602667a4.010667 4.010667 0 0 1-2.901333-1.109334 4.181333 4.181333 0 0 1 0-5.973333l16.042667-17.066667a4.266667 4.266667 0 0 1 6.144 5.802667l-16.042667 17.066667a4.352 4.352 0 0 1-3.242667 1.28z" fill="#3ECDFF" /><path d="M522.837333 850.773333a3.84 3.84 0 0 1-3.072-1.365333l-16.128-17.066667a4.266667 4.266667 0 1 1 6.229334-5.802666l16.042666 17.066666a4.181333 4.181333 0 0 1 0 5.973334 4.352 4.352 0 0 1-3.072 1.194666zM566.869333 939.946667a4.010667 4.010667 0 0 1-2.986666-1.28L475.733333 850.602667a4.266667 4.266667 0 0 1 0-5.973334 4.266667 4.266667 0 0 1 6.058667 0l88.064 88.064a4.266667 4.266667 0 0 1-2.986667 7.253334z" fill="#3ECDFF" /><path d="M578.218667 928.597333l-23.552-0.768a4.181333 4.181333 0 0 1-4.096-4.352 4.096 4.096 0 0 1 4.352-4.096l23.381333 0.682667a4.266667 4.266667 0 0 1 0 8.533333z" fill="#3ECDFF" /><path d="M555.434667 951.210667a4.266667 4.266667 0 0 1-4.266667-4.096l-0.682667-23.466667a4.266667 4.266667 0 0 1 8.533334 0l0.682666 23.466667a4.181333 4.181333 0 0 1-4.096 4.352zM490.837333 863.914667a4.266667 4.266667 0 0 1-4.266666-4.096L485.888 836.266667a4.266667 4.266667 0 0 1 4.096-4.352 4.096 4.096 0 0 1 4.352 4.096l0.682667 23.466666a4.181333 4.181333 0 0 1-4.096 4.352z" fill="#3ECDFF" /><path d="M490.922667 864l-23.381334-0.682667a4.266667 4.266667 0 0 1-4.096-4.437333 4.181333 4.181333 0 0 1 4.352-4.096l23.381334 0.768a4.096 4.096 0 0 1 4.096 4.352 4.181333 4.181333 0 0 1-4.352 4.096zM585.130667 896H460.8a4.266667 4.266667 0 0 1 0-8.533333h124.586667a4.266667 4.266667 0 1 1 0 8.533333z" fill="#3ECDFF" /><path d="M568.064 896a4.096 4.096 0 0 1-3.072-1.365333 4.181333 4.181333 0 0 1 0-5.973334l17.066667-16.042666a4.266667 4.266667 0 0 1 5.802666 6.144l-17.066666 16.042666a4.096 4.096 0 0 1-2.730667 1.194667z" fill="#3ECDFF" /><path d="M585.045333 911.957333a4.010667 4.010667 0 0 1-2.901333-1.109333l-17.066667-16.128a4.266667 4.266667 0 1 1 5.802667-6.144l17.066667 16.042667a4.266667 4.266667 0 0 1 0 5.973333 4.096 4.096 0 0 1-2.901334 1.365333zM477.866667 896a4.352 4.352 0 0 1-2.901334-1.194667l-17.066666-16.042666a4.266667 4.266667 0 1 1 5.802666-6.144l17.066667 16.042666a4.181333 4.181333 0 0 1 0 5.973334 4.096 4.096 0 0 1-2.901333 1.365333z" fill="#3ECDFF" /><path d="M460.8 911.957333a3.925333 3.925333 0 0 1-3.072-1.365333 4.181333 4.181333 0 0 1 0-5.973333l17.066667-16.042667a4.181333 4.181333 0 0 1 5.973333 0 4.266667 4.266667 0 0 1 0 5.973333l-17.066667 16.128a4.266667 4.266667 0 0 1-2.901333 1.28zM478.805333 939.946667a4.181333 4.181333 0 0 1-2.986666-1.28 4.266667 4.266667 0 0 1 0-5.973334L563.882667 844.8a4.266667 4.266667 0 0 1 5.973333 0 4.096 4.096 0 0 1 0 5.973333L481.792 938.666667a4.181333 4.181333 0 0 1-2.986667 1.28z" fill="#3ECDFF" /><path d="M554.666667 863.914667a4.352 4.352 0 0 1-4.181334-4.352l0.853334-23.296a4.096 4.096 0 0 1 4.352-4.096 4.266667 4.266667 0 0 1 4.096 4.352l-0.682667 23.466666a4.266667 4.266667 0 0 1-4.437333 3.925334z" fill="#3ECDFF" /><path d="M554.666667 864a4.266667 4.266667 0 1 1 0-8.533333l23.381333-0.682667a4.181333 4.181333 0 0 1 4.352 4.096 4.266667 4.266667 0 0 1-4.096 4.352l-23.466667 0.682667zM467.456 928.597333a4.266667 4.266667 0 0 1-4.266667-4.096 4.181333 4.181333 0 0 1 4.096-4.352l23.466667-0.768a4.352 4.352 0 0 1 4.352 4.181334 4.266667 4.266667 0 0 1-4.096 4.352l-23.466667 0.682666z" fill="#3ECDFF" /><path d="M490.24 951.210667A4.181333 4.181333 0 0 1 486.4 947.2l0.682667-23.381333a4.096 4.096 0 0 1 4.352-4.181334 4.266667 4.266667 0 0 1 4.096 4.352L494.933333 947.2a4.266667 4.266667 0 0 1-4.693333 4.010667z" fill="#3ECDFF" /><path d="M286.464 351.914667m-171.52 0a171.52 171.52 0 1 0 343.04 0 171.52 171.52 0 1 0-343.04 0Z" fill="#FFBF44" /><path d="M544.597333 375.466667h-47.189333a23.722667 23.722667 0 0 1 0-47.445334h47.189333a23.722667 23.722667 0 0 1 0 47.445334zM469.333333 270.165333a23.722667 23.722667 0 0 1-11.861333-44.288l40.789333-23.552a23.722667 23.722667 0 1 1 23.722667 41.045334l-40.789333 23.552a23.04 23.04 0 0 1-11.861334 3.242666zM391.936 192.938667a23.210667 23.210667 0 0 1-11.861333-3.242667 23.722667 23.722667 0 0 1-8.533334-32.341333l23.637334-40.874667a23.722667 23.722667 0 0 1 41.045333 23.722667l-23.552 40.874666a23.808 23.808 0 0 1-20.736 11.861334zM286.464 164.608a23.637333 23.637333 0 0 1-23.722667-23.722667V93.866667a23.722667 23.722667 0 0 1 47.445334 0v47.104a23.722667 23.722667 0 0 1-23.722667 23.637333zM180.992 192.938667a23.722667 23.722667 0 0 1-20.565333-11.861334L136.533333 140.202667a23.722667 23.722667 0 0 1 41.045334-23.722667l23.552 40.874667a23.552 23.552 0 0 1-8.533334 32.341333 22.698667 22.698667 0 0 1-11.605333 3.242667zM103.68 270.165333a23.210667 23.210667 0 0 1-11.861333-3.242666L51.2 243.370667a23.722667 23.722667 0 1 1 23.722667-41.045334l40.789333 23.552a23.722667 23.722667 0 0 1-11.861333 44.288zM75.434667 375.466667H28.330667a23.722667 23.722667 0 0 1 0-47.445334h47.104a23.722667 23.722667 0 0 1 0 47.445334zM62.890667 504.661333A23.722667 23.722667 0 0 1 51.2 460.8l40.789333-23.637333A23.722667 23.722667 0 0 1 115.541333 477.866667l-40.789333 23.637333a23.722667 23.722667 0 0 1-11.861333 3.157333zM157.354667 599.210667a23.210667 23.210667 0 0 1-11.861334-3.242667 23.552 23.552 0 0 1-8.533333-32.341333l23.552-40.874667a23.722667 23.722667 0 0 1 40.96 23.381333l-23.552 40.874667a23.722667 23.722667 0 0 1-20.565333 12.202667zM286.464 633.770667a23.722667 23.722667 0 0 1-23.722667-23.722667V563.2a23.722667 23.722667 0 0 1 47.445334 0v47.104a23.808 23.808 0 0 1-23.722667 23.466667zM415.573333 599.210667a23.637333 23.637333 0 0 1-20.565333-11.861334L371.370667 546.133333a23.722667 23.722667 0 0 1 41.130666-23.722666l23.552 40.874666a23.637333 23.637333 0 0 1-8.533333 32.341334 22.954667 22.954667 0 0 1-11.946667 3.584zM509.952 504.661333a23.978667 23.978667 0 0 1-11.861333-3.157333L457.301333 477.866667a23.722667 23.722667 0 1 1 23.722667-41.130667L521.813333 460.8a23.722667 23.722667 0 0 1-11.861333 44.202667z" fill="#FFBF44" /><path d="M812.288 349.866667a204.8 204.8 0 0 0-40.533333 4.010666A266.154667 266.154667 0 0 0 254.464 392.533333h-9.813333v1.536a185.770667 185.770667 0 0 0 0 368.554667v1.621333h567.637333a207.189333 207.189333 0 0 0 0-414.293333z" fill="#FFFFFF" /></svg>