<?xml version="1.0" standalone="no"?><!DOCTYPE svg PUBLIC "-//W3C//DTD SVG 1.1//EN" "http://www.w3.org/Graphics/SVG/1.1/DTD/svg11.dtd"><svg class="icon" width="128px" height="128.00px" viewBox="0 0 1024 1024" version="1.1" xmlns="http://www.w3.org/2000/svg"><path d="M847.616 834.389333a36.949333 36.949333 0 0 1-73.898667 0c0-20.394667 36.949333-98.304 36.949334-98.304s36.949333 77.909333 36.949333 98.304z" fill="#3ECDFF" /><path d="M793.6 240.896a221.866667 221.866667 0 0 0-43.605333 4.266667A286.464 286.464 0 0 0 192.853333 286.72h-10.581333v1.621333a200.021333 200.021333 0 0 0 0 396.8v1.621334H793.6a222.976 222.976 0 1 0 0-445.866667z" fill="#FFFFFF" /><path d="M740.864 928.341333a52.224 52.224 0 1 1-104.448 0c0-28.842667 52.224-139.008 52.224-139.008s52.224 110.165333 52.224 139.008zM266.837333 807.594667a26.112 26.112 0 1 1-52.138666 0c0-14.421333 26.026667-69.546667 26.026666-69.546667s26.112 55.552 26.112 69.546667zM404.992 979.456a9.301333 9.301333 0 0 1-3.925333-0.853333 9.130667 9.130667 0 0 1-4.266667-12.117334l119.466667-248.234666a9.045333 9.045333 0 0 1 16.384 7.850666l-119.466667 248.234667a9.045333 9.045333 0 0 1-8.192 5.12z" fill="#3ECDFF" /></svg>