<?xml version="1.0" standalone="no"?><!DOCTYPE svg PUBLIC "-//W3C//DTD SVG 1.1//EN" "http://www.w3.org/Graphics/SVG/1.1/DTD/svg11.dtd"><svg class="icon" width="128px" height="128.00px" viewBox="0 0 1024 1024" version="1.1" xmlns="http://www.w3.org/2000/svg"><path fill="#1296db" d="M269.397333 698.538667C122.709333 698.538667 7.765333 616.618667 7.765333 512s114.944-186.538667 261.632-186.538667S531.114667 407.381333 531.114667 512 416.170667 698.538667 269.397333 698.538667z m0-305.408C164.266667 393.130667 75.434667 447.573333 75.434667 512s88.832 118.869333 193.962666 118.869333S463.445333 576.426667 463.445333 512 374.613333 393.130667 269.397333 393.130667z"  /><path fill="#1296db" d="M754.602667 698.538667c-146.773333 0-261.717333-81.92-261.717334-186.538667s114.944-186.538667 261.717334-186.538667 261.632 81.92 261.632 186.538667-114.944 186.538667-261.632 186.538667z m0-305.408c-105.216 0-194.048 54.442667-194.048 118.869333S649.386667 630.869333 754.602667 630.869333s193.962667-54.442667 193.962666-118.869333-88.832-118.869333-193.962666-118.869333z"  /><path fill="#1296db" d="M269.397333 204.373333m-47.786666 0a47.786667 47.786667 0 1 0 95.573333 0 47.786667 47.786667 0 1 0-95.573333 0Z"  /><path fill="#1296db" d="M754.602667 204.373333m-47.786667 0a47.786667 47.786667 0 1 0 95.573333 0 47.786667 47.786667 0 1 0-95.573333 0Z"  /><path fill="#1296db" d="M269.397333 819.626667m-47.786666 0a47.786667 47.786667 0 1 0 95.573333 0 47.786667 47.786667 0 1 0-95.573333 0Z"  /><path fill="#1296db" d="M754.602667 819.626667m-47.786667 0a47.786667 47.786667 0 1 0 95.573333 0 47.786667 47.786667 0 1 0-95.573333 0Z"  /></svg>