<?xml version="1.0" standalone="no"?><!DOCTYPE svg PUBLIC "-//W3C//DTD SVG 1.1//EN" "http://www.w3.org/Graphics/SVG/1.1/DTD/svg11.dtd"><svg class="icon" width="128px" height="128.00px" viewBox="0 0 1024 1024" version="1.1" xmlns="http://www.w3.org/2000/svg"><path d="M793.6 233.813333a223.744 223.744 0 0 0-43.690667 4.352 286.634667 286.634667 0 0 0-557.226666 41.557334h-10.752V281.6a200.192 200.192 0 0 0 0 397.141333v1.706667H793.6a223.232 223.232 0 0 0 0-446.634667z" fill="#FFFFFF" /><path d="M396.544 987.733333a8.533333 8.533333 0 0 1-3.669333-0.853333 8.533333 8.533333 0 0 1-4.096-11.52l119.466666-248.405333a8.533333 8.533333 0 0 1 11.52-4.010667 8.533333 8.533333 0 0 1 4.096 11.52l-119.466666 248.405333a8.533333 8.533333 0 0 1-7.850667 4.864zM238.933333 847.872a2.389333 2.389333 0 0 1-2.304-2.304v-102.4a2.304 2.304 0 1 1 4.608 0v102.4a2.389333 2.389333 0 0 1-2.304 2.304z" fill="#3ECDFF" /><path d="M251.904 847.872a2.389333 2.389333 0 0 1-1.706667-0.768l-13.141333-13.994667a2.218667 2.218667 0 0 1 0-3.242666 2.304 2.304 0 0 1 3.242667 0l13.141333 13.994666a2.218667 2.218667 0 0 1 0 3.242667 2.304 2.304 0 0 1-1.536 0.768z" fill="#3ECDFF" /><path d="M225.536 847.701333a2.218667 2.218667 0 0 1-1.621333-0.597333 2.304 2.304 0 0 1 0-3.242667l13.226666-13.994666a2.218667 2.218667 0 0 1 3.242667 0 2.304 2.304 0 0 1 0 3.242666l-13.226667 13.994667a2.304 2.304 0 0 1-1.621333 0.597333zM238.933333 759.466667a2.218667 2.218667 0 0 1-1.536-0.597334 2.218667 2.218667 0 0 1 0-3.242666l13.141334-13.994667a2.304 2.304 0 0 1 3.328 3.157333l-13.141334 13.994667A2.218667 2.218667 0 0 1 238.933333 759.466667z" fill="#3ECDFF" /><path d="M238.933333 759.466667a2.133333 2.133333 0 0 1-1.621333-0.768l-13.226667-13.994667a2.304 2.304 0 0 1 3.328-3.157333l13.226667 13.994666a2.304 2.304 0 0 1 0 3.242667 2.304 2.304 0 0 1-1.706667 0.682667zM274.858667 832.853333a2.304 2.304 0 0 1-1.621334-0.682666L200.874667 759.466667a2.389333 2.389333 0 0 1 0-3.242667 2.218667 2.218667 0 0 1 3.242666 0l72.362667 72.362667a2.218667 2.218667 0 0 1 0 3.242666 2.304 2.304 0 0 1-1.621333 1.024z" fill="#3ECDFF" /><path d="M284.245333 823.552L264.533333 822.954667a2.389333 2.389333 0 0 1-2.218666-2.389334 2.304 2.304 0 0 1 2.389333-2.218666l19.2 0.597333a2.304 2.304 0 0 1 2.304 2.304 2.389333 2.389333 0 0 1-1.962667 2.304z" fill="#3ECDFF" /><path d="M265.472 842.069333a2.218667 2.218667 0 0 1-2.304-2.218666l-0.597333-19.2a2.389333 2.389333 0 0 1 2.218666-2.389334 2.218667 2.218667 0 0 1 2.389334 2.218667l0.597333 19.285333a2.304 2.304 0 0 1-2.218667 2.304zM212.394667 770.389333a2.389333 2.389333 0 0 1-2.304-2.218666l-0.512-19.2a2.218667 2.218667 0 0 1 2.218666-2.389334 2.304 2.304 0 0 1 2.304 2.218667l0.597334 19.2a2.218667 2.218667 0 0 1-2.218667 2.389333z" fill="#3ECDFF" /><path d="M212.48 770.474667l-19.2-0.597334a2.218667 2.218667 0 0 1-2.218667-2.389333c0-1.194667 0.853333-2.048 2.389334-2.218667l19.2 0.597334a2.218667 2.218667 0 0 1 2.218666 2.389333 2.304 2.304 0 0 1-2.389333 2.218667zM290.133333 796.672H187.733333a2.304 2.304 0 0 1 0-4.608h102.4a2.304 2.304 0 1 1 0 4.608z" fill="#3ECDFF" /><path d="M275.882667 796.672a2.304 2.304 0 0 1-1.621334-0.682667 2.218667 2.218667 0 0 1 0-3.242666l13.994667-13.226667a2.304 2.304 0 0 1 3.157333 3.328l-13.994666 13.226667a2.389333 2.389333 0 0 1-1.536 0.597333z" fill="#3ECDFF" /><path d="M290.133333 809.898667a2.474667 2.474667 0 0 1-1.621333-0.682667l-13.994667-13.141333a2.389333 2.389333 0 0 1 0-3.242667 2.218667 2.218667 0 0 1 3.242667 0l13.994667 13.141333a2.304 2.304 0 0 1 0 3.242667 2.389333 2.389333 0 0 1-1.621334 0.682667zM201.557333 796.672a2.218667 2.218667 0 0 1-1.536-0.597333l-13.994666-13.226667a2.218667 2.218667 0 0 1 0-3.242667 2.304 2.304 0 0 1 3.242666 0l13.994667 13.226667a2.304 2.304 0 0 1 0 3.242667 2.56 2.56 0 0 1-1.706667 0.597333z" fill="#3ECDFF" /><path d="M187.733333 809.898667a2.133333 2.133333 0 0 1-1.621333-0.768 2.304 2.304 0 0 1 0-3.242667l13.994667-13.141333a2.218667 2.218667 0 0 1 3.242666 0 2.304 2.304 0 0 1 0 3.242666l-13.994666 13.141334a2.304 2.304 0 0 1-1.621334 0.768zM202.581333 832.853333a2.304 2.304 0 0 1-1.621333-0.682666 2.218667 2.218667 0 0 1 0-3.242667L273.066667 756.565333a2.304 2.304 0 1 1 3.242666 3.242667l-72.362666 72.362667a2.304 2.304 0 0 1-1.365334 0.682666z" fill="#3ECDFF" /><path d="M265.045333 770.389333a2.218667 2.218667 0 0 1-2.218666-2.389333l0.512-19.2a2.389333 2.389333 0 0 1 2.389333-2.218667 2.218667 2.218667 0 0 1 2.218667 2.389334L267.349333 768a2.304 2.304 0 0 1-2.304 2.389333z" fill="#3ECDFF" /><path d="M264.96 770.474667a2.304 2.304 0 0 1 0-4.608l19.2-0.597334a2.304 2.304 0 0 1 2.304 2.304 2.133333 2.133333 0 0 1-2.218667 2.304l-19.2 0.597334zM193.194667 823.552a2.389333 2.389333 0 0 1-2.304-2.218667 2.389333 2.389333 0 0 1 2.304-2.389333l19.2-0.597333a2.304 2.304 0 0 1 0 4.608l-19.285334 0.597333z" fill="#3ECDFF" /><path d="M211.968 842.069333a2.218667 2.218667 0 0 1-2.218667-2.304l0.597334-19.285333a2.133333 2.133333 0 0 1 2.304-2.218667 2.389333 2.389333 0 0 1 2.304 2.389334l-0.597334 19.2a2.304 2.304 0 0 1-2.389333 2.218666zM645.034667 964.778667a4.010667 4.010667 0 0 1-4.010667-4.010667V826.538667a4.010667 4.010667 0 0 1 4.010667-4.010667 4.096 4.096 0 0 1 4.096 4.010667v134.229333a4.096 4.096 0 0 1-4.096 4.010667z" fill="#3ECDFF" /><path d="M662.357333 964.778667a4.181333 4.181333 0 0 1-2.901333-1.194667l-17.066667-18.432a3.925333 3.925333 0 0 1 0-5.632 4.010667 4.010667 0 0 1 5.717334 0l17.066666 18.346667a4.096 4.096 0 0 1 0 5.717333 4.437333 4.437333 0 0 1-2.816 1.194667z" fill="#3ECDFF" /><path d="M627.797333 964.693333a4.352 4.352 0 0 1-2.816-1.109333 4.010667 4.010667 0 0 1 0-5.717333l17.066667-18.346667a4.010667 4.010667 0 0 1 5.888 5.546667l-17.066667 18.346666a3.925333 3.925333 0 0 1-3.072 1.28zM645.034667 848.981333a4.266667 4.266667 0 0 1-2.730667-1.109333 4.010667 4.010667 0 0 1 0-5.717333l17.066667-18.346667a4.010667 4.010667 0 0 1 5.717333 0 4.096 4.096 0 0 1 0 5.717333l-17.066667 18.346667a4.181333 4.181333 0 0 1-2.986666 1.109333z" fill="#3ECDFF" /><path d="M645.034667 849.066667a4.181333 4.181333 0 0 1-2.901334-1.194667l-17.066666-18.432a3.925333 3.925333 0 0 1 0-5.632 4.010667 4.010667 0 0 1 5.717333 0l17.066667 18.346667a4.010667 4.010667 0 0 1 0 5.717333 4.266667 4.266667 0 0 1-2.816 1.194667zM692.565333 945.152a4.096 4.096 0 0 1-2.901333-1.194667L594.773333 849.066667a4.010667 4.010667 0 1 1 5.717334-5.717334L695.381333 938.666667a4.010667 4.010667 0 0 1-2.816 6.826666z" fill="#3ECDFF" /><path d="M704.768 932.949333l-25.6-0.768a4.096 4.096 0 0 1-3.925333-4.181333 4.010667 4.010667 0 0 1 4.181333-3.925333l25.173333 0.768a4.096 4.096 0 0 1 0 8.533333z" fill="#3ECDFF" /><path d="M680.192 957.269333a4.010667 4.010667 0 0 1-4.010667-3.84l-0.768-25.6a4.096 4.096 0 0 1 3.925334-4.181333 4.181333 4.181333 0 0 1 4.096 3.925333l0.768 25.6a4.010667 4.010667 0 0 1-3.925334 4.096zM610.645333 863.232a4.096 4.096 0 0 1-4.096-3.925333l-0.682666-25.6a4.010667 4.010667 0 0 1 3.84-4.181334 4.096 4.096 0 0 1 4.181333 3.925334l0.768 25.6a4.181333 4.181333 0 0 1-3.925333 4.181333z" fill="#3ECDFF" /><path d="M610.730667 863.317333l-25.6-0.768a3.925333 3.925333 0 0 1-3.925334-4.096 4.010667 4.010667 0 0 1 4.096-3.925333l25.6 0.768a4.010667 4.010667 0 0 1 0 8.021333zM712.192 897.706667H578.048a4.010667 4.010667 0 1 1 0-8.021334h134.144a4.010667 4.010667 0 1 1 0 8.021334z" fill="#3ECDFF" /><path d="M693.845333 897.706667a4.010667 4.010667 0 0 1-2.730666-6.912l18.346666-17.066667a4.010667 4.010667 0 0 1 5.546667 5.888l-18.346667 17.066667a4.096 4.096 0 0 1-2.816 1.024z" fill="#3ECDFF" /><path d="M712.106667 915.029333a3.754667 3.754667 0 0 1-2.730667-1.109333l-18.432-17.066667a3.925333 3.925333 0 0 1 0-5.632 4.010667 4.010667 0 0 1 5.717333 0l18.346667 17.066667a4.010667 4.010667 0 0 1 0 5.717333 3.925333 3.925333 0 0 1-2.901333 1.024zM596.394667 897.706667a4.096 4.096 0 0 1-2.816-1.109334l-18.346667-17.066666a4.010667 4.010667 0 1 1 5.546667-5.888l18.346666 17.066666a4.010667 4.010667 0 0 1-2.730666 6.912z" fill="#3ECDFF" /><path d="M578.133333 915.029333a3.925333 3.925333 0 0 1-2.901333-1.28 4.010667 4.010667 0 0 1 0-5.717333l18.346667-17.066667a4.010667 4.010667 0 0 1 5.717333 0 3.925333 3.925333 0 0 1 0 5.632l-18.346667 17.066667a4.096 4.096 0 0 1-2.816 1.365333zM597.333333 945.152a3.669333 3.669333 0 0 1-2.816-1.194667 3.84 3.84 0 0 1 0-5.632l95.232-94.890666a4.010667 4.010667 0 0 1 5.632 5.632l-94.890666 94.890666a3.669333 3.669333 0 0 1-3.157334 1.194667z" fill="#3ECDFF" /><path d="M679.594667 863.232a3.925333 3.925333 0 0 1-3.925334-4.096l0.768-25.6a3.925333 3.925333 0 0 1 4.096-3.925333 4.096 4.096 0 0 1 3.925334 4.181333l-0.768 25.6a4.010667 4.010667 0 0 1-4.096 3.84z" fill="#3ECDFF" /><path d="M679.509333 863.317333a3.925333 3.925333 0 0 1-4.010666-3.84 4.010667 4.010667 0 0 1 3.84-4.181333l25.6-0.768a4.096 4.096 0 0 1 4.181333 3.925333 4.181333 4.181333 0 0 1-3.925333 4.181334l-25.6 0.682666zM585.472 932.949333a4.096 4.096 0 0 1-4.096-3.925333 4.010667 4.010667 0 0 1 3.925333-4.096l25.6-0.768a3.925333 3.925333 0 0 1 4.096 3.925333 4.010667 4.010667 0 0 1-3.925333 4.096l-25.173333 0.768z" fill="#3ECDFF" /><path d="M609.962667 957.354667a4.181333 4.181333 0 0 1-3.925334-4.181334l0.768-25.6a4.096 4.096 0 0 1 4.181334-3.84 3.925333 3.925333 0 0 1 3.84 4.096l-0.682667 25.6a4.096 4.096 0 0 1-4.181333 3.925334zM817.322667 865.877333a4.010667 4.010667 0 0 1-4.010667-4.010666V727.637333a4.010667 4.010667 0 0 1 8.021333 0V861.866667a4.010667 4.010667 0 0 1-4.010666 4.010666z" fill="#3ECDFF" /><path d="M834.645333 865.877333a4.181333 4.181333 0 0 1-2.986666-1.28l-17.066667-18.346666a4.010667 4.010667 0 0 1 0-5.717334 3.925333 3.925333 0 0 1 5.632 0l17.066667 18.346667a4.010667 4.010667 0 0 1 0 5.717333 3.84 3.84 0 0 1-2.645334 1.28z" fill="#3ECDFF" /><path d="M800 865.706667a3.84 3.84 0 0 1-2.730667-1.109334 3.925333 3.925333 0 0 1 0-5.632l17.066667-18.432a4.096 4.096 0 0 1 5.632 0 4.010667 4.010667 0 0 1 0 5.717334l-17.066667 18.346666a3.84 3.84 0 0 1-2.901333 1.109334zM817.322667 749.994667a3.754667 3.754667 0 0 1-2.730667-1.109334 3.925333 3.925333 0 0 1 0-5.632l17.066667-18.432a4.096 4.096 0 0 1 5.717333 0 4.010667 4.010667 0 0 1 0 5.717334l-17.066667 18.346666a3.925333 3.925333 0 0 1-2.986666 1.109334z" fill="#3ECDFF" /><path d="M817.322667 750.165333a3.84 3.84 0 0 1-2.901334-1.28l-17.066666-18.346666a4.010667 4.010667 0 0 1 0-5.717334 3.925333 3.925333 0 0 1 5.632 0l17.066666 18.346667a4.010667 4.010667 0 0 1 0 5.717333 3.754667 3.754667 0 0 1-2.730666 1.28zM864.768 846.250667A4.010667 4.010667 0 0 1 861.866667 844.8L766.976 750.08a4.010667 4.010667 0 0 1 0-5.632 3.925333 3.925333 0 0 1 5.717333 0l94.890667 94.890667a3.925333 3.925333 0 0 1 0 5.717333 4.010667 4.010667 0 0 1-2.816 1.194667z" fill="#3ECDFF" /><path d="M876.970667 833.962667l-25.6-0.768a4.010667 4.010667 0 0 1 0-8.021334l25.6 0.768a4.010667 4.010667 0 0 1 0 8.021334z" fill="#3ECDFF" /><path d="M852.394667 858.368a4.010667 4.010667 0 0 1-4.010667-3.925333l-0.682667-25.6a3.925333 3.925333 0 0 1 3.84-4.096 4.010667 4.010667 0 0 1 4.181334 3.925333l0.768 25.173333a4.181333 4.181333 0 0 1-3.925334 4.181334zM782.848 764.245333a4.010667 4.010667 0 0 1-4.010667-3.84l-0.768-25.6a3.925333 3.925333 0 0 1 3.925334-4.096 3.669333 3.669333 0 0 1 4.096 3.84l0.768 25.6a3.925333 3.925333 0 0 1-3.925334 4.096z" fill="#3ECDFF" /><path d="M782.933333 764.416l-25.6-0.768a4.181333 4.181333 0 0 1-3.925333-4.181333 4.010667 4.010667 0 0 1 4.181333-3.84l25.6 0.682666a4.096 4.096 0 0 1 0 8.533334zM884.48 798.805333H750.250667a4.096 4.096 0 0 1 0-8.533333h134.229333a4.096 4.096 0 0 1 0 8.533333z" fill="#3ECDFF" /><path d="M866.133333 798.805333a4.181333 4.181333 0 0 1-2.986666-1.28 4.010667 4.010667 0 0 1 0-5.717333l18.432-17.066667a4.010667 4.010667 0 0 1 5.461333 5.888l-18.346667 17.066667a4.266667 4.266667 0 0 1-2.56 1.109333z" fill="#3ECDFF" /><path d="M884.309333 816.128a4.266667 4.266667 0 0 1-2.730666-1.109333l-18.346667-17.066667a4.010667 4.010667 0 0 1 0-5.717333 3.925333 3.925333 0 0 1 5.632 0l18.432 17.066666a4.010667 4.010667 0 0 1-2.816 6.997334zM768.597333 798.805333a4.266667 4.266667 0 0 1-2.730666-1.109333l-18.346667-17.066667a4.010667 4.010667 0 0 1 5.461333-5.888l18.432 17.066667a4.010667 4.010667 0 0 1-2.816 6.997333z" fill="#3ECDFF" /><path d="M750.421333 816.128a4.010667 4.010667 0 0 1-2.816-6.997333l18.432-17.066667a3.925333 3.925333 0 0 1 5.632 0 4.010667 4.010667 0 0 1 0 5.717333l-18.346666 17.066667a4.266667 4.266667 0 0 1-2.901334 1.28zM769.877333 846.250667a4.010667 4.010667 0 0 1-2.816-1.194667 4.096 4.096 0 0 1 0-5.717333L861.866667 744.448a4.010667 4.010667 0 0 1 5.717333 5.717333L772.778667 844.8a4.352 4.352 0 0 1-2.901334 1.450667z" fill="#3ECDFF" /><path d="M851.797333 764.330667a4.181333 4.181333 0 0 1-3.925333-4.181334l0.768-25.6a4.096 4.096 0 0 1 4.181333-3.925333 3.925333 3.925333 0 0 1 3.84 4.096l-0.682666 25.6a4.096 4.096 0 0 1-4.181334 4.010667z" fill="#3ECDFF" /><path d="M851.712 764.416a4.010667 4.010667 0 0 1-4.010667-3.925333 3.925333 3.925333 0 0 1 3.925334-4.096l25.6-0.768a4.096 4.096 0 0 1 4.096 3.925333 4.010667 4.010667 0 0 1-3.925334 4.096l-25.6 0.768zM757.674667 833.962667a4.010667 4.010667 0 0 1 0-8.021334l25.6-0.768a4.096 4.096 0 1 1 0 8.533334l-25.6 0.682666z" fill="#3ECDFF" /><path d="M782.250667 858.368a4.010667 4.010667 0 0 1-3.925334-4.181333l0.768-25.173334a3.84 3.84 0 0 1 4.096-3.925333 4.096 4.096 0 0 1 3.925334 4.181333l-0.768 25.173334a4.010667 4.010667 0 0 1-4.096 3.925333z" fill="#3ECDFF" /></svg>