<?xml version="1.0" standalone="no"?><!DOCTYPE svg PUBLIC "-//W3C//DTD SVG 1.1//EN" "http://www.w3.org/Graphics/SVG/1.1/DTD/svg11.dtd"><svg class="icon" width="128px" height="128.00px" viewBox="0 0 1024 1024" version="1.1" xmlns="http://www.w3.org/2000/svg"><path d="M794.794667 235.605333a225.536 225.536 0 0 0-43.861334 4.352A288 288 0 0 0 191.061333 281.6h-10.666666v1.706667a201.130667 201.130667 0 0 0 0 398.933333v1.706667h614.4a224.256 224.256 0 1 0 0-448.426667z" fill="#FFFFFF" /><path d="M564.48 934.4a52.48 52.48 0 0 1-104.96 0c0-29.013333 52.48-139.861333 52.48-139.861333s52.48 110.848 52.48 139.861333zM321.024 833.536a37.205333 37.205333 0 0 1-74.325333 0c0-20.565333 37.12-98.901333 37.12-98.901333s37.205333 78.336 37.205333 98.901333zM780.714667 833.536a37.205333 37.205333 0 0 1-74.325334 0c0-20.565333 37.205333-98.901333 37.205334-98.901333s37.12 78.336 37.12 98.901333z" fill="#3ECDFF" /></svg>