<?xml version="1.0" standalone="no"?><!DOCTYPE svg PUBLIC "-//W3C//DTD SVG 1.1//EN" "http://www.w3.org/Graphics/SVG/1.1/DTD/svg11.dtd"><svg class="icon" width="128px" height="128.00px" viewBox="0 0 1024 1024" version="1.1" xmlns="http://www.w3.org/2000/svg"><path fill="#1296db" d="M268.544 686.592C121.258667 686.592 5.888 604.416 5.888 499.370667s115.370667-187.221333 262.656-187.221334 262.656 82.261333 262.656 187.221334-115.370667 187.221333-262.656 187.221333z m0-306.517333c-105.472 0-194.645333 54.613333-194.645333 119.466666s89.173333 119.466667 194.645333 119.466667 194.730667-54.613333 194.730667-119.466667-89.173333-119.466667-194.730667-119.466666z"  /><path fill="#1296db" d="M755.456 686.592c-147.285333 0-262.656-82.176-262.656-187.221333s115.370667-187.221333 262.656-187.221334 262.656 82.261333 262.656 187.221334-115.370667 187.221333-262.656 187.221333z m0-306.517333c-105.557333 0-194.730667 54.613333-194.730667 119.466666s89.173333 119.466667 194.730667 119.466667 194.645333-54.613333 194.645333-119.466667-89.173333-119.466667-194.645333-119.466666z"  /><path fill="#1296db" d="M87.808 190.634667m-47.957333 0a47.957333 47.957333 0 1 0 95.914666 0 47.957333 47.957333 0 1 0-95.914666 0Z"  /><path fill="#1296db" d="M936.192 190.634667m-47.957333 0a47.957333 47.957333 0 1 0 95.914666 0 47.957333 47.957333 0 1 0-95.914666 0Z"  /><path fill="#1296db" d="M512 229.973333m-47.957333 0a47.957333 47.957333 0 1 0 95.914666 0 47.957333 47.957333 0 1 0-95.914666 0Z"  /><path fill="#1296db" d="M87.808 833.365333m-47.957333 0a47.957333 47.957333 0 1 0 95.914666 0 47.957333 47.957333 0 1 0-95.914666 0Z"  /><path fill="#1296db" d="M936.192 833.365333m-47.957333 0a47.957333 47.957333 0 1 0 95.914666 0 47.957333 47.957333 0 1 0-95.914666 0Z"  /><path fill="#1296db" d="M512 785.493333m-47.957333 0a47.957333 47.957333 0 1 0 95.914666 0 47.957333 47.957333 0 1 0-95.914666 0Z"  /></svg>