<?xml version="1.0" standalone="no"?><!DOCTYPE svg PUBLIC "-//W3C//DTD SVG 1.1//EN" "http://www.w3.org/Graphics/SVG/1.1/DTD/svg11.dtd"><svg class="icon" width="128px" height="128.00px" viewBox="0 0 1024 1024" version="1.1" xmlns="http://www.w3.org/2000/svg"><path d="M794.624 268.544A224.853333 224.853333 0 0 0 750.933333 273.066667a287.829333 287.829333 0 0 0-559.445333 41.728h-10.752v1.706666a200.96 200.96 0 0 0 0 398.592v1.706667h613.888a224 224 0 0 0 0-448z" fill="#FFFFFF" /><path d="M359.850667 956.245333a2.474667 2.474667 0 0 1-2.389334-2.389333v-102.4a2.474667 2.474667 0 0 1 4.864 0v102.4a2.474667 2.474667 0 0 1-2.474666 2.389333z" fill="#3ECDFF" /><path d="M373.162667 956.245333a2.474667 2.474667 0 0 1-1.792-0.768L358.4 941.397333a2.389333 2.389333 0 1 1 3.498667-3.328l13.226666 14.08a2.474667 2.474667 0 0 1-1.706666 4.096z" fill="#3ECDFF" /><path d="M346.624 956.16a2.474667 2.474667 0 0 1-1.706667-4.096l13.482667-14.08a2.389333 2.389333 0 0 1 3.498667 3.328L348.416 955.733333a2.474667 2.474667 0 0 1-1.792 0.426667zM359.850667 867.584a2.474667 2.474667 0 0 1-1.621334-0.682667 2.389333 2.389333 0 0 1 0-3.413333l13.226667-14.08a2.389333 2.389333 0 0 1 3.413333 0 2.389333 2.389333 0 0 1 0 3.413333l-13.226666 14.08a2.474667 2.474667 0 0 1-1.792 0.682667z" fill="#3ECDFF" /><path d="M359.850667 867.669333a2.304 2.304 0 0 1-1.706667-0.768L344.917333 853.333333a2.389333 2.389333 0 1 1 3.498667-3.328l13.226667 13.994667a2.389333 2.389333 0 0 1 0 3.413333 2.304 2.304 0 0 1-1.792 0.256zM396.202667 941.226667a2.304 2.304 0 0 1-1.706667-0.768l-72.618667-72.618667a2.389333 2.389333 0 0 1 3.413334-3.413333l72.618666 72.618666a2.389333 2.389333 0 0 1 0 3.413334 2.304 2.304 0 0 1-1.706666 0.768z" fill="#3ECDFF" /><path d="M405.589333 931.84l-19.285333-0.597333a2.389333 2.389333 0 1 1 0-4.778667l19.370667 0.512a2.474667 2.474667 0 0 1 2.304 2.474667 2.389333 2.389333 0 0 1-2.389334 2.389333z" fill="#3ECDFF" /><path d="M386.730667 950.442667a2.389333 2.389333 0 0 1-2.389334-2.304l-0.341333-19.285334a2.389333 2.389333 0 0 1 2.389333-2.474666 2.474667 2.474667 0 0 1 2.474667 2.304l0.597333 19.285333a2.389333 2.389333 0 0 1-2.389333 2.474667zM333.482667 878.933333a2.474667 2.474667 0 0 1-2.389334-2.389333l-0.597333-19.285333a2.474667 2.474667 0 0 1 2.389333-2.474667 2.474667 2.474667 0 0 1 2.474667 2.389333l0.597333 19.285334a2.474667 2.474667 0 0 1-2.389333 2.474666z" fill="#3ECDFF" /><path d="M333.568 878.933333l-19.285333-0.597333a2.304 2.304 0 0 1-2.304-2.474667c0-1.365333 1.194667-2.645333 2.474666-2.304l19.285334 0.512a2.474667 2.474667 0 0 1 0 4.864zM411.306667 904.533333h-102.4a2.389333 2.389333 0 0 1-2.389334-2.389333 2.304 2.304 0 0 1 2.389334-2.389333h102.4a2.389333 2.389333 0 0 1 2.389333 2.389333 2.474667 2.474667 0 0 1-2.389333 2.389333z" fill="#3ECDFF" /><path d="M397.226667 904.533333a2.56 2.56 0 0 1-1.792-0.768 2.389333 2.389333 0 0 1 0-3.413333L409.6 887.466667a2.389333 2.389333 0 0 1 3.413333 0 2.304 2.304 0 0 1 0 3.413333l-14.165333 13.653333a2.048 2.048 0 0 1-1.621333 0z" fill="#3ECDFF" /><path d="M411.221333 918.101333a2.645333 2.645333 0 0 1-1.706666-0.597333L395.434667 904.533333a2.389333 2.389333 0 1 1 3.328-3.498666l14.08 13.312a2.389333 2.389333 0 0 1 0 3.413333 2.218667 2.218667 0 0 1-1.621334 0.341333zM322.645333 904.533333a2.304 2.304 0 0 1-1.706666-0.682666L307.2 890.965333a2.389333 2.389333 0 0 1 0-3.413333 2.56 2.56 0 0 1 3.498667 0l13.568 13.141333a2.389333 2.389333 0 0 1 0 3.413334 2.304 2.304 0 0 1-1.621334 0.426666z" fill="#3ECDFF" /><path d="M308.650667 918.101333a2.218667 2.218667 0 0 1-1.706667-0.682666 2.304 2.304 0 0 1 0-3.413334l14.08-13.312a2.389333 2.389333 0 0 1 3.413333 0 2.474667 2.474667 0 0 1 0 3.413334l-14.08 13.312a2.645333 2.645333 0 0 1-1.706666 0.682666zM323.584 941.226667a2.474667 2.474667 0 0 1-1.706667-4.181334l72.618667-72.618666a2.56 2.56 0 0 1 3.498667 0 2.389333 2.389333 0 0 1 0 3.413333l-72.704 72.618667a2.133333 2.133333 0 0 1-1.706667 0.768z" fill="#3ECDFF" /><path d="M386.304 878.933333a2.304 2.304 0 0 1-2.304-2.474666l0.512-19.285334a2.474667 2.474667 0 0 1 2.56-2.389333 2.474667 2.474667 0 0 1 2.304 2.474667l-0.597333 19.370666a2.389333 2.389333 0 0 1-2.474667 2.304z" fill="#3ECDFF" /><path d="M386.218667 878.933333a2.389333 2.389333 0 0 1-2.389334-2.304 2.474667 2.474667 0 0 1 2.304-2.56l19.285334-0.512a2.389333 2.389333 0 1 1 0 4.778667l-19.285334 0.597333zM314.282667 931.84a2.474667 2.474667 0 0 1-2.474667-2.304 2.56 2.56 0 0 1 2.389333-2.56l19.285334-0.512a2.389333 2.389333 0 0 1 2.389333 2.304 2.304 2.304 0 0 1-2.304 2.474667l-19.370667 0.597333z" fill="#3ECDFF" /><path d="M332.8 950.528a2.389333 2.389333 0 0 1-2.304-2.56l0.512-19.285333a2.56 2.56 0 0 1 2.56-2.304 2.304 2.304 0 0 1 2.304 2.474666l-0.597333 19.285334a2.389333 2.389333 0 0 1-2.474667 2.389333zM615.338667 916.053333a4.181333 4.181333 0 0 1-4.181334-4.181333V777.130667a4.266667 4.266667 0 1 1 8.533334 0v134.741333a4.181333 4.181333 0 0 1-4.352 4.181333z" fill="#3ECDFF" /><path d="M632.746667 916.053333a4.181333 4.181333 0 0 1-3.072-1.28l-17.066667-18.432a4.266667 4.266667 0 1 1 6.144-5.802666l17.066667 18.432a4.181333 4.181333 0 0 1 0 5.973333 4.266667 4.266667 0 0 1-3.072 1.109333z" fill="#3ECDFF" /><path d="M598.016 915.968a4.096 4.096 0 0 1-2.901333-1.194667 4.266667 4.266667 0 0 1 0-5.973333l17.066666-18.432a4.266667 4.266667 0 1 1 6.144 5.802667l-17.066666 18.432a4.437333 4.437333 0 0 1-3.242667 1.365333zM615.338667 799.744a4.266667 4.266667 0 0 1-2.901334-1.109333 4.181333 4.181333 0 0 1 0-5.973334l17.066667-18.432a4.266667 4.266667 0 1 1 6.144 5.802667l-17.066667 18.432a4.181333 4.181333 0 0 1-3.242666 1.28z" fill="#3ECDFF" /><path d="M615.338667 799.914667a4.096 4.096 0 0 1-3.072-1.365334l-17.066667-18.432a4.266667 4.266667 0 0 1 0-5.973333 4.352 4.352 0 0 1 5.973333 0l17.066667 18.517333a4.181333 4.181333 0 0 1 0 5.973334 4.096 4.096 0 0 1-2.901333 1.28zM662.954667 896a4.608 4.608 0 0 1-2.986667-1.194667L564.736 799.829333a4.096 4.096 0 0 1 0-5.973333 4.266667 4.266667 0 0 1 5.973333 0L665.6 889.088a4.266667 4.266667 0 0 1-2.986667 7.253333z" fill="#3ECDFF" /><path d="M675.242667 884.053333l-25.6-0.768a4.181333 4.181333 0 0 1-4.096-4.352 4.352 4.352 0 0 1 4.352-4.096l25.6 0.768a4.266667 4.266667 0 0 1 0 8.533334z" fill="#3ECDFF" /><path d="M650.581333 908.544a4.181333 4.181333 0 0 1-4.181333-4.096l-0.768-25.6a4.181333 4.181333 0 0 1 4.096-4.352 4.352 4.352 0 0 1 4.352 4.096l0.768 25.6a4.266667 4.266667 0 0 1-4.096 4.352zM580.778667 814.08a4.266667 4.266667 0 0 1-4.266667-4.096l-0.768-25.6a4.266667 4.266667 0 1 1 8.533333 0l0.682667 25.6a4.096 4.096 0 0 1-4.096 4.352z" fill="#3ECDFF" /><path d="M580.864 814.250667l-25.6-0.768a4.181333 4.181333 0 0 1-4.096-4.352 3.925333 3.925333 0 0 1 4.352-4.096l25.6 0.682666a4.266667 4.266667 0 0 1 0 8.533334zM682.666667 848.725333H548.010667a4.266667 4.266667 0 0 1 0-8.533333H682.666667a4.266667 4.266667 0 1 1 0 8.533333z" fill="#3ECDFF" /><path d="M664.32 848.725333a4.096 4.096 0 0 1-3.072-1.365333 4.181333 4.181333 0 0 1 0-5.973333l18.432-17.066667a4.266667 4.266667 0 1 1 5.802667 6.144l-18.432 17.066667a4.096 4.096 0 0 1-2.730667 1.194666z" fill="#3ECDFF" /><path d="M682.666667 866.133333a4.352 4.352 0 0 1-2.901334-1.194666l-18.432-17.066667a4.266667 4.266667 0 0 1 5.802667-6.229333l18.432 17.066666a4.266667 4.266667 0 0 1 0 5.973334 4.437333 4.437333 0 0 1-2.901333 1.450666zM566.442667 848.725333a4.266667 4.266667 0 0 1-2.901334-1.109333l-18.432-17.066667a4.266667 4.266667 0 1 1 5.802667-6.144l18.432 17.066667a4.181333 4.181333 0 0 1 0 5.973333 3.84 3.84 0 0 1-2.901333 1.28z" fill="#3ECDFF" /><path d="M548.181333 866.133333a4.437333 4.437333 0 0 1-3.072-1.365333 4.181333 4.181333 0 0 1 0-5.973333l18.432-17.066667a4.352 4.352 0 0 1 5.973334 0 4.266667 4.266667 0 0 1 0 6.058667l-18.432 17.066666a4.352 4.352 0 0 1-2.901334 1.28zM567.808 896a4.266667 4.266667 0 0 1-2.986667-1.194667 4.096 4.096 0 0 1 0-5.973333L660.053333 793.6a4.181333 4.181333 0 0 1 5.973334 5.973333l-95.232 95.573334a4.608 4.608 0 0 1-2.986667 0.853333z" fill="#3ECDFF" /><path d="M649.984 814.165333a4.181333 4.181333 0 0 1-4.096-4.352l0.682667-25.6a4.181333 4.181333 0 0 1 4.352-4.096 4.266667 4.266667 0 0 1 4.181333 4.352l-0.768 25.6a4.352 4.352 0 0 1-4.352 4.096z" fill="#3ECDFF" /><path d="M649.898667 814.250667a4.266667 4.266667 0 0 1-4.266667-4.096 4.266667 4.266667 0 0 1 4.181333-4.352l25.6-0.768a4.096 4.096 0 0 1 4.352 4.096 4.181333 4.181333 0 0 1-4.096 4.352l-25.6 0.768zM555.52 884.053333a4.266667 4.266667 0 0 1 0-8.533333l25.6-0.768a4.522667 4.522667 0 0 1 4.352 4.096 4.266667 4.266667 0 0 1-4.096 4.437333l-25.6 0.682667z" fill="#3ECDFF" /><path d="M580.266667 908.544a4.266667 4.266667 0 0 1-4.096-4.352l0.768-25.6a4.266667 4.266667 0 1 1 8.533333 0l-0.768 25.6a4.181333 4.181333 0 0 1-4.437333 4.352z" fill="#3ECDFF" /></svg>