<?xml version="1.0" standalone="no"?><!DOCTYPE svg PUBLIC "-//W3C//DTD SVG 1.1//EN" "http://www.w3.org/Graphics/SVG/1.1/DTD/svg11.dtd"><svg t="1742982904122" class="icon" viewBox="0 0 1024 1024" version="1.1" xmlns="http://www.w3.org/2000/svg" p-id="6331" xmlns:xlink="http://www.w3.org/1999/xlink" width="16" height="16"><path d="M176.597333 583.765333c10.154667 1.962667 20.138667 5.632 28.586667 11.648 6.058667 4.821333 11.733333 10.154667 17.237333 15.573334l16.384 16.512a2958.037333 2958.037333 0 0 0 77.909334 75.946666c14.848 12.458667 29.738667 24.874667 45.44 36.266667 14.08 10.453333 29.056 19.626667 44.416 28.117333 30.549333 16.256 64.256 25.898667 98.176 32.426667 42.538667 7.936 85.845333 10.88 129.066666 11.093333 7.125333-0.085333 14.549333-0.938667 20.949334-4.266666a13.013333 13.013333 0 0 0 7.338666-11.733334 26.026667 26.026667 0 0 0-6.741333-16.298666c-6.826667-6.485333-12.501333-14.037333-18.773333-21.034667-12.458667-14.165333-25.002667-28.8-32.213334-46.378667a32.298667 32.298667 0 0 1-1.877333-17.408c1.962667-10.112 9.173333-18.176 16.768-24.746666a25.6 25.6 0 0 1 23.68-5.376c27.733333 11.093333 56.277333 19.925333 84.181333 30.421333 52.565333 20.522667 105.685333 39.552 158.421334 59.605333l24.448 9.685334c8.106667 3.285333 16.170667 6.698667 23.893333 10.709333V938.666667H496.938667a248.234667 248.234667 0 0 1-38.656-2.602667c-35.626667-5.333333-69.802667-17.92-101.76-34.090667a504.448 504.448 0 0 1-84.522667-54.698666 543.573333 543.573333 0 0 1-74.965333-72.021334c-19.797333-23.296-37.717333-48.384-51.2-75.776-8.746667-17.962667-15.786667-37.12-17.493334-57.045333-1.365333-15.701333 1.493333-32.426667 11.434667-45.226667 7.893333-11.434667 23.466667-15.658667 36.864-13.397333z m470.186667-491.008a351.530667 351.530667 0 0 1 178.730667 97.493334 349.610667 349.610667 0 0 1 92.885333 177.152 343.893333 343.893333 0 0 1-27.52 214.869333 358.485333 358.485333 0 0 1-55.04 82.858667l-7.338667 7.893333-15.402666 15.189333c-18.602667-7.168-37.418667-13.653333-56.192-20.394666-29.994667-10.965333-60.202667-21.418667-90.453334-31.786667-10.026667-3.328-20.053333-7.338667-30.72-7.893333a45.952 45.952 0 0 0-17.237333 3.2 89.6 89.6 0 0 0-18.602667 8.32c-13.653333 10.496-25.386667 24.021333-31.232 40.277333-5.12 13.866667-5.205333 29.226667-1.493333 43.477333 4.224 16.725333 13.653333 31.445333 20.992 46.933334-39.381333-2.218667-78.762667-7.893333-116.608-19.072a136.021333 136.021333 0 0 1-23.466667-7.765334c-11.178667-4.778667-22.485333-9.429333-32.981333-15.658666a381.653333 381.653333 0 0 1-141.525333-132.693334 331.690667 331.690667 0 0 1-19.626667-36.864 348.416 348.416 0 0 1-23.722667-110.122666 347.52 347.52 0 0 1 58.026667-209.408 349.952 349.952 0 0 1 155.221333-128 351.786667 351.786667 0 0 1 203.306667-18.005334z m-188.757333 155.818667a20.906667 20.906667 0 0 0-3.2 23.04c2.133333 4.565333 6.186667 7.765333 9.898666 11.008l88.234667 77.610667c1.365333 1.322667 3.157333 2.389333 4.096 4.096 0.298667 4.394667 0 8.874667 0.085333 13.269333l-78.506666 0.042667a27.093333 27.093333 0 0 0-22.698667 11.648 20.693333 20.693333 0 0 0-0.170667 22.442666c4.778667 7.68 13.952 11.989333 22.954667 11.946667h78.421333v46.037333h-78.378666a26.709333 26.709333 0 0 0-23.808 13.269334 20.693333 20.693333 0 0 0 0.938666 21.077333 26.965333 26.965333 0 0 0 22.826667 11.648h78.421333v62.634667c0 4.48-0.298667 9.088 1.28 13.397333a24.746667 24.746667 0 0 0 15.701334 14.592c10.837333 3.669333 24.064 0.384 30.976-8.832a21.333333 21.333333 0 0 0 4.394666-13.226667v-68.522666h78.378667a26.794667 26.794667 0 0 0 23.466667-12.757334 20.608 20.608 0 0 0-0.426667-21.248 26.965333 26.965333 0 0 0-23.125333-12.032h-78.293334V423.68h78.336a26.88 26.88 0 0 0 23.722667-13.141333 20.736 20.736 0 0 0-0.938667-21.333334 27.136 27.136 0 0 0-22.741333-11.52c-26.112-0.085333-52.266667 0-78.378667-0.085333v-13.397333c32.213333-28.416 64.512-56.746667 96.810667-85.162667a22.186667 22.186667 0 0 0 7.509333-13.184 21.290667 21.290667 0 0 0-6.784-18.986667 28.757333 28.757333 0 0 0-37.205333-0.810666l-86.357333 75.946666-86.613334-76.16c-10.965333-9.344-29.44-8.277333-38.826666 2.730667z" fill="#8686a0" p-id="6332"></path></svg>