<?xml version="1.0" standalone="no"?><!DOCTYPE svg PUBLIC "-//W3C//DTD SVG 1.1//EN" "http://www.w3.org/Graphics/SVG/1.1/DTD/svg11.dtd"><svg t="1743056556128" class="icon" viewBox="0 0 1024 1024" version="1.1" xmlns="http://www.w3.org/2000/svg" p-id="4588" data-darkreader-inline-fill="" xmlns:xlink="http://www.w3.org/1999/xlink" width="16" height="16"><path d="M278.4 249.6s-105.6 3.2-121.6 0C108.8 249.6 96 310.4 96 310.4L28.8 464c-25.6 25.6-28.8 57.6-28.8 57.6v195.2c0 32 44.8 28.8 44.8 28.8 44.8 0 44.8-35.2 44.8-35.2 0-83.2 92.8-89.6 92.8-89.6h96c57.6 0 60.8-64 60.8-64l3.2-249.6c0-64-64-57.6-64-57.6m3.2 96v124.8c0 25.6-22.4 35.2-32 32H124.8c-35.2 0-32 32-32 32h-32v-25.6l96-166.4c9.6-22.4 44.8-28.8 44.8-28.8H256c28.8-3.2 25.6 32 25.6 32m-64 291.2c-54.4 0-96 41.6-96 92.8 0 51.2 41.6 96 96 96s96-41.6 96-96c0-51.2-41.6-92.8-96-92.8m179.2 51.2c0 35.2 32 54.4 32 54.4h368c0-22.4-28.8-54.4-28.8-54.4H396.8zM1024 195.2H387.2v422.4H1024V195.2h-12.8 12.8z m-92.8 454.4c-51.2 0-92.8 38.4-92.8 89.6 0 51.2 41.6 92.8 92.8 92.8 51.2 0 92.8-41.6 92.8-92.8 0-51.2-41.6-89.6-92.8-89.6" fill="#8686a0" p-id="4589" data-darkreader-inline-fill="" style="--darkreader-inline-fill: var(--darkreader-background-8686a0, #4f4f65);"></path></svg>