<?xml version="1.0" standalone="no"?><!DOCTYPE svg PUBLIC "-//W3C//DTD SVG 1.1//EN" "http://www.w3.org/Graphics/SVG/1.1/DTD/svg11.dtd"><svg t="1743057439262" class="icon" viewBox="0 0 1063 1024" version="1.1" xmlns="http://www.w3.org/2000/svg" p-id="5851" data-darkreader-inline-fill="" xmlns:xlink="http://www.w3.org/1999/xlink" width="16.609375" height="16"><path d="M1063.146293 917.692074a111.91162 111.91162 0 0 1-7.60999 41.468851 102.768441 102.768441 0 0 1-21.660494 33.875648A100.284003 100.284003 0 0 1 960.109264 1023.991327H110.07336a109.841255 109.841255 0 0 1-42.151512-8.175144 111.352062 111.352062 0 0 1-35.129057-22.77961 109.315271 109.315271 0 0 1-24.005043-33.875648A98.823556 98.823556 0 0 1 0.008282 917.692074V334.794804a105.818033 105.818033 0 0 1 106.551053-106.31604h850.058287a105.818033 105.818033 0 0 1 106.551054 106.31604v158.86414h-265.812481a103.926726 103.926726 0 0 0-75.540344 30.372814 100.513422 100.513422 0 0 0-31.027497 74.762558 129.778311 129.778311 0 0 0 12.869837 53.717578 99.041784 99.041784 0 0 0 31.027496 36.2146q21.660494 16.355883 62.64253 16.355884h265.790098zM903.929631 174.761186h-531.580197q63.230066-32.706171 119.432081-63.078984 49.179562-25.700504 97.184051-51.395412t74.936021-39.728625Q704.883623-1.63391 737.080596 0.117507a164.045649 164.045649 0 0 1 54.445003 11.096037 146.637796 146.637796 0 0 1 44.496061 33.875648z m-159.239045 424.027535a52.687991 52.687991 0 1 1 105.381578 0 52.699182 52.699182 0 0 1-15.219981 37.966017 52.397021 52.397021 0 0 1-74.936021 0 52.704778 52.704778 0 0 1-15.225576-37.966017z" fill="#8686a0" p-id="5852" data-darkreader-inline-fill="" style="--darkreader-inline-fill: var(--darkreader-background-8686a0, #4f4f65);"></path></svg>