<?xml version="1.0" standalone="no"?><!DOCTYPE svg PUBLIC "-//W3C//DTD SVG 1.1//EN" "http://www.w3.org/Graphics/SVG/1.1/DTD/svg11.dtd"><svg t="1742969395982" class="icon" viewBox="0 0 1024 1024" version="1.1" xmlns="http://www.w3.org/2000/svg" p-id="2405" xmlns:xlink="http://www.w3.org/1999/xlink" width="16" height="16"><path d="M864.64 772.949333c69.205333 0 103.552-9.728 103.552-55.125333 6.058667-127.104-75.221333-239.018667-189.653333-266.24 66.218667-33.237333 96.341333-114.901333 66.218666-187.52-27.136-63.530667-115.84-93.866667-179.157333-75.648 79.872 75.648 94.165333 201.045333 19.626667 281.386667 115.712 42.197333 179.413333 165.546667 179.413333 303.146666z m-274.901333-285.696c105.130667 21.504 227.328 91.306667 227.328 292.693334 0 53.717333-70.997333 53.717333-301.184 53.717333-232.96 0-301.141333 0-301.141334-53.717333 0-198.698667 122.197333-271.274667 227.328-292.693334-82.346667-42.965333-110.805333-142.336-70.997333-222.933333a156.416 156.416 0 0 1 215.893333-67.157333c76.629333 42.965333 107.946667 142.421333 65.28 220.288-14.250667 32.170667-36.992 53.674667-62.506666 69.802666z m-424.96 285.696c-69.205333 0-103.552-9.728-103.552-55.125333-6.016-127.104 75.221333-239.018667 189.653333-266.24C184.746667 418.346667 154.538667 336.682667 184.746667 264.106667c27.093333-63.530667 115.84-93.866667 179.114666-75.648-79.872 75.648-94.165333 201.045333-19.626666 281.386666-115.712 42.197333-179.413333 165.546667-179.413334 303.146667z" fill="#8686a0" p-id="2406"></path></svg>