<?xml version="1.0" standalone="no"?><!DOCTYPE svg PUBLIC "-//W3C//DTD SVG 1.1//EN" "http://www.w3.org/Graphics/SVG/1.1/DTD/svg11.dtd"><svg t="1742969416324" class="icon" viewBox="0 0 1024 1024" version="1.1" xmlns="http://www.w3.org/2000/svg" p-id="2623" xmlns:xlink="http://www.w3.org/1999/xlink" width="16" height="16"><path d="M882.645333 917.333333l-119.68-151.04h27.008c27.008 0 46.336-18.474667 46.336-51.626666V187.733333c0-29.44-23.168-55.253333-50.218666-55.253333H670.293333c-3.84-14.762667-15.445333-25.813333-30.890666-25.813333H384.597333c-15.445333 0-27.008 11.093333-30.890666 25.813333H237.909333c-27.050667 0-50.218667 25.770667-50.218666 55.253333v526.933334c0 29.44 19.328 51.626667 46.336 51.626666h27.008L141.354667 917.333333h741.290666zM295.808 869.418667l15.445333-25.770667h413.098667l23.168 25.770667H295.808zM349.866667 792.064l19.285333-25.813333h293.418667l23.168 25.813333H349.866667z m-104.277334-254.293333V309.333333c0-29.44 19.328-51.626667 50.218667-51.626666h432.384c30.890667 0 50.218667 18.474667 50.218667 51.626666v228.48c0 29.44-19.328 51.584-50.218667 51.584H295.808c-30.890667 0-50.218667-22.144-50.218667-51.626666z m405.376-327.936H369.152c-11.562667 0-23.168-11.050667-23.168-22.101334 0-11.093333 11.605333-22.101333 23.168-22.101333h281.813333c11.605333 0 23.168 11.050667 23.168 22.101333 0 11.093333-11.562667 22.101333-23.168 22.101334z m-339.712 456.96c0 22.058667-15.445333 36.821333-38.613333 36.821333s-38.613333-14.762667-38.613333-36.864 15.445333-36.821333 38.613333-36.821333 38.613333 18.389333 38.613333 36.821333z m478.72 0c0 22.058667-15.445333 36.821333-38.613333 36.821333s-38.613333-14.762667-38.613333-36.864 15.445333-36.821333 38.613333-36.821333 38.613333 18.389333 38.613333 36.821333z m-312.746666-427.477334h69.546666v364.8h-69.546666V239.36z" fill="#8686a0" p-id="2624"></path></svg>